<svg width="768" height="768" viewBox="0 0 768 768" fill="none" xmlns="http://www.w3.org/2000/svg">
<rect width="768" height="768" rx="32" fill="url(#paint0_linear_274_491)"/>
<path d="M115.409 53V41.3636H122.386V42.6136H116.818V46.5455H121.864V47.7955H116.818V53H115.409ZM127.523 53.1818C126.735 53.1818 126.044 52.9943 125.449 52.6193C124.858 52.2443 124.396 51.7197 124.062 51.0455C123.733 50.3712 123.568 49.5833 123.568 48.6818C123.568 47.7727 123.733 46.9792 124.062 46.3011C124.396 45.6231 124.858 45.0966 125.449 44.7216C126.044 44.3466 126.735 44.1591 127.523 44.1591C128.311 44.1591 129 44.3466 129.591 44.7216C130.186 45.0966 130.648 45.6231 130.977 46.3011C131.311 46.9792 131.477 47.7727 131.477 48.6818C131.477 49.5833 131.311 50.3712 130.977 51.0455C130.648 51.7197 130.186 52.2443 129.591 52.6193C129 52.9943 128.311 53.1818 127.523 53.1818ZM127.523 51.9773C128.121 51.9773 128.614 51.8239 129 51.517C129.386 51.2102 129.672 50.8068 129.858 50.3068C130.044 49.8068 130.136 49.2652 130.136 48.6818C130.136 48.0985 130.044 47.5549 129.858 47.0511C129.672 46.5473 129.386 46.1402 129 45.8295C128.614 45.5189 128.121 45.3636 127.523 45.3636C126.924 45.3636 126.432 45.5189 126.045 45.8295C125.659 46.1402 125.373 46.5473 125.188 47.0511C125.002 47.5549 124.909 48.0985 124.909 48.6818C124.909 49.2652 125.002 49.8068 125.188 50.3068C125.373 50.8068 125.659 51.2102 126.045 51.517C126.432 51.8239 126.924 51.9773 127.523 51.9773ZM137.07 53.1818C136.251 53.1818 135.547 52.9886 134.956 52.6023C134.365 52.2159 133.911 51.6837 133.592 51.0057C133.274 50.3277 133.115 49.553 133.115 48.6818C133.115 47.7955 133.278 47.0133 133.604 46.3352C133.933 45.6534 134.392 45.1212 134.979 44.7386C135.57 44.3523 136.259 44.1591 137.047 44.1591C137.661 44.1591 138.214 44.2727 138.706 44.5C139.198 44.7273 139.602 45.0455 139.916 45.4545C140.231 45.8636 140.426 46.3409 140.501 46.8864H139.161C139.058 46.4886 138.831 46.1364 138.479 45.8295C138.13 45.5189 137.661 45.3636 137.07 45.3636C136.547 45.3636 136.089 45.5 135.695 45.7727C135.304 46.0417 135 46.4223 134.78 46.9148C134.564 47.4034 134.456 47.9773 134.456 48.6364C134.456 49.3106 134.562 49.8977 134.774 50.3977C134.99 50.8977 135.293 51.286 135.683 51.5625C136.077 51.839 136.539 51.9773 137.07 51.9773C137.418 51.9773 137.734 51.9167 138.018 51.7955C138.303 51.6742 138.543 51.5 138.74 51.2727C138.937 51.0455 139.077 50.7727 139.161 50.4545H140.501C140.426 50.9697 140.238 51.4337 139.939 51.8466C139.643 52.2557 139.251 52.5814 138.763 52.8239C138.278 53.0625 137.714 53.1818 137.07 53.1818ZM147.962 49.4318V44.2727H149.303V53H147.962V51.5227H147.871C147.666 51.9659 147.348 52.3428 146.916 52.6534C146.484 52.9602 145.939 53.1136 145.28 53.1136C144.734 53.1136 144.25 52.9943 143.825 52.7557C143.401 52.5133 143.068 52.1496 142.825 51.6648C142.583 51.1761 142.462 50.5606 142.462 49.8182V44.2727H143.803V49.7273C143.803 50.3636 143.981 50.8712 144.337 51.25C144.696 51.6288 145.155 51.8182 145.712 51.8182C146.045 51.8182 146.384 51.733 146.729 51.5625C147.077 51.392 147.369 51.1307 147.604 50.7784C147.842 50.4261 147.962 49.9773 147.962 49.4318ZM157.94 46.2273L156.736 46.5682C156.66 46.3674 156.548 46.1723 156.401 45.983C156.257 45.7898 156.06 45.6307 155.81 45.5057C155.56 45.3807 155.24 45.3182 154.849 45.3182C154.315 45.3182 153.87 45.4413 153.514 45.6875C153.162 45.9299 152.986 46.2386 152.986 46.6136C152.986 46.947 153.107 47.2102 153.349 47.4034C153.592 47.5966 153.971 47.7576 154.486 47.8864L155.781 48.2045C156.562 48.3939 157.143 48.6837 157.526 49.0739C157.908 49.4602 158.099 49.9583 158.099 50.5682C158.099 51.0682 157.955 51.5152 157.668 51.9091C157.384 52.303 156.986 52.6136 156.474 52.8409C155.963 53.0682 155.368 53.1818 154.69 53.1818C153.8 53.1818 153.063 52.9886 152.48 52.6023C151.897 52.2159 151.527 51.6515 151.372 50.9091L152.645 50.5909C152.766 51.0606 152.995 51.4129 153.332 51.6477C153.673 51.8826 154.118 52 154.668 52C155.293 52 155.789 51.8674 156.156 51.6023C156.527 51.3333 156.713 51.0114 156.713 50.6364C156.713 50.3333 156.607 50.0795 156.395 49.875C156.183 49.6667 155.857 49.5114 155.418 49.4091L153.963 49.0682C153.164 48.8788 152.577 48.5852 152.202 48.1875C151.83 47.786 151.645 47.2841 151.645 46.6818C151.645 46.1894 151.783 45.7538 152.06 45.375C152.34 44.9962 152.721 44.6989 153.202 44.483C153.687 44.267 154.236 44.1591 154.849 44.1591C155.713 44.1591 156.391 44.3485 156.884 44.7273C157.38 45.1061 157.732 45.6061 157.94 46.2273ZM168.413 44.2727V45.4091H163.891V44.2727H168.413ZM165.209 42.1818H166.55V50.5C166.55 50.8788 166.605 51.1629 166.714 51.3523C166.828 51.5379 166.972 51.6629 167.146 51.7273C167.324 51.7879 167.512 51.8182 167.709 51.8182C167.857 51.8182 167.978 51.8106 168.072 51.7955C168.167 51.7765 168.243 51.7614 168.3 51.75L168.572 52.9545C168.482 52.9886 168.355 53.0227 168.192 53.0568C168.029 53.0947 167.822 53.1136 167.572 53.1136C167.194 53.1136 166.822 53.0322 166.459 52.8693C166.099 52.7064 165.8 52.4583 165.561 52.125C165.326 51.7917 165.209 51.3712 165.209 50.8636V42.1818ZM170.43 53V44.2727H171.771V53H170.43ZM171.112 42.8182C170.851 42.8182 170.625 42.7292 170.436 42.5511C170.25 42.3731 170.158 42.1591 170.158 41.9091C170.158 41.6591 170.25 41.4451 170.436 41.267C170.625 41.089 170.851 41 171.112 41C171.374 41 171.597 41.089 171.783 41.267C171.972 41.4451 172.067 41.6591 172.067 41.9091C172.067 42.1591 171.972 42.3731 171.783 42.5511C171.597 42.7292 171.374 42.8182 171.112 42.8182ZM174.227 53V44.2727H175.523V45.6364H175.636C175.818 45.1705 176.112 44.8087 176.517 44.5511C176.922 44.2898 177.409 44.1591 177.977 44.1591C178.553 44.1591 179.032 44.2898 179.415 44.5511C179.801 44.8087 180.102 45.1705 180.318 45.6364H180.409C180.633 45.1856 180.968 44.8277 181.415 44.5625C181.862 44.2936 182.398 44.1591 183.023 44.1591C183.803 44.1591 184.441 44.4034 184.938 44.892C185.434 45.3769 185.682 46.1326 185.682 47.1591V53H184.341V47.1591C184.341 46.5152 184.165 46.0549 183.812 45.7784C183.46 45.5019 183.045 45.3636 182.568 45.3636C181.955 45.3636 181.479 45.5492 181.142 45.9205C180.805 46.2879 180.636 46.7538 180.636 47.3182V53H179.273V47.0227C179.273 46.5265 179.112 46.1269 178.79 45.8239C178.468 45.517 178.053 45.3636 177.545 45.3636C177.197 45.3636 176.871 45.4564 176.568 45.642C176.269 45.8277 176.027 46.0852 175.841 46.4148C175.659 46.7405 175.568 47.1174 175.568 47.5455V53H174.227ZM191.793 53.1818C190.952 53.1818 190.226 52.9962 189.616 52.625C189.01 52.25 188.543 51.7273 188.213 51.0568C187.887 50.3826 187.724 49.5985 187.724 48.7045C187.724 47.8106 187.887 47.0227 188.213 46.3409C188.543 45.6553 189.001 45.1212 189.588 44.7386C190.179 44.3523 190.868 44.1591 191.656 44.1591C192.111 44.1591 192.56 44.2348 193.003 44.3864C193.446 44.5379 193.849 44.7841 194.213 45.125C194.577 45.4621 194.866 45.9091 195.082 46.4659C195.298 47.0227 195.406 47.7083 195.406 48.5227V49.0909H188.679V47.9318H194.043C194.043 47.4394 193.944 47 193.747 46.6136C193.554 46.2273 193.277 45.9223 192.918 45.6989C192.562 45.4754 192.141 45.3636 191.656 45.3636C191.122 45.3636 190.66 45.4962 190.27 45.7614C189.884 46.0227 189.586 46.3636 189.378 46.7841C189.17 47.2045 189.065 47.6553 189.065 48.1364V48.9091C189.065 49.5682 189.179 50.1269 189.406 50.5852C189.637 51.0398 189.957 51.3864 190.366 51.625C190.776 51.8598 191.251 51.9773 191.793 51.9773C192.145 51.9773 192.463 51.928 192.747 51.8295C193.035 51.7273 193.283 51.5758 193.491 51.375C193.7 51.1705 193.861 50.9167 193.974 50.6136L195.27 50.9773C195.134 51.4167 194.904 51.803 194.582 52.1364C194.26 52.4659 193.863 52.7235 193.389 52.9091C192.916 53.0909 192.384 53.1818 191.793 53.1818ZM205.741 44.2727V45.4091H201.219V44.2727H205.741ZM202.537 42.1818H203.878V50.5C203.878 50.8788 203.933 51.1629 204.043 51.3523C204.156 51.5379 204.3 51.6629 204.474 51.7273C204.652 51.7879 204.84 51.8182 205.037 51.8182C205.185 51.8182 205.306 51.8106 205.401 51.7955C205.495 51.7765 205.571 51.7614 205.628 51.75L205.901 52.9545C205.81 52.9886 205.683 53.0227 205.52 53.0568C205.357 53.0947 205.151 53.1136 204.901 53.1136C204.522 53.1136 204.151 53.0322 203.787 52.8693C203.427 52.7064 203.128 52.4583 202.889 52.125C202.654 51.7917 202.537 51.3712 202.537 50.8636V42.1818ZM211.21 53.1818C210.422 53.1818 209.731 52.9943 209.136 52.6193C208.545 52.2443 208.083 51.7197 207.75 51.0455C207.42 50.3712 207.256 49.5833 207.256 48.6818C207.256 47.7727 207.42 46.9792 207.75 46.3011C208.083 45.6231 208.545 45.0966 209.136 44.7216C209.731 44.3466 210.422 44.1591 211.21 44.1591C211.998 44.1591 212.688 44.3466 213.278 44.7216C213.873 45.0966 214.335 45.6231 214.665 46.3011C214.998 46.9792 215.165 47.7727 215.165 48.6818C215.165 49.5833 214.998 50.3712 214.665 51.0455C214.335 51.7197 213.873 52.2443 213.278 52.6193C212.688 52.9943 211.998 53.1818 211.21 53.1818ZM211.21 51.9773C211.809 51.9773 212.301 51.8239 212.688 51.517C213.074 51.2102 213.36 50.8068 213.545 50.3068C213.731 49.8068 213.824 49.2652 213.824 48.6818C213.824 48.0985 213.731 47.5549 213.545 47.0511C213.36 46.5473 213.074 46.1402 212.688 45.8295C212.301 45.5189 211.809 45.3636 211.21 45.3636C210.612 45.3636 210.119 45.5189 209.733 45.8295C209.347 46.1402 209.061 46.5473 208.875 47.0511C208.689 47.5549 208.597 48.0985 208.597 48.6818C208.597 49.2652 208.689 49.8068 208.875 50.3068C209.061 50.8068 209.347 51.2102 209.733 51.517C210.119 51.8239 210.612 51.9773 211.21 51.9773ZM220.507 53.1818C219.78 53.1818 219.138 52.9981 218.581 52.6307C218.024 52.2595 217.589 51.7367 217.274 51.0625C216.96 50.3845 216.803 49.5833 216.803 48.6591C216.803 47.7424 216.96 46.947 217.274 46.2727C217.589 45.5985 218.026 45.0777 218.587 44.7102C219.147 44.3428 219.795 44.1591 220.53 44.1591C221.098 44.1591 221.547 44.2538 221.876 44.4432C222.21 44.6288 222.464 44.8409 222.638 45.0795C222.816 45.3144 222.954 45.5076 223.053 45.6591H223.166V41.3636H224.507V53H223.212V51.6591H223.053C222.954 51.8182 222.814 52.0189 222.632 52.2614C222.45 52.5 222.191 52.714 221.854 52.9034C221.517 53.089 221.068 53.1818 220.507 53.1818ZM220.689 51.9773C221.227 51.9773 221.681 51.8371 222.053 51.5568C222.424 51.2727 222.706 50.8807 222.899 50.3807C223.092 49.8769 223.189 49.2955 223.189 48.6364C223.189 47.9848 223.094 47.4148 222.905 46.9261C222.715 46.4337 222.435 46.0511 222.064 45.7784C221.693 45.5019 221.234 45.3636 220.689 45.3636C220.121 45.3636 219.647 45.5095 219.268 45.8011C218.893 46.089 218.611 46.4811 218.422 46.9773C218.236 47.4697 218.143 48.0227 218.143 48.6364C218.143 49.2576 218.238 49.822 218.428 50.3295C218.621 50.8333 218.905 51.2348 219.28 51.5341C219.659 51.8295 220.128 51.9773 220.689 51.9773ZM229.717 53.2045C229.164 53.2045 228.662 53.1004 228.212 52.892C227.761 52.6799 227.403 52.375 227.138 51.9773C226.873 51.5758 226.74 51.0909 226.74 50.5227C226.74 50.0227 226.839 49.6174 227.036 49.3068C227.232 48.9924 227.496 48.7462 227.825 48.5682C228.155 48.3902 228.518 48.2576 228.916 48.1705C229.318 48.0795 229.721 48.0076 230.126 47.9545C230.657 47.8864 231.087 47.8352 231.416 47.8011C231.75 47.7633 231.992 47.7008 232.143 47.6136C232.299 47.5265 232.376 47.375 232.376 47.1591V47.1136C232.376 46.553 232.223 46.1174 231.916 45.8068C231.613 45.4962 231.153 45.3409 230.536 45.3409C229.895 45.3409 229.393 45.4811 229.03 45.7614C228.666 46.0417 228.411 46.3409 228.263 46.6591L226.99 46.2045C227.217 45.6742 227.52 45.2614 227.899 44.9659C228.282 44.6667 228.698 44.4583 229.149 44.3409C229.604 44.2197 230.051 44.1591 230.49 44.1591C230.77 44.1591 231.092 44.1932 231.456 44.2614C231.823 44.3258 232.178 44.4602 232.518 44.6648C232.863 44.8693 233.149 45.178 233.376 45.5909C233.604 46.0038 233.717 46.5568 233.717 47.25V53H232.376V51.8182H232.308C232.217 52.0076 232.066 52.2102 231.854 52.4261C231.642 52.642 231.359 52.8258 231.007 52.9773C230.655 53.1288 230.225 53.2045 229.717 53.2045ZM229.922 52C230.452 52 230.899 51.8958 231.263 51.6875C231.63 51.4792 231.907 51.2102 232.092 50.8807C232.282 50.5511 232.376 50.2045 232.376 49.8409V48.6136C232.32 48.6818 232.195 48.7443 232.001 48.8011C231.812 48.8542 231.592 48.9015 231.342 48.9432C231.096 48.9811 230.856 49.0152 230.621 49.0455C230.39 49.072 230.202 49.0947 230.058 49.1136C229.71 49.1591 229.384 49.233 229.081 49.3352C228.782 49.4337 228.539 49.5833 228.354 49.7841C228.172 49.9811 228.081 50.25 228.081 50.5909C228.081 51.0568 228.253 51.4091 228.598 51.6477C228.946 51.8826 229.388 52 229.922 52ZM236.716 56.2727C236.489 56.2727 236.286 56.2538 236.108 56.2159C235.93 56.1818 235.807 56.1477 235.739 56.1136L236.08 54.9318C236.405 55.0152 236.693 55.0455 236.943 55.0227C237.193 55 237.415 54.8883 237.608 54.6875C237.805 54.4905 237.985 54.1705 238.148 53.7273L238.398 53.0455L235.17 44.2727H236.625L239.034 51.2273H239.125L241.534 44.2727H242.989L239.284 54.2727C239.117 54.7235 238.911 55.0966 238.665 55.392C238.419 55.6913 238.133 55.9129 237.807 56.0568C237.485 56.2008 237.121 56.2727 236.716 56.2727Z" fill="#B4B4B4"/>
<path d="M116.543 160.301C116.895 159.723 117.332 159.258 117.855 158.906C118.379 158.547 118.914 158.367 119.461 158.367C120.062 158.367 120.605 158.504 121.09 158.777C121.574 159.051 121.957 159.426 122.238 159.902C122.52 160.379 122.66 160.922 122.66 161.531C122.66 162.195 122.488 162.805 122.145 163.359C121.801 163.906 121.34 164.344 120.762 164.672C120.184 165 119.539 165.164 118.828 165.164C117.633 165.164 116.672 164.77 115.945 163.98C115.219 163.191 114.855 162.16 114.855 160.887C114.855 159.684 115.133 158.566 115.688 157.535C116.242 156.504 117.027 155.645 118.043 154.957C119.066 154.262 120.281 153.816 121.688 153.621L121.98 154.57C118.582 155.414 116.883 157.543 116.883 160.957C116.883 161.918 117.074 162.699 117.457 163.301C117.84 163.895 118.348 164.191 118.98 164.191C119.488 164.191 119.902 163.992 120.223 163.594C120.543 163.195 120.703 162.688 120.703 162.07C120.703 161.383 120.523 160.832 120.164 160.418C119.805 160.004 119.332 159.797 118.746 159.797C118.293 159.797 117.879 159.918 117.504 160.16C117.129 160.395 116.824 160.699 116.59 161.074L116.543 160.301ZM127.184 165L127.16 164.215L128.086 163.957L131.941 154.359L133.184 153.621L137.355 163.957L138.305 164.215L138.246 165H134.051L134.016 164.215L135.176 163.957L134.086 161.262L133.875 160.664L131.883 155.766L132.352 155.66L130.535 160.664L130.324 161.227L129.363 163.957L130.535 164.215L130.5 165H127.184ZM129.926 161.625V160.535C130.168 160.543 130.48 160.555 130.863 160.57C131.246 160.578 131.719 160.582 132.281 160.582C132.844 160.582 133.32 160.578 133.711 160.57C134.102 160.555 134.41 160.543 134.637 160.535V161.602C134.27 161.602 133.891 161.598 133.5 161.59C133.109 161.574 132.703 161.566 132.281 161.566C131.867 161.566 131.469 161.574 131.086 161.59C130.711 161.598 130.324 161.609 129.926 161.625ZM139.23 153.961H142.699L146.637 162.75H146.238L150 153.961H153.328L153.387 154.758L152.227 155.004C152.219 155.152 152.215 155.453 152.215 155.906C152.223 156.352 152.23 156.875 152.238 157.477L152.332 160.887C152.363 161.777 152.387 162.473 152.402 162.973C152.426 163.473 152.445 163.801 152.461 163.957L153.633 164.215L153.598 165H149.25L149.191 164.215L150.363 163.957C150.371 163.793 150.375 163.508 150.375 163.102C150.375 162.688 150.371 162.02 150.363 161.098L150.328 154.512H150.926L146.391 165.047H145.582L140.801 154.488H141.504L141.516 160.91C141.516 161.934 141.52 162.672 141.527 163.125C141.543 163.57 141.555 163.848 141.562 163.957L142.852 164.215L142.805 165H138.961L138.902 164.215L140.203 163.957C140.219 163.824 140.23 163.516 140.238 163.031C140.254 162.539 140.266 161.926 140.273 161.191L140.332 157.5C140.348 156.875 140.352 156.352 140.344 155.93C140.336 155.508 140.332 155.203 140.332 155.016L139.172 154.758L139.23 153.961Z" fill="#B4B4B4"/>
<path d="M368.709 161.145C368.709 161.98 368.721 162.641 368.744 163.125C368.768 163.602 368.795 163.879 368.826 163.957L370.373 164.238L370.314 165H365.311L365.252 164.238L366.775 163.957C366.791 163.848 366.811 163.531 366.834 163.008C366.857 162.477 366.869 161.855 366.869 161.145V158.051C366.869 157.652 366.861 157.254 366.846 156.855C366.83 156.457 366.807 156.125 366.775 155.859L365.1 156.223L365.041 155.297L368.803 153.762C368.771 154.191 368.748 154.727 368.732 155.367C368.717 156 368.709 156.773 368.709 157.688V161.145ZM377.029 165L376.971 164.215L378.061 163.957C378.092 163.879 378.115 163.629 378.131 163.207C378.146 162.785 378.154 162.125 378.154 161.227L378.178 157.676C378.178 156.809 378.166 156.164 378.143 155.742C378.119 155.32 378.1 155.078 378.084 155.016L376.924 154.758L376.971 153.961H381.225C382.561 153.961 383.584 154.238 384.295 154.793C385.006 155.34 385.361 156.129 385.361 157.16C385.361 157.855 385.178 158.469 384.811 159C384.451 159.523 383.959 159.934 383.334 160.23C382.709 160.52 381.994 160.664 381.189 160.664C380.924 160.664 380.674 160.652 380.439 160.629C380.213 160.598 379.998 160.566 379.795 160.535V159.422C380.029 159.5 380.256 159.562 380.475 159.609C380.693 159.648 380.92 159.668 381.154 159.668C381.842 159.668 382.377 159.48 382.76 159.105C383.15 158.73 383.346 158.164 383.346 157.406C383.346 156.531 383.119 155.891 382.666 155.484C382.221 155.07 381.646 154.863 380.943 154.863H380.1C380.092 154.988 380.084 155.309 380.076 155.824C380.068 156.34 380.064 156.957 380.064 157.676L380.076 161.227C380.076 162.125 380.088 162.781 380.111 163.195C380.143 163.609 380.162 163.855 380.17 163.934L381.717 164.18L381.658 165H377.029ZM387.072 153.961H390.541L394.479 162.75H394.08L397.842 153.961H401.17L401.229 154.758L400.068 155.004C400.061 155.152 400.057 155.453 400.057 155.906C400.064 156.352 400.072 156.875 400.08 157.477L400.174 160.887C400.205 161.777 400.229 162.473 400.244 162.973C400.268 163.473 400.287 163.801 400.303 163.957L401.475 164.215L401.439 165H397.092L397.033 164.215L398.205 163.957C398.213 163.793 398.217 163.508 398.217 163.102C398.217 162.688 398.213 162.02 398.205 161.098L398.17 154.512H398.768L394.232 165.047H393.424L388.643 154.488H389.346L389.357 160.91C389.357 161.934 389.361 162.672 389.369 163.125C389.385 163.57 389.396 163.848 389.404 163.957L390.693 164.215L390.646 165H386.803L386.744 164.215L388.045 163.957C388.061 163.824 388.072 163.516 388.08 163.031C388.096 162.539 388.107 161.926 388.115 161.191L388.174 157.5C388.189 156.875 388.193 156.352 388.186 155.93C388.178 155.508 388.174 155.203 388.174 155.016L387.014 154.758L387.072 153.961Z" fill="#B4B4B4"/>
<path d="M615.459 165.164C614.248 165.164 613.279 164.895 612.553 164.355C611.826 163.809 611.463 163.109 611.463 162.258C611.463 161.539 611.729 160.934 612.26 160.441C612.799 159.941 613.541 159.594 614.486 159.398L614.955 159.715C614.385 160.098 613.979 160.484 613.736 160.875C613.494 161.258 613.373 161.668 613.373 162.105C613.373 162.691 613.58 163.172 613.994 163.547C614.408 163.914 614.986 164.098 615.729 164.098C616.354 164.098 616.846 163.957 617.205 163.676C617.572 163.395 617.756 163.012 617.756 162.527C617.756 162.074 617.615 161.703 617.334 161.414C617.053 161.125 616.689 160.879 616.244 160.676C615.799 160.465 615.326 160.262 614.826 160.066C614.326 159.863 613.854 159.633 613.408 159.375C612.963 159.109 612.6 158.773 612.318 158.367C612.037 157.961 611.896 157.445 611.896 156.82C611.896 155.945 612.26 155.223 612.986 154.652C613.713 154.082 614.635 153.797 615.752 153.797C616.822 153.797 617.674 154.062 618.307 154.594C618.947 155.117 619.268 155.785 619.268 156.598C619.268 157.285 619.049 157.875 618.611 158.367C618.182 158.852 617.572 159.223 616.783 159.48L616.443 159.234C616.811 158.828 617.072 158.438 617.229 158.062C617.385 157.68 617.463 157.254 617.463 156.785C617.463 156.16 617.295 155.668 616.959 155.309C616.631 154.941 616.166 154.758 615.564 154.758C615.057 154.758 614.635 154.898 614.299 155.18C613.963 155.461 613.795 155.848 613.795 156.34C613.795 156.809 613.936 157.195 614.217 157.5C614.506 157.805 614.873 158.066 615.318 158.285C615.764 158.496 616.236 158.703 616.736 158.906C617.236 159.102 617.709 159.324 618.154 159.574C618.6 159.824 618.963 160.137 619.244 160.512C619.533 160.887 619.678 161.367 619.678 161.953C619.678 162.906 619.291 163.68 618.518 164.273C617.744 164.867 616.725 165.164 615.459 165.164ZM624.893 165L624.834 164.215L625.924 163.957C625.955 163.879 625.979 163.629 625.994 163.207C626.01 162.785 626.018 162.125 626.018 161.227L626.041 157.676C626.041 156.809 626.029 156.164 626.006 155.742C625.982 155.32 625.963 155.078 625.947 155.016L624.787 154.758L624.834 153.961H629.088C630.424 153.961 631.447 154.238 632.158 154.793C632.869 155.34 633.225 156.129 633.225 157.16C633.225 157.855 633.041 158.469 632.674 159C632.314 159.523 631.822 159.934 631.197 160.23C630.572 160.52 629.857 160.664 629.053 160.664C628.787 160.664 628.537 160.652 628.303 160.629C628.076 160.598 627.861 160.566 627.658 160.535V159.422C627.893 159.5 628.119 159.562 628.338 159.609C628.557 159.648 628.783 159.668 629.018 159.668C629.705 159.668 630.24 159.48 630.623 159.105C631.014 158.73 631.209 158.164 631.209 157.406C631.209 156.531 630.982 155.891 630.529 155.484C630.084 155.07 629.51 154.863 628.807 154.863H627.963C627.955 154.988 627.947 155.309 627.939 155.824C627.932 156.34 627.928 156.957 627.928 157.676L627.939 161.227C627.939 162.125 627.951 162.781 627.975 163.195C628.006 163.609 628.025 163.855 628.033 163.934L629.58 164.18L629.521 165H624.893ZM634.936 153.961H638.404L642.342 162.75H641.943L645.705 153.961H649.033L649.092 154.758L647.932 155.004C647.924 155.152 647.92 155.453 647.92 155.906C647.928 156.352 647.936 156.875 647.943 157.477L648.037 160.887C648.068 161.777 648.092 162.473 648.107 162.973C648.131 163.473 648.15 163.801 648.166 163.957L649.338 164.215L649.303 165H644.955L644.896 164.215L646.068 163.957C646.076 163.793 646.08 163.508 646.08 163.102C646.08 162.688 646.076 162.02 646.068 161.098L646.033 154.512H646.631L642.096 165.047H641.287L636.506 154.488H637.209L637.221 160.91C637.221 161.934 637.225 162.672 637.232 163.125C637.248 163.57 637.26 163.848 637.268 163.957L638.557 164.215L638.51 165H634.666L634.607 164.215L635.908 163.957C635.924 163.824 635.936 163.516 635.943 163.031C635.959 162.539 635.971 161.926 635.979 161.191L636.037 157.5C636.053 156.875 636.057 156.352 636.049 155.93C636.041 155.508 636.037 155.203 636.037 155.016L634.877 154.758L634.936 153.961Z" fill="#B4B4B4"/>
<mask id="mask0_274_491" style="mask-type:alpha" maskUnits="userSpaceOnUse" x="126" y="88" width="14" height="65">
<line x1="127.377" y1="93.9" x2="138.577" y2="102.3" stroke="#262626" stroke-linecap="round"/>
<line x1="127.377" y1="88.9" x2="138.577" y2="97.3" stroke="#262626" stroke-linecap="round"/>
<line x1="127.377" y1="98.9" x2="138.577" y2="107.3" stroke="#262626" stroke-linecap="round"/>
<line x1="127.377" y1="103.9" x2="138.577" y2="112.3" stroke="#262626" stroke-linecap="round"/>
<line x1="127.377" y1="108.9" x2="138.577" y2="117.3" stroke="#262626" stroke-linecap="round"/>
<line x1="127.377" y1="113.9" x2="138.577" y2="122.3" stroke="#262626" stroke-linecap="round"/>
<line x1="127.377" y1="118.9" x2="138.577" y2="127.3" stroke="#262626" stroke-linecap="round"/>
<line x1="127.377" y1="123.9" x2="138.577" y2="132.3" stroke="#262626" stroke-linecap="round"/>
<line x1="127.377" y1="128.9" x2="138.577" y2="137.3" stroke="#262626" stroke-linecap="round"/>
<line x1="127.377" y1="133.9" x2="138.577" y2="142.3" stroke="#262626" stroke-linecap="round"/>
<line x1="127.377" y1="138.9" x2="138.577" y2="147.3" stroke="#262626" stroke-linecap="round"/>
<line x1="127.377" y1="143.9" x2="138.577" y2="152.3" stroke="#262626" stroke-linecap="round"/>
</mask>
<g mask="url(#mask0_274_491)">
<rect x="127.177" y="89.5" width="11" height="47" rx="5.5" fill="#484848" stroke="#262626"/>
</g>
<mask id="mask1_274_491" style="mask-type:alpha" maskUnits="userSpaceOnUse" x="148" y="88" width="13" height="65">
<line x1="149.015" y1="93.9" x2="160.215" y2="102.3" stroke="#262626" stroke-linecap="round"/>
<line x1="149.015" y1="88.9" x2="160.215" y2="97.3" stroke="#262626" stroke-linecap="round"/>
<line x1="149.015" y1="98.9" x2="160.215" y2="107.3" stroke="#262626" stroke-linecap="round"/>
<line x1="149.015" y1="103.9" x2="160.215" y2="112.3" stroke="#262626" stroke-linecap="round"/>
<line x1="149.015" y1="108.9" x2="160.215" y2="117.3" stroke="#262626" stroke-linecap="round"/>
<line x1="149.015" y1="113.9" x2="160.215" y2="122.3" stroke="#262626" stroke-linecap="round"/>
<line x1="149.015" y1="118.9" x2="160.215" y2="127.3" stroke="#262626" stroke-linecap="round"/>
<line x1="149.015" y1="123.9" x2="160.215" y2="132.3" stroke="#262626" stroke-linecap="round"/>
<line x1="149.015" y1="128.9" x2="160.215" y2="137.3" stroke="#262626" stroke-linecap="round"/>
<line x1="149.015" y1="133.9" x2="160.215" y2="142.3" stroke="#262626" stroke-linecap="round"/>
<line x1="149.015" y1="138.9" x2="160.215" y2="147.3" stroke="#262626" stroke-linecap="round"/>
<line x1="149.015" y1="143.9" x2="160.215" y2="152.3" stroke="#262626" stroke-linecap="round"/>
</mask>
<g mask="url(#mask1_274_491)">
<rect x="148.815" y="89.5" width="11" height="47" rx="5.5" fill="#484848" stroke="#262626"/>
</g>
<rect x="169.954" y="89" width="12" height="48" rx="6" fill="#75E068"/>
<mask id="mask2_274_491" style="mask-type:alpha" maskUnits="userSpaceOnUse" x="191" y="88" width="13" height="65">
<line x1="192.292" y1="93.9" x2="203.492" y2="102.3" stroke="#262626" stroke-linecap="round"/>
<line x1="192.292" y1="88.9" x2="203.492" y2="97.3" stroke="#262626" stroke-linecap="round"/>
<line x1="192.292" y1="98.9" x2="203.492" y2="107.3" stroke="#262626" stroke-linecap="round"/>
<line x1="192.292" y1="103.9" x2="203.492" y2="112.3" stroke="#262626" stroke-linecap="round"/>
<line x1="192.292" y1="108.9" x2="203.492" y2="117.3" stroke="#262626" stroke-linecap="round"/>
<line x1="192.292" y1="113.9" x2="203.492" y2="122.3" stroke="#262626" stroke-linecap="round"/>
<line x1="192.292" y1="118.9" x2="203.492" y2="127.3" stroke="#262626" stroke-linecap="round"/>
<line x1="192.292" y1="123.9" x2="203.492" y2="132.3" stroke="#262626" stroke-linecap="round"/>
<line x1="192.292" y1="128.9" x2="203.492" y2="137.3" stroke="#262626" stroke-linecap="round"/>
<line x1="192.292" y1="133.9" x2="203.492" y2="142.3" stroke="#262626" stroke-linecap="round"/>
<line x1="192.292" y1="138.9" x2="203.492" y2="147.3" stroke="#262626" stroke-linecap="round"/>
<line x1="192.292" y1="143.9" x2="203.492" y2="152.3" stroke="#262626" stroke-linecap="round"/>
</mask>
<g mask="url(#mask2_274_491)">
<rect x="192.092" y="89.5" width="11" height="47" rx="5.5" fill="#484848" stroke="#262626"/>
</g>
<mask id="mask3_274_491" style="mask-type:alpha" maskUnits="userSpaceOnUse" x="213" y="88" width="13" height="65">
<line x1="213.93" y1="93.9" x2="225.13" y2="102.3" stroke="#262626" stroke-linecap="round"/>
<line x1="213.93" y1="88.9" x2="225.13" y2="97.3" stroke="#262626" stroke-linecap="round"/>
<line x1="213.93" y1="98.9" x2="225.13" y2="107.3" stroke="#262626" stroke-linecap="round"/>
<line x1="213.93" y1="103.9" x2="225.13" y2="112.3" stroke="#262626" stroke-linecap="round"/>
<line x1="213.93" y1="108.9" x2="225.13" y2="117.3" stroke="#262626" stroke-linecap="round"/>
<line x1="213.93" y1="113.9" x2="225.13" y2="122.3" stroke="#262626" stroke-linecap="round"/>
<line x1="213.93" y1="118.9" x2="225.13" y2="127.3" stroke="#262626" stroke-linecap="round"/>
<line x1="213.93" y1="123.9" x2="225.13" y2="132.3" stroke="#262626" stroke-linecap="round"/>
<line x1="213.93" y1="128.9" x2="225.13" y2="137.3" stroke="#262626" stroke-linecap="round"/>
<line x1="213.93" y1="133.9" x2="225.13" y2="142.3" stroke="#262626" stroke-linecap="round"/>
<line x1="213.93" y1="138.9" x2="225.13" y2="147.3" stroke="#262626" stroke-linecap="round"/>
<line x1="213.93" y1="143.9" x2="225.13" y2="152.3" stroke="#262626" stroke-linecap="round"/>
</mask>
<g mask="url(#mask3_274_491)">
<rect x="213.73" y="89.5" width="11" height="47" rx="5.5" fill="#484848" stroke="#262626"/>
</g>
<mask id="mask4_274_491" style="mask-type:alpha" maskUnits="userSpaceOnUse" x="235" y="88" width="13" height="65">
<line x1="235.569" y1="93.9" x2="246.769" y2="102.3" stroke="#262626" stroke-linecap="round"/>
<line x1="235.569" y1="88.9" x2="246.769" y2="97.3" stroke="#262626" stroke-linecap="round"/>
<line x1="235.569" y1="98.9" x2="246.769" y2="107.3" stroke="#262626" stroke-linecap="round"/>
<line x1="235.569" y1="103.9" x2="246.769" y2="112.3" stroke="#262626" stroke-linecap="round"/>
<line x1="235.569" y1="108.9" x2="246.769" y2="117.3" stroke="#262626" stroke-linecap="round"/>
<line x1="235.569" y1="113.9" x2="246.769" y2="122.3" stroke="#262626" stroke-linecap="round"/>
<line x1="235.569" y1="118.9" x2="246.769" y2="127.3" stroke="#262626" stroke-linecap="round"/>
<line x1="235.569" y1="123.9" x2="246.769" y2="132.3" stroke="#262626" stroke-linecap="round"/>
<line x1="235.569" y1="128.9" x2="246.769" y2="137.3" stroke="#262626" stroke-linecap="round"/>
<line x1="235.569" y1="133.9" x2="246.769" y2="142.3" stroke="#262626" stroke-linecap="round"/>
<line x1="235.569" y1="138.9" x2="246.769" y2="147.3" stroke="#262626" stroke-linecap="round"/>
<line x1="235.569" y1="143.9" x2="246.769" y2="152.3" stroke="#262626" stroke-linecap="round"/>
</mask>
<g mask="url(#mask4_274_491)">
<rect x="235.369" y="89.5" width="11" height="47" rx="5.5" fill="#484848" stroke="#262626"/>
</g>
<mask id="mask5_274_491" style="mask-type:alpha" maskUnits="userSpaceOnUse" x="256" y="88" width="13" height="65">
<line x1="257.207" y1="93.9" x2="268.407" y2="102.3" stroke="#262626" stroke-linecap="round"/>
<line x1="257.207" y1="88.9" x2="268.407" y2="97.3" stroke="#262626" stroke-linecap="round"/>
<line x1="257.207" y1="98.9" x2="268.407" y2="107.3" stroke="#262626" stroke-linecap="round"/>
<line x1="257.207" y1="103.9" x2="268.407" y2="112.3" stroke="#262626" stroke-linecap="round"/>
<line x1="257.207" y1="108.9" x2="268.407" y2="117.3" stroke="#262626" stroke-linecap="round"/>
<line x1="257.207" y1="113.9" x2="268.407" y2="122.3" stroke="#262626" stroke-linecap="round"/>
<line x1="257.207" y1="118.9" x2="268.407" y2="127.3" stroke="#262626" stroke-linecap="round"/>
<line x1="257.207" y1="123.9" x2="268.407" y2="132.3" stroke="#262626" stroke-linecap="round"/>
<line x1="257.207" y1="128.9" x2="268.407" y2="137.3" stroke="#262626" stroke-linecap="round"/>
<line x1="257.207" y1="133.9" x2="268.407" y2="142.3" stroke="#262626" stroke-linecap="round"/>
<line x1="257.207" y1="138.9" x2="268.407" y2="147.3" stroke="#262626" stroke-linecap="round"/>
<line x1="257.207" y1="143.9" x2="268.407" y2="152.3" stroke="#262626" stroke-linecap="round"/>
</mask>
<g mask="url(#mask5_274_491)">
<rect x="257.007" y="89.5" width="11" height="47" rx="5.5" fill="#484848" stroke="#262626"/>
</g>
<mask id="mask6_274_491" style="mask-type:alpha" maskUnits="userSpaceOnUse" x="278" y="88" width="13" height="65">
<line x1="278.846" y1="93.9" x2="290.046" y2="102.3" stroke="#262626" stroke-linecap="round"/>
<line x1="278.846" y1="88.9" x2="290.046" y2="97.3" stroke="#262626" stroke-linecap="round"/>
<line x1="278.846" y1="98.9" x2="290.046" y2="107.3" stroke="#262626" stroke-linecap="round"/>
<line x1="278.846" y1="103.9" x2="290.046" y2="112.3" stroke="#262626" stroke-linecap="round"/>
<line x1="278.846" y1="108.9" x2="290.046" y2="117.3" stroke="#262626" stroke-linecap="round"/>
<line x1="278.846" y1="113.9" x2="290.046" y2="122.3" stroke="#262626" stroke-linecap="round"/>
<line x1="278.846" y1="118.9" x2="290.046" y2="127.3" stroke="#262626" stroke-linecap="round"/>
<line x1="278.846" y1="123.9" x2="290.046" y2="132.3" stroke="#262626" stroke-linecap="round"/>
<line x1="278.846" y1="128.9" x2="290.046" y2="137.3" stroke="#262626" stroke-linecap="round"/>
<line x1="278.846" y1="133.9" x2="290.046" y2="142.3" stroke="#262626" stroke-linecap="round"/>
<line x1="278.846" y1="138.9" x2="290.046" y2="147.3" stroke="#262626" stroke-linecap="round"/>
<line x1="278.846" y1="143.9" x2="290.046" y2="152.3" stroke="#262626" stroke-linecap="round"/>
</mask>
<g mask="url(#mask6_274_491)">
<rect x="278.646" y="89.5" width="11" height="47" rx="5.5" fill="#484848" stroke="#262626"/>
</g>
<mask id="mask7_274_491" style="mask-type:alpha" maskUnits="userSpaceOnUse" x="299" y="88" width="14" height="65">
<line x1="300.485" y1="93.9" x2="311.685" y2="102.3" stroke="#262626" stroke-linecap="round"/>
<line x1="300.485" y1="88.9" x2="311.685" y2="97.3" stroke="#262626" stroke-linecap="round"/>
<line x1="300.485" y1="98.9" x2="311.685" y2="107.3" stroke="#262626" stroke-linecap="round"/>
<line x1="300.485" y1="103.9" x2="311.685" y2="112.3" stroke="#262626" stroke-linecap="round"/>
<line x1="300.485" y1="108.9" x2="311.685" y2="117.3" stroke="#262626" stroke-linecap="round"/>
<line x1="300.485" y1="113.9" x2="311.685" y2="122.3" stroke="#262626" stroke-linecap="round"/>
<line x1="300.485" y1="118.9" x2="311.685" y2="127.3" stroke="#262626" stroke-linecap="round"/>
<line x1="300.485" y1="123.9" x2="311.685" y2="132.3" stroke="#262626" stroke-linecap="round"/>
<line x1="300.485" y1="128.9" x2="311.685" y2="137.3" stroke="#262626" stroke-linecap="round"/>
<line x1="300.485" y1="133.9" x2="311.685" y2="142.3" stroke="#262626" stroke-linecap="round"/>
<line x1="300.485" y1="138.9" x2="311.685" y2="147.3" stroke="#262626" stroke-linecap="round"/>
<line x1="300.485" y1="143.9" x2="311.685" y2="152.3" stroke="#262626" stroke-linecap="round"/>
</mask>
<g mask="url(#mask7_274_491)">
<rect x="300.285" y="89.5" width="11" height="47" rx="5.5" fill="#484848" stroke="#262626"/>
</g>
<rect x="321.423" y="89" width="12" height="48" rx="6" fill="#77DF6E"/>
<rect x="343.062" y="89" width="12" height="48" rx="6" fill="#75E068"/>
<rect x="364.7" y="89" width="12" height="48" rx="6" fill="#75E068"/>
<rect x="386.338" y="89" width="12" height="48" rx="6" fill="#FDA7AD"/>
<mask id="mask8_274_491" style="mask-type:alpha" maskUnits="userSpaceOnUse" x="408" y="88" width="13" height="65">
<line x1="408.677" y1="93.9" x2="419.877" y2="102.3" stroke="#262626" stroke-linecap="round"/>
<line x1="408.677" y1="88.9" x2="419.877" y2="97.3" stroke="#262626" stroke-linecap="round"/>
<line x1="408.677" y1="98.9" x2="419.877" y2="107.3" stroke="#262626" stroke-linecap="round"/>
<line x1="408.677" y1="103.9" x2="419.877" y2="112.3" stroke="#262626" stroke-linecap="round"/>
<line x1="408.677" y1="108.9" x2="419.877" y2="117.3" stroke="#262626" stroke-linecap="round"/>
<line x1="408.677" y1="113.9" x2="419.877" y2="122.3" stroke="#262626" stroke-linecap="round"/>
<line x1="408.677" y1="118.9" x2="419.877" y2="127.3" stroke="#262626" stroke-linecap="round"/>
<line x1="408.677" y1="123.9" x2="419.877" y2="132.3" stroke="#262626" stroke-linecap="round"/>
<line x1="408.677" y1="128.9" x2="419.877" y2="137.3" stroke="#262626" stroke-linecap="round"/>
<line x1="408.677" y1="133.9" x2="419.877" y2="142.3" stroke="#262626" stroke-linecap="round"/>
<line x1="408.677" y1="138.9" x2="419.877" y2="147.3" stroke="#262626" stroke-linecap="round"/>
<line x1="408.677" y1="143.9" x2="419.877" y2="152.3" stroke="#262626" stroke-linecap="round"/>
</mask>
<g mask="url(#mask8_274_491)">
<rect x="408.477" y="89.5" width="11" height="47" rx="5.5" fill="#484848" stroke="#262626"/>
</g>
<mask id="mask9_274_491" style="mask-type:alpha" maskUnits="userSpaceOnUse" x="429" y="88" width="14" height="65">
<line x1="430.315" y1="93.9" x2="441.515" y2="102.3" stroke="#262626" stroke-linecap="round"/>
<line x1="430.315" y1="88.9" x2="441.515" y2="97.3" stroke="#262626" stroke-linecap="round"/>
<line x1="430.315" y1="98.9" x2="441.515" y2="107.3" stroke="#262626" stroke-linecap="round"/>
<line x1="430.315" y1="103.9" x2="441.515" y2="112.3" stroke="#262626" stroke-linecap="round"/>
<line x1="430.315" y1="108.9" x2="441.515" y2="117.3" stroke="#262626" stroke-linecap="round"/>
<line x1="430.315" y1="113.9" x2="441.515" y2="122.3" stroke="#262626" stroke-linecap="round"/>
<line x1="430.315" y1="118.9" x2="441.515" y2="127.3" stroke="#262626" stroke-linecap="round"/>
<line x1="430.315" y1="123.9" x2="441.515" y2="132.3" stroke="#262626" stroke-linecap="round"/>
<line x1="430.315" y1="128.9" x2="441.515" y2="137.3" stroke="#262626" stroke-linecap="round"/>
<line x1="430.315" y1="133.9" x2="441.515" y2="142.3" stroke="#262626" stroke-linecap="round"/>
<line x1="430.315" y1="138.9" x2="441.515" y2="147.3" stroke="#262626" stroke-linecap="round"/>
<line x1="430.315" y1="143.9" x2="441.515" y2="152.3" stroke="#262626" stroke-linecap="round"/>
</mask>
<g mask="url(#mask9_274_491)">
<rect x="430.115" y="89.5" width="11" height="47" rx="5.5" fill="#484848" stroke="#262626"/>
</g>
<mask id="mask10_274_491" style="mask-type:alpha" maskUnits="userSpaceOnUse" x="451" y="88" width="13" height="65">
<line x1="451.954" y1="93.9" x2="463.154" y2="102.3" stroke="#262626" stroke-linecap="round"/>
<line x1="451.954" y1="88.9" x2="463.154" y2="97.3" stroke="#262626" stroke-linecap="round"/>
<line x1="451.954" y1="98.9" x2="463.154" y2="107.3" stroke="#262626" stroke-linecap="round"/>
<line x1="451.954" y1="103.9" x2="463.154" y2="112.3" stroke="#262626" stroke-linecap="round"/>
<line x1="451.954" y1="108.9" x2="463.154" y2="117.3" stroke="#262626" stroke-linecap="round"/>
<line x1="451.954" y1="113.9" x2="463.154" y2="122.3" stroke="#262626" stroke-linecap="round"/>
<line x1="451.954" y1="118.9" x2="463.154" y2="127.3" stroke="#262626" stroke-linecap="round"/>
<line x1="451.954" y1="123.9" x2="463.154" y2="132.3" stroke="#262626" stroke-linecap="round"/>
<line x1="451.954" y1="128.9" x2="463.154" y2="137.3" stroke="#262626" stroke-linecap="round"/>
<line x1="451.954" y1="133.9" x2="463.154" y2="142.3" stroke="#262626" stroke-linecap="round"/>
<line x1="451.954" y1="138.9" x2="463.154" y2="147.3" stroke="#262626" stroke-linecap="round"/>
<line x1="451.954" y1="143.9" x2="463.154" y2="152.3" stroke="#262626" stroke-linecap="round"/>
</mask>
<g mask="url(#mask10_274_491)">
<rect x="451.754" y="89.5" width="11" height="47" rx="5.5" fill="#484848" stroke="#262626"/>
</g>
<mask id="mask11_274_491" style="mask-type:alpha" maskUnits="userSpaceOnUse" x="473" y="88" width="13" height="65">
<line x1="473.592" y1="93.9" x2="484.792" y2="102.3" stroke="#262626" stroke-linecap="round"/>
<line x1="473.592" y1="88.9" x2="484.792" y2="97.3" stroke="#262626" stroke-linecap="round"/>
<line x1="473.592" y1="98.9" x2="484.792" y2="107.3" stroke="#262626" stroke-linecap="round"/>
<line x1="473.592" y1="103.9" x2="484.792" y2="112.3" stroke="#262626" stroke-linecap="round"/>
<line x1="473.592" y1="108.9" x2="484.792" y2="117.3" stroke="#262626" stroke-linecap="round"/>
<line x1="473.592" y1="113.9" x2="484.792" y2="122.3" stroke="#262626" stroke-linecap="round"/>
<line x1="473.592" y1="118.9" x2="484.792" y2="127.3" stroke="#262626" stroke-linecap="round"/>
<line x1="473.592" y1="123.9" x2="484.792" y2="132.3" stroke="#262626" stroke-linecap="round"/>
<line x1="473.592" y1="128.9" x2="484.792" y2="137.3" stroke="#262626" stroke-linecap="round"/>
<line x1="473.592" y1="133.9" x2="484.792" y2="142.3" stroke="#262626" stroke-linecap="round"/>
<line x1="473.592" y1="138.9" x2="484.792" y2="147.3" stroke="#262626" stroke-linecap="round"/>
<line x1="473.592" y1="143.9" x2="484.792" y2="152.3" stroke="#262626" stroke-linecap="round"/>
</mask>
<g mask="url(#mask11_274_491)">
<rect x="473.392" y="89.5" width="11" height="47" rx="5.5" fill="#484848" stroke="#262626"/>
</g>
<rect x="494.531" y="89" width="12" height="48" rx="6" fill="#FDA7AD"/>
<rect x="516.169" y="89" width="12" height="48" rx="6" fill="#FDA7AD"/>
<rect x="537.808" y="89" width="12" height="48" rx="6" fill="#292B2B"/>
<rect x="559.446" y="89" width="12" height="48" rx="6" fill="#292B2B"/>
<rect x="581.084" y="89" width="12" height="48" rx="6" fill="#292B2B"/>
<rect x="602.723" y="89" width="12" height="48" rx="6" fill="#292B2B"/>
<rect x="624.361" y="89" width="12" height="48" rx="6" fill="#292B2B"/>
<circle cx="329" cy="73" r="7.5" fill="#77DF6E" stroke="#0F0F0F"/>
<path d="M331.667 71L328 74.6667L326.333 73" stroke="#0F0F0F" stroke-width="2" stroke-linecap="round" stroke-linejoin="round"/>
<circle cx="325" cy="73" r="7.5" fill="#77DF6E" stroke="#0F0F0F"/>
<path d="M327.667 71L324 74.6667L322.333 73" stroke="#0F0F0F" stroke-width="2" stroke-linecap="round" stroke-linejoin="round"/>
<circle cx="371" cy="73" r="7.5" fill="#77DF6E" stroke="#0F0F0F"/>
<path d="M373.667 71L370 74.6667L368.333 73" stroke="#0F0F0F" stroke-width="2" stroke-linecap="round" stroke-linejoin="round"/>
<rect x="114.5" y="226.5" width="539" height="63" rx="7.5" fill="#0F0F0F" stroke="#343333"/>
<path d="M131.886 264H130.409L134.682 252.364H136.136L140.409 264H138.932L135.455 254.205H135.364L131.886 264ZM132.432 259.455H138.386V260.705H132.432V259.455ZM145.335 264.182C144.608 264.182 143.966 263.998 143.409 263.631C142.852 263.259 142.417 262.737 142.102 262.062C141.788 261.384 141.631 260.583 141.631 259.659C141.631 258.742 141.788 257.947 142.102 257.273C142.417 256.598 142.854 256.078 143.415 255.71C143.975 255.343 144.623 255.159 145.358 255.159C145.926 255.159 146.375 255.254 146.705 255.443C147.038 255.629 147.292 255.841 147.466 256.08C147.644 256.314 147.782 256.508 147.881 256.659H147.994V252.364H149.335V264H148.04V262.659H147.881C147.782 262.818 147.642 263.019 147.46 263.261C147.278 263.5 147.019 263.714 146.682 263.903C146.345 264.089 145.896 264.182 145.335 264.182ZM145.517 262.977C146.055 262.977 146.509 262.837 146.881 262.557C147.252 262.273 147.534 261.881 147.727 261.381C147.92 260.877 148.017 260.295 148.017 259.636C148.017 258.985 147.922 258.415 147.733 257.926C147.544 257.434 147.263 257.051 146.892 256.778C146.521 256.502 146.063 256.364 145.517 256.364C144.949 256.364 144.475 256.509 144.097 256.801C143.722 257.089 143.439 257.481 143.25 257.977C143.064 258.47 142.972 259.023 142.972 259.636C142.972 260.258 143.066 260.822 143.256 261.33C143.449 261.833 143.733 262.235 144.108 262.534C144.487 262.83 144.956 262.977 145.517 262.977ZM155.273 264.182C154.545 264.182 153.903 263.998 153.347 263.631C152.79 263.259 152.354 262.737 152.04 262.062C151.725 261.384 151.568 260.583 151.568 259.659C151.568 258.742 151.725 257.947 152.04 257.273C152.354 256.598 152.792 256.078 153.352 255.71C153.913 255.343 154.561 255.159 155.295 255.159C155.864 255.159 156.313 255.254 156.642 255.443C156.975 255.629 157.229 255.841 157.403 256.08C157.581 256.314 157.72 256.508 157.818 256.659H157.932V252.364H159.273V264H157.977V262.659H157.818C157.72 262.818 157.58 263.019 157.398 263.261C157.216 263.5 156.956 263.714 156.619 263.903C156.282 264.089 155.833 264.182 155.273 264.182ZM155.455 262.977C155.992 262.977 156.447 262.837 156.818 262.557C157.189 262.273 157.472 261.881 157.665 261.381C157.858 260.877 157.955 260.295 157.955 259.636C157.955 258.985 157.86 258.415 157.67 257.926C157.481 257.434 157.201 257.051 156.83 256.778C156.458 256.502 156 256.364 155.455 256.364C154.886 256.364 154.413 256.509 154.034 256.801C153.659 257.089 153.377 257.481 153.188 257.977C153.002 258.47 152.909 259.023 152.909 259.636C152.909 260.258 153.004 260.822 153.193 261.33C153.386 261.833 153.67 262.235 154.045 262.534C154.424 262.83 154.894 262.977 155.455 262.977ZM167.756 258.75V264H166.415V255.273H167.71V256.636H167.824C168.028 256.193 168.339 255.837 168.756 255.568C169.172 255.295 169.71 255.159 170.369 255.159C170.96 255.159 171.477 255.28 171.92 255.523C172.364 255.761 172.708 256.125 172.955 256.614C173.201 257.098 173.324 257.712 173.324 258.455V264H171.983V258.545C171.983 257.86 171.805 257.326 171.449 256.943C171.093 256.557 170.604 256.364 169.983 256.364C169.555 256.364 169.172 256.456 168.835 256.642C168.502 256.828 168.239 257.098 168.045 257.455C167.852 257.811 167.756 258.242 167.756 258.75ZM179.433 264.182C178.592 264.182 177.867 263.996 177.257 263.625C176.651 263.25 176.183 262.727 175.854 262.057C175.528 261.383 175.365 260.598 175.365 259.705C175.365 258.811 175.528 258.023 175.854 257.341C176.183 256.655 176.642 256.121 177.229 255.739C177.82 255.352 178.509 255.159 179.297 255.159C179.751 255.159 180.2 255.235 180.643 255.386C181.087 255.538 181.49 255.784 181.854 256.125C182.217 256.462 182.507 256.909 182.723 257.466C182.939 258.023 183.047 258.708 183.047 259.523V260.091H176.32V258.932H181.683C181.683 258.439 181.585 258 181.388 257.614C181.195 257.227 180.918 256.922 180.558 256.699C180.202 256.475 179.782 256.364 179.297 256.364C178.763 256.364 178.301 256.496 177.911 256.761C177.524 257.023 177.227 257.364 177.018 257.784C176.81 258.205 176.706 258.655 176.706 259.136V259.909C176.706 260.568 176.82 261.127 177.047 261.585C177.278 262.04 177.598 262.386 178.007 262.625C178.416 262.86 178.892 262.977 179.433 262.977C179.786 262.977 180.104 262.928 180.388 262.83C180.676 262.727 180.924 262.576 181.132 262.375C181.34 262.17 181.501 261.917 181.615 261.614L182.911 261.977C182.774 262.417 182.545 262.803 182.223 263.136C181.901 263.466 181.503 263.723 181.03 263.909C180.556 264.091 180.024 264.182 179.433 264.182ZM187.064 264L184.405 255.273H185.814L187.7 261.955H187.791L189.655 255.273H191.087L192.928 261.932H193.018L194.905 255.273H196.314L193.655 264H192.337L190.428 257.295H190.291L188.382 264H187.064ZM206.382 255.273V256.409H201.859V255.273H206.382ZM203.178 253.182H204.518V261.5C204.518 261.879 204.573 262.163 204.683 262.352C204.797 262.538 204.941 262.663 205.115 262.727C205.293 262.788 205.481 262.818 205.678 262.818C205.825 262.818 205.946 262.811 206.041 262.795C206.136 262.777 206.212 262.761 206.268 262.75L206.541 263.955C206.45 263.989 206.323 264.023 206.161 264.057C205.998 264.095 205.791 264.114 205.541 264.114C205.162 264.114 204.791 264.032 204.428 263.869C204.068 263.706 203.768 263.458 203.53 263.125C203.295 262.792 203.178 262.371 203.178 261.864V253.182ZM210.967 264.205C210.414 264.205 209.912 264.1 209.462 263.892C209.011 263.68 208.653 263.375 208.388 262.977C208.123 262.576 207.99 262.091 207.99 261.523C207.99 261.023 208.089 260.617 208.286 260.307C208.482 259.992 208.746 259.746 209.075 259.568C209.405 259.39 209.768 259.258 210.166 259.17C210.568 259.08 210.971 259.008 211.376 258.955C211.907 258.886 212.337 258.835 212.666 258.801C213 258.763 213.242 258.701 213.393 258.614C213.549 258.527 213.626 258.375 213.626 258.159V258.114C213.626 257.553 213.473 257.117 213.166 256.807C212.863 256.496 212.403 256.341 211.786 256.341C211.145 256.341 210.643 256.481 210.28 256.761C209.916 257.042 209.661 257.341 209.513 257.659L208.24 257.205C208.467 256.674 208.77 256.261 209.149 255.966C209.532 255.667 209.948 255.458 210.399 255.341C210.854 255.22 211.301 255.159 211.74 255.159C212.02 255.159 212.342 255.193 212.706 255.261C213.073 255.326 213.428 255.46 213.768 255.665C214.113 255.869 214.399 256.178 214.626 256.591C214.854 257.004 214.967 257.557 214.967 258.25V264H213.626V262.818H213.558C213.467 263.008 213.316 263.21 213.104 263.426C212.892 263.642 212.609 263.826 212.257 263.977C211.905 264.129 211.475 264.205 210.967 264.205ZM211.172 263C211.702 263 212.149 262.896 212.513 262.688C212.88 262.479 213.157 262.21 213.342 261.881C213.532 261.551 213.626 261.205 213.626 260.841V259.614C213.57 259.682 213.445 259.744 213.251 259.801C213.062 259.854 212.842 259.902 212.592 259.943C212.346 259.981 212.106 260.015 211.871 260.045C211.64 260.072 211.452 260.095 211.308 260.114C210.96 260.159 210.634 260.233 210.331 260.335C210.032 260.434 209.789 260.583 209.604 260.784C209.422 260.981 209.331 261.25 209.331 261.591C209.331 262.057 209.503 262.409 209.848 262.648C210.196 262.883 210.638 263 211.172 263ZM223.597 257.227L222.392 257.568C222.316 257.367 222.205 257.172 222.057 256.983C221.913 256.79 221.716 256.631 221.466 256.506C221.216 256.381 220.896 256.318 220.506 256.318C219.972 256.318 219.527 256.441 219.17 256.688C218.818 256.93 218.642 257.239 218.642 257.614C218.642 257.947 218.763 258.21 219.006 258.403C219.248 258.597 219.627 258.758 220.142 258.886L221.438 259.205C222.218 259.394 222.799 259.684 223.182 260.074C223.564 260.46 223.756 260.958 223.756 261.568C223.756 262.068 223.612 262.515 223.324 262.909C223.04 263.303 222.642 263.614 222.131 263.841C221.619 264.068 221.025 264.182 220.347 264.182C219.456 264.182 218.72 263.989 218.136 263.602C217.553 263.216 217.184 262.652 217.028 261.909L218.301 261.591C218.422 262.061 218.652 262.413 218.989 262.648C219.33 262.883 219.775 263 220.324 263C220.949 263 221.445 262.867 221.812 262.602C222.184 262.333 222.369 262.011 222.369 261.636C222.369 261.333 222.263 261.08 222.051 260.875C221.839 260.667 221.513 260.511 221.074 260.409L219.619 260.068C218.82 259.879 218.233 259.585 217.858 259.188C217.487 258.786 217.301 258.284 217.301 257.682C217.301 257.189 217.439 256.754 217.716 256.375C217.996 255.996 218.377 255.699 218.858 255.483C219.343 255.267 219.892 255.159 220.506 255.159C221.369 255.159 222.047 255.348 222.54 255.727C223.036 256.106 223.388 256.606 223.597 257.227ZM227.024 260.818L227.001 259.159H227.274L231.092 255.273H232.751L228.683 259.386H228.57L227.024 260.818ZM225.774 264V252.364H227.115V264H225.774ZM231.32 264L227.911 259.682L228.865 258.75L233.024 264H231.32Z" fill="#B4B4B4"/>
<path d="M612 242.25H628C632.28 242.25 635.75 245.72 635.75 250V266C635.75 270.28 632.28 273.75 628 273.75H612C607.72 273.75 604.25 270.28 604.25 266V250C604.25 245.72 607.72 242.25 612 242.25Z" fill="#2B2B2B"/>
<path d="M612 242.25H628C632.28 242.25 635.75 245.72 635.75 250V266C635.75 270.28 632.28 273.75 628 273.75H612C607.72 273.75 604.25 270.28 604.25 266V250C604.25 245.72 607.72 242.25 612 242.25Z" stroke="#4B4B4B" stroke-width="0.5"/>
<path d="M618.727 265.5V250.5H621.273V265.5H618.727ZM612.5 259.273V256.727H627.5V259.273H612.5Z" fill="#DCDCDC"/>
<rect x="114.5" y="339.5" width="539" height="151" rx="7.5" fill="#181818" stroke="#232222"/>
<path d="M140.773 370.5H139.364C139.28 370.095 139.134 369.739 138.926 369.432C138.722 369.125 138.472 368.867 138.176 368.659C137.884 368.447 137.561 368.288 137.205 368.182C136.848 368.076 136.477 368.023 136.091 368.023C135.386 368.023 134.748 368.201 134.176 368.557C133.608 368.913 133.155 369.438 132.818 370.131C132.485 370.824 132.318 371.674 132.318 372.682C132.318 373.689 132.485 374.54 132.818 375.233C133.155 375.926 133.608 376.451 134.176 376.807C134.748 377.163 135.386 377.341 136.091 377.341C136.477 377.341 136.848 377.288 137.205 377.182C137.561 377.076 137.884 376.919 138.176 376.71C138.472 376.498 138.722 376.239 138.926 375.932C139.134 375.621 139.28 375.265 139.364 374.864H140.773C140.667 375.458 140.473 375.991 140.193 376.46C139.913 376.93 139.564 377.33 139.148 377.659C138.731 377.985 138.263 378.233 137.744 378.403C137.229 378.574 136.678 378.659 136.091 378.659C135.098 378.659 134.216 378.417 133.443 377.932C132.67 377.447 132.063 376.758 131.619 375.864C131.176 374.97 130.955 373.909 130.955 372.682C130.955 371.455 131.176 370.394 131.619 369.5C132.063 368.606 132.67 367.917 133.443 367.432C134.216 366.947 135.098 366.705 136.091 366.705C136.678 366.705 137.229 366.79 137.744 366.96C138.263 367.131 138.731 367.381 139.148 367.71C139.564 368.036 139.913 368.434 140.193 368.903C140.473 369.369 140.667 369.902 140.773 370.5ZM146.413 378.682C145.625 378.682 144.934 378.494 144.339 378.119C143.749 377.744 143.286 377.22 142.953 376.545C142.624 375.871 142.459 375.083 142.459 374.182C142.459 373.273 142.624 372.479 142.953 371.801C143.286 371.123 143.749 370.597 144.339 370.222C144.934 369.847 145.625 369.659 146.413 369.659C147.201 369.659 147.891 369.847 148.482 370.222C149.076 370.597 149.538 371.123 149.868 371.801C150.201 372.479 150.368 373.273 150.368 374.182C150.368 375.083 150.201 375.871 149.868 376.545C149.538 377.22 149.076 377.744 148.482 378.119C147.891 378.494 147.201 378.682 146.413 378.682ZM146.413 377.477C147.012 377.477 147.504 377.324 147.891 377.017C148.277 376.71 148.563 376.307 148.749 375.807C148.934 375.307 149.027 374.765 149.027 374.182C149.027 373.598 148.934 373.055 148.749 372.551C148.563 372.047 148.277 371.64 147.891 371.33C147.504 371.019 147.012 370.864 146.413 370.864C145.815 370.864 145.322 371.019 144.936 371.33C144.55 371.64 144.264 372.047 144.078 372.551C143.893 373.055 143.8 373.598 143.8 374.182C143.8 374.765 143.893 375.307 144.078 375.807C144.264 376.307 144.55 376.71 144.936 377.017C145.322 377.324 145.815 377.477 146.413 377.477ZM152.415 378.5V369.773H153.71V371.136H153.824C154.006 370.67 154.299 370.309 154.705 370.051C155.11 369.79 155.597 369.659 156.165 369.659C156.741 369.659 157.22 369.79 157.602 370.051C157.989 370.309 158.29 370.67 158.506 371.136H158.597C158.82 370.686 159.155 370.328 159.602 370.062C160.049 369.794 160.585 369.659 161.21 369.659C161.991 369.659 162.629 369.903 163.125 370.392C163.621 370.877 163.869 371.633 163.869 372.659V378.5H162.528V372.659C162.528 372.015 162.352 371.555 162 371.278C161.648 371.002 161.233 370.864 160.756 370.864C160.142 370.864 159.667 371.049 159.33 371.42C158.992 371.788 158.824 372.254 158.824 372.818V378.5H157.46V372.523C157.46 372.027 157.299 371.627 156.977 371.324C156.655 371.017 156.241 370.864 155.733 370.864C155.384 370.864 155.059 370.956 154.756 371.142C154.456 371.328 154.214 371.585 154.028 371.915C153.847 372.241 153.756 372.617 153.756 373.045V378.5H152.415ZM166.321 381.773V369.773H167.616V371.159H167.776C167.874 371.008 168.01 370.814 168.185 370.58C168.363 370.341 168.616 370.129 168.946 369.943C169.279 369.754 169.73 369.659 170.298 369.659C171.033 369.659 171.681 369.843 172.241 370.21C172.802 370.578 173.24 371.098 173.554 371.773C173.868 372.447 174.026 373.242 174.026 374.159C174.026 375.083 173.868 375.884 173.554 376.562C173.24 377.237 172.804 377.759 172.247 378.131C171.69 378.498 171.048 378.682 170.321 378.682C169.76 378.682 169.312 378.589 168.974 378.403C168.637 378.214 168.378 378 168.196 377.761C168.014 377.519 167.874 377.318 167.776 377.159H167.662V381.773H166.321ZM167.639 374.136C167.639 374.795 167.736 375.377 167.929 375.881C168.122 376.381 168.404 376.773 168.776 377.057C169.147 377.337 169.601 377.477 170.139 377.477C170.7 377.477 171.168 377.33 171.543 377.034C171.921 376.735 172.205 376.333 172.395 375.83C172.588 375.322 172.685 374.758 172.685 374.136C172.685 373.523 172.59 372.97 172.401 372.477C172.215 371.981 171.933 371.589 171.554 371.301C171.179 371.009 170.707 370.864 170.139 370.864C169.594 370.864 169.135 371.002 168.764 371.278C168.393 371.551 168.113 371.934 167.923 372.426C167.734 372.915 167.639 373.485 167.639 374.136ZM177.412 366.864V378.5H176.071V366.864H177.412ZM183.527 378.682C182.686 378.682 181.961 378.496 181.351 378.125C180.745 377.75 180.277 377.227 179.947 376.557C179.622 375.883 179.459 375.098 179.459 374.205C179.459 373.311 179.622 372.523 179.947 371.841C180.277 371.155 180.735 370.621 181.322 370.239C181.913 369.852 182.603 369.659 183.391 369.659C183.845 369.659 184.294 369.735 184.737 369.886C185.18 370.038 185.584 370.284 185.947 370.625C186.311 370.962 186.601 371.409 186.817 371.966C187.033 372.523 187.141 373.208 187.141 374.023V374.591H180.413V373.432H185.777C185.777 372.939 185.679 372.5 185.482 372.114C185.288 371.727 185.012 371.422 184.652 371.199C184.296 370.975 183.875 370.864 183.391 370.864C182.857 370.864 182.394 370.996 182.004 371.261C181.618 371.523 181.321 371.864 181.112 372.284C180.904 372.705 180.8 373.155 180.8 373.636V374.409C180.8 375.068 180.913 375.627 181.141 376.085C181.372 376.54 181.692 376.886 182.101 377.125C182.51 377.36 182.985 377.477 183.527 377.477C183.879 377.477 184.197 377.428 184.482 377.33C184.769 377.227 185.018 377.076 185.226 376.875C185.434 376.67 185.595 376.417 185.709 376.114L187.004 376.477C186.868 376.917 186.639 377.303 186.317 377.636C185.995 377.966 185.597 378.223 185.124 378.409C184.65 378.591 184.118 378.682 183.527 378.682ZM192.976 369.773V370.909H188.453V369.773H192.976ZM189.771 367.682H191.112V376C191.112 376.379 191.167 376.663 191.277 376.852C191.391 377.038 191.535 377.163 191.709 377.227C191.887 377.288 192.074 377.318 192.271 377.318C192.419 377.318 192.54 377.311 192.635 377.295C192.73 377.277 192.805 377.261 192.862 377.25L193.135 378.455C193.044 378.489 192.917 378.523 192.754 378.557C192.591 378.595 192.385 378.614 192.135 378.614C191.756 378.614 191.385 378.532 191.021 378.369C190.661 378.206 190.362 377.958 190.124 377.625C189.889 377.292 189.771 376.871 189.771 376.364V367.682ZM198.558 378.682C197.717 378.682 196.992 378.496 196.382 378.125C195.776 377.75 195.308 377.227 194.979 376.557C194.653 375.883 194.49 375.098 194.49 374.205C194.49 373.311 194.653 372.523 194.979 371.841C195.308 371.155 195.767 370.621 196.354 370.239C196.945 369.852 197.634 369.659 198.422 369.659C198.876 369.659 199.325 369.735 199.768 369.886C200.212 370.038 200.615 370.284 200.979 370.625C201.342 370.962 201.632 371.409 201.848 371.966C202.064 372.523 202.172 373.208 202.172 374.023V374.591H195.445V373.432H200.808C200.808 372.939 200.71 372.5 200.513 372.114C200.32 371.727 200.043 371.422 199.683 371.199C199.327 370.975 198.907 370.864 198.422 370.864C197.888 370.864 197.426 370.996 197.036 371.261C196.649 371.523 196.352 371.864 196.143 372.284C195.935 372.705 195.831 373.155 195.831 373.636V374.409C195.831 375.068 195.945 375.627 196.172 376.085C196.403 376.54 196.723 376.886 197.132 377.125C197.541 377.36 198.017 377.477 198.558 377.477C198.911 377.477 199.229 377.428 199.513 377.33C199.801 377.227 200.049 377.076 200.257 376.875C200.465 376.67 200.626 376.417 200.74 376.114L202.036 376.477C201.899 376.917 201.67 377.303 201.348 377.636C201.026 377.966 200.628 378.223 200.155 378.409C199.681 378.591 199.149 378.682 198.558 378.682ZM208.712 381.773V369.773H210.007V371.159H210.166C210.265 371.008 210.401 370.814 210.575 370.58C210.753 370.341 211.007 370.129 211.337 369.943C211.67 369.754 212.121 369.659 212.689 369.659C213.424 369.659 214.071 369.843 214.632 370.21C215.193 370.578 215.63 371.098 215.945 371.773C216.259 372.447 216.416 373.242 216.416 374.159C216.416 375.083 216.259 375.884 215.945 376.562C215.63 377.237 215.195 377.759 214.638 378.131C214.081 378.498 213.439 378.682 212.712 378.682C212.151 378.682 211.702 378.589 211.365 378.403C211.028 378.214 210.768 378 210.587 377.761C210.405 377.519 210.265 377.318 210.166 377.159H210.053V381.773H208.712ZM210.03 374.136C210.03 374.795 210.126 375.377 210.32 375.881C210.513 376.381 210.795 376.773 211.166 377.057C211.537 377.337 211.992 377.477 212.53 377.477C213.09 377.477 213.558 377.33 213.933 377.034C214.312 376.735 214.596 376.333 214.786 375.83C214.979 375.322 215.075 374.758 215.075 374.136C215.075 373.523 214.981 372.97 214.791 372.477C214.606 371.981 214.323 371.589 213.945 371.301C213.57 371.009 213.098 370.864 212.53 370.864C211.984 370.864 211.526 371.002 211.155 371.278C210.784 371.551 210.503 371.934 210.314 372.426C210.125 372.915 210.03 373.485 210.03 374.136ZM218.462 378.5V369.773H219.757V371.091H219.848C220.007 370.659 220.295 370.309 220.712 370.04C221.128 369.771 221.598 369.636 222.121 369.636C222.219 369.636 222.342 369.638 222.49 369.642C222.638 369.646 222.75 369.652 222.825 369.659V371.023C222.78 371.011 222.676 370.994 222.513 370.972C222.354 370.945 222.185 370.932 222.007 370.932C221.583 370.932 221.204 371.021 220.871 371.199C220.541 371.373 220.28 371.616 220.087 371.926C219.897 372.233 219.803 372.583 219.803 372.977V378.5H218.462ZM227.695 378.682C226.907 378.682 226.215 378.494 225.621 378.119C225.03 377.744 224.568 377.22 224.234 376.545C223.905 375.871 223.74 375.083 223.74 374.182C223.74 373.273 223.905 372.479 224.234 371.801C224.568 371.123 225.03 370.597 225.621 370.222C226.215 369.847 226.907 369.659 227.695 369.659C228.482 369.659 229.172 369.847 229.763 370.222C230.357 370.597 230.82 371.123 231.149 371.801C231.482 372.479 231.649 373.273 231.649 374.182C231.649 375.083 231.482 375.871 231.149 376.545C230.82 377.22 230.357 377.744 229.763 378.119C229.172 378.494 228.482 378.682 227.695 378.682ZM227.695 377.477C228.293 377.477 228.786 377.324 229.172 377.017C229.558 376.71 229.844 376.307 230.03 375.807C230.215 375.307 230.308 374.765 230.308 374.182C230.308 373.598 230.215 373.055 230.03 372.551C229.844 372.047 229.558 371.64 229.172 371.33C228.786 371.019 228.293 370.864 227.695 370.864C227.096 370.864 226.604 371.019 226.217 371.33C225.831 371.64 225.545 372.047 225.359 372.551C225.174 373.055 225.081 373.598 225.081 374.182C225.081 374.765 225.174 375.307 225.359 375.807C225.545 376.307 225.831 376.71 226.217 377.017C226.604 377.324 227.096 377.477 227.695 377.477ZM233.696 369.773H235.037V379.136C235.037 379.674 234.944 380.14 234.759 380.534C234.577 380.928 234.3 381.233 233.929 381.449C233.562 381.665 233.098 381.773 232.537 381.773C232.491 381.773 232.446 381.773 232.401 381.773C232.355 381.773 232.31 381.773 232.264 381.773V380.523C232.31 380.523 232.351 380.523 232.389 380.523C232.427 380.523 232.469 380.523 232.514 380.523C232.923 380.523 233.223 380.402 233.412 380.159C233.601 379.92 233.696 379.58 233.696 379.136V369.773ZM234.355 368.318C234.094 368.318 233.868 368.229 233.679 368.051C233.493 367.873 233.401 367.659 233.401 367.409C233.401 367.159 233.493 366.945 233.679 366.767C233.868 366.589 234.094 366.5 234.355 366.5C234.616 366.5 234.84 366.589 235.026 366.767C235.215 366.945 235.31 367.159 235.31 367.409C235.31 367.659 235.215 367.873 235.026 368.051C234.84 368.229 234.616 368.318 234.355 368.318ZM241.152 378.682C240.311 378.682 239.586 378.496 238.976 378.125C238.37 377.75 237.902 377.227 237.572 376.557C237.247 375.883 237.084 375.098 237.084 374.205C237.084 373.311 237.247 372.523 237.572 371.841C237.902 371.155 238.36 370.621 238.947 370.239C239.538 369.852 240.228 369.659 241.016 369.659C241.47 369.659 241.919 369.735 242.362 369.886C242.805 370.038 243.209 370.284 243.572 370.625C243.936 370.962 244.226 371.409 244.442 371.966C244.658 372.523 244.766 373.208 244.766 374.023V374.591H238.038V373.432H243.402C243.402 372.939 243.304 372.5 243.107 372.114C242.913 371.727 242.637 371.422 242.277 371.199C241.921 370.975 241.5 370.864 241.016 370.864C240.482 370.864 240.019 370.996 239.629 371.261C239.243 371.523 238.946 371.864 238.737 372.284C238.529 372.705 238.425 373.155 238.425 373.636V374.409C238.425 375.068 238.538 375.627 238.766 376.085C238.997 376.54 239.317 376.886 239.726 377.125C240.135 377.36 240.61 377.477 241.152 377.477C241.504 377.477 241.822 377.428 242.107 377.33C242.394 377.227 242.643 377.076 242.851 376.875C243.059 376.67 243.22 376.417 243.334 376.114L244.629 376.477C244.493 376.917 244.264 377.303 243.942 377.636C243.62 377.966 243.222 378.223 242.749 378.409C242.275 378.591 241.743 378.682 241.152 378.682ZM250.351 378.682C249.533 378.682 248.828 378.489 248.237 378.102C247.646 377.716 247.192 377.184 246.874 376.506C246.555 375.828 246.396 375.053 246.396 374.182C246.396 373.295 246.559 372.513 246.885 371.835C247.214 371.153 247.673 370.621 248.26 370.239C248.851 369.852 249.54 369.659 250.328 369.659C250.942 369.659 251.495 369.773 251.987 370C252.48 370.227 252.883 370.545 253.197 370.955C253.512 371.364 253.707 371.841 253.783 372.386H252.442C252.339 371.989 252.112 371.636 251.76 371.33C251.411 371.019 250.942 370.864 250.351 370.864C249.828 370.864 249.37 371 248.976 371.273C248.586 371.542 248.281 371.922 248.061 372.415C247.845 372.903 247.737 373.477 247.737 374.136C247.737 374.811 247.843 375.398 248.055 375.898C248.271 376.398 248.574 376.786 248.964 377.062C249.358 377.339 249.821 377.477 250.351 377.477C250.699 377.477 251.016 377.417 251.3 377.295C251.584 377.174 251.824 377 252.021 376.773C252.218 376.545 252.358 376.273 252.442 375.955H253.783C253.707 376.47 253.519 376.934 253.22 377.347C252.925 377.756 252.533 378.081 252.044 378.324C251.559 378.562 250.995 378.682 250.351 378.682ZM259.538 369.773V370.909H255.016V369.773H259.538ZM256.334 367.682H257.675V376C257.675 376.379 257.73 376.663 257.839 376.852C257.953 377.038 258.097 377.163 258.271 377.227C258.449 377.288 258.637 377.318 258.834 377.318C258.982 377.318 259.103 377.311 259.197 377.295C259.292 377.277 259.368 377.261 259.425 377.25L259.697 378.455C259.607 378.489 259.48 378.523 259.317 378.557C259.154 378.595 258.947 378.614 258.697 378.614C258.319 378.614 257.947 378.532 257.584 378.369C257.224 378.206 256.925 377.958 256.686 377.625C256.451 377.292 256.334 376.871 256.334 376.364V367.682ZM266.055 381.773V369.773H267.351V371.159H267.51C267.608 371.008 267.745 370.814 267.919 370.58C268.097 370.341 268.351 370.129 268.68 369.943C269.014 369.754 269.464 369.659 270.033 369.659C270.768 369.659 271.415 369.843 271.976 370.21C272.536 370.578 272.974 371.098 273.288 371.773C273.603 372.447 273.76 373.242 273.76 374.159C273.76 375.083 273.603 375.884 273.288 376.562C272.974 377.237 272.538 377.759 271.982 378.131C271.425 378.498 270.783 378.682 270.055 378.682C269.495 378.682 269.046 378.589 268.709 378.403C268.372 378.214 268.112 378 267.93 377.761C267.749 377.519 267.608 377.318 267.51 377.159H267.396V381.773H266.055ZM267.374 374.136C267.374 374.795 267.47 375.377 267.663 375.881C267.857 376.381 268.139 376.773 268.51 377.057C268.881 377.337 269.336 377.477 269.874 377.477C270.434 377.477 270.902 377.33 271.277 377.034C271.656 376.735 271.94 376.333 272.129 375.83C272.322 375.322 272.419 374.758 272.419 374.136C272.419 373.523 272.324 372.97 272.135 372.477C271.949 371.981 271.667 371.589 271.288 371.301C270.913 371.009 270.442 370.864 269.874 370.864C269.328 370.864 268.87 371.002 268.499 371.278C268.127 371.551 267.847 371.934 267.658 372.426C267.468 372.915 267.374 373.485 267.374 374.136ZM275.805 378.5V369.773H277.101V371.091H277.192C277.351 370.659 277.639 370.309 278.055 370.04C278.472 369.771 278.942 369.636 279.464 369.636C279.563 369.636 279.686 369.638 279.834 369.642C279.982 369.646 280.093 369.652 280.169 369.659V371.023C280.124 371.011 280.019 370.994 279.857 370.972C279.697 370.945 279.529 370.932 279.351 370.932C278.927 370.932 278.548 371.021 278.214 371.199C277.885 371.373 277.624 371.616 277.43 371.926C277.241 372.233 277.146 372.583 277.146 372.977V378.5H275.805ZM285.038 378.682C284.25 378.682 283.559 378.494 282.964 378.119C282.374 377.744 281.911 377.22 281.578 376.545C281.249 375.871 281.084 375.083 281.084 374.182C281.084 373.273 281.249 372.479 281.578 371.801C281.911 371.123 282.374 370.597 282.964 370.222C283.559 369.847 284.25 369.659 285.038 369.659C285.826 369.659 286.516 369.847 287.107 370.222C287.701 370.597 288.163 371.123 288.493 371.801C288.826 372.479 288.993 373.273 288.993 374.182C288.993 375.083 288.826 375.871 288.493 376.545C288.163 377.22 287.701 377.744 287.107 378.119C286.516 378.494 285.826 378.682 285.038 378.682ZM285.038 377.477C285.637 377.477 286.129 377.324 286.516 377.017C286.902 376.71 287.188 376.307 287.374 375.807C287.559 375.307 287.652 374.765 287.652 374.182C287.652 373.598 287.559 373.055 287.374 372.551C287.188 372.047 286.902 371.64 286.516 371.33C286.129 371.019 285.637 370.864 285.038 370.864C284.44 370.864 283.947 371.019 283.561 371.33C283.175 371.64 282.889 372.047 282.703 372.551C282.518 373.055 282.425 373.598 282.425 374.182C282.425 374.765 282.518 375.307 282.703 375.807C282.889 376.307 283.175 376.71 283.561 377.017C283.947 377.324 284.44 377.477 285.038 377.477ZM291.04 381.773V369.773H292.335V371.159H292.494C292.593 371.008 292.729 370.814 292.903 370.58C293.081 370.341 293.335 370.129 293.665 369.943C293.998 369.754 294.449 369.659 295.017 369.659C295.752 369.659 296.4 369.843 296.96 370.21C297.521 370.578 297.958 371.098 298.273 371.773C298.587 372.447 298.744 373.242 298.744 374.159C298.744 375.083 298.587 375.884 298.273 376.562C297.958 377.237 297.523 377.759 296.966 378.131C296.409 378.498 295.767 378.682 295.04 378.682C294.479 378.682 294.03 378.589 293.693 378.403C293.356 378.214 293.097 378 292.915 377.761C292.733 377.519 292.593 377.318 292.494 377.159H292.381V381.773H291.04ZM292.358 374.136C292.358 374.795 292.455 375.377 292.648 375.881C292.841 376.381 293.123 376.773 293.494 377.057C293.866 377.337 294.32 377.477 294.858 377.477C295.419 377.477 295.886 377.33 296.261 377.034C296.64 376.735 296.924 376.333 297.114 375.83C297.307 375.322 297.403 374.758 297.403 374.136C297.403 373.523 297.309 372.97 297.119 372.477C296.934 371.981 296.652 371.589 296.273 371.301C295.898 371.009 295.426 370.864 294.858 370.864C294.313 370.864 293.854 371.002 293.483 371.278C293.112 371.551 292.831 371.934 292.642 372.426C292.453 372.915 292.358 373.485 292.358 374.136ZM304.335 378.682C303.547 378.682 302.856 378.494 302.261 378.119C301.67 377.744 301.208 377.22 300.875 376.545C300.545 375.871 300.381 375.083 300.381 374.182C300.381 373.273 300.545 372.479 300.875 371.801C301.208 371.123 301.67 370.597 302.261 370.222C302.856 369.847 303.547 369.659 304.335 369.659C305.123 369.659 305.813 369.847 306.403 370.222C306.998 370.597 307.46 371.123 307.79 371.801C308.123 372.479 308.29 373.273 308.29 374.182C308.29 375.083 308.123 375.871 307.79 376.545C307.46 377.22 306.998 377.744 306.403 378.119C305.813 378.494 305.123 378.682 304.335 378.682ZM304.335 377.477C304.934 377.477 305.426 377.324 305.812 377.017C306.199 376.71 306.485 376.307 306.67 375.807C306.856 375.307 306.949 374.765 306.949 374.182C306.949 373.598 306.856 373.055 306.67 372.551C306.485 372.047 306.199 371.64 305.812 371.33C305.426 371.019 304.934 370.864 304.335 370.864C303.737 370.864 303.244 371.019 302.858 371.33C302.472 371.64 302.186 372.047 302 372.551C301.814 373.055 301.722 373.598 301.722 374.182C301.722 374.765 301.814 375.307 302 375.807C302.186 376.307 302.472 376.71 302.858 377.017C303.244 377.324 303.737 377.477 304.335 377.477ZM316.518 371.727L315.314 372.068C315.238 371.867 315.126 371.672 314.979 371.483C314.835 371.29 314.638 371.131 314.388 371.006C314.138 370.881 313.818 370.818 313.428 370.818C312.893 370.818 312.448 370.941 312.092 371.188C311.74 371.43 311.564 371.739 311.564 372.114C311.564 372.447 311.685 372.71 311.928 372.903C312.17 373.097 312.549 373.258 313.064 373.386L314.359 373.705C315.14 373.894 315.721 374.184 316.104 374.574C316.486 374.96 316.678 375.458 316.678 376.068C316.678 376.568 316.534 377.015 316.246 377.409C315.962 377.803 315.564 378.114 315.053 378.341C314.541 378.568 313.946 378.682 313.268 378.682C312.378 378.682 311.642 378.489 311.058 378.102C310.475 377.716 310.106 377.152 309.95 376.409L311.223 376.091C311.344 376.561 311.573 376.913 311.911 377.148C312.251 377.383 312.696 377.5 313.246 377.5C313.871 377.5 314.367 377.367 314.734 377.102C315.106 376.833 315.291 376.511 315.291 376.136C315.291 375.833 315.185 375.58 314.973 375.375C314.761 375.167 314.435 375.011 313.996 374.909L312.541 374.568C311.742 374.379 311.155 374.085 310.78 373.688C310.409 373.286 310.223 372.784 310.223 372.182C310.223 371.689 310.361 371.254 310.638 370.875C310.918 370.496 311.299 370.199 311.78 369.983C312.265 369.767 312.814 369.659 313.428 369.659C314.291 369.659 314.969 369.848 315.462 370.227C315.958 370.606 316.31 371.106 316.518 371.727ZM321.264 378.705C320.711 378.705 320.209 378.6 319.759 378.392C319.308 378.18 318.95 377.875 318.685 377.477C318.42 377.076 318.287 376.591 318.287 376.023C318.287 375.523 318.385 375.117 318.582 374.807C318.779 374.492 319.043 374.246 319.372 374.068C319.702 373.89 320.065 373.758 320.463 373.67C320.865 373.58 321.268 373.508 321.673 373.455C322.204 373.386 322.634 373.335 322.963 373.301C323.296 373.263 323.539 373.201 323.69 373.114C323.846 373.027 323.923 372.875 323.923 372.659V372.614C323.923 372.053 323.77 371.617 323.463 371.307C323.16 370.996 322.7 370.841 322.082 370.841C321.442 370.841 320.94 370.981 320.577 371.261C320.213 371.542 319.957 371.841 319.81 372.159L318.537 371.705C318.764 371.174 319.067 370.761 319.446 370.466C319.829 370.167 320.245 369.958 320.696 369.841C321.151 369.72 321.598 369.659 322.037 369.659C322.317 369.659 322.639 369.693 323.003 369.761C323.37 369.826 323.724 369.96 324.065 370.165C324.41 370.369 324.696 370.678 324.923 371.091C325.151 371.504 325.264 372.057 325.264 372.75V378.5H323.923V377.318H323.855C323.764 377.508 323.613 377.71 323.401 377.926C323.188 378.142 322.906 378.326 322.554 378.477C322.202 378.629 321.772 378.705 321.264 378.705ZM321.469 377.5C321.999 377.5 322.446 377.396 322.81 377.188C323.177 376.979 323.454 376.71 323.639 376.381C323.829 376.051 323.923 375.705 323.923 375.341V374.114C323.866 374.182 323.741 374.244 323.548 374.301C323.359 374.354 323.139 374.402 322.889 374.443C322.643 374.481 322.402 374.515 322.168 374.545C321.937 374.572 321.749 374.595 321.605 374.614C321.257 374.659 320.931 374.733 320.628 374.835C320.329 374.934 320.086 375.083 319.901 375.284C319.719 375.481 319.628 375.75 319.628 376.091C319.628 376.557 319.8 376.909 320.145 377.148C320.493 377.383 320.935 377.5 321.469 377.5ZM329.053 366.864V378.5H327.712V366.864H329.053Z" fill="#F0F0F0"/>
<rect x="557.25" y="357.25" width="31.5" height="31.5" rx="7.75" fill="#2B2B2B"/>
<rect x="557.25" y="357.25" width="31.5" height="31.5" rx="7.75" stroke="#4B4B4B" stroke-width="0.5"/>
<path d="M567.167 365.5L578.833 373L567.167 380.5V365.5Z" stroke="#DCDCDC" stroke-width="2" stroke-linecap="round" stroke-linejoin="round"/>
<rect x="605.25" y="357.25" width="31.5" height="31.5" rx="7.75" fill="#2B2B2B"/>
<rect x="605.25" y="357.25" width="31.5" height="31.5" rx="7.75" stroke="#4B4B4B" stroke-width="0.5"/>
<path d="M621 374.023C621.565 374.023 622.023 373.565 622.023 373C622.023 372.435 621.565 371.978 621 371.978C620.435 371.978 619.977 372.435 619.977 373C619.977 373.565 620.435 374.023 621 374.023Z" stroke="#BDBDBD" stroke-width="2.45487" stroke-linecap="round" stroke-linejoin="round"/>
<path d="M628.16 374.023C628.725 374.023 629.183 373.565 629.183 373C629.183 372.435 628.725 371.978 628.16 371.978C627.595 371.978 627.137 372.435 627.137 373C627.137 373.565 627.595 374.023 628.16 374.023Z" stroke="#BDBDBD" stroke-width="2.45487" stroke-linecap="round" stroke-linejoin="round"/>
<path d="M613.84 374.023C614.405 374.023 614.863 373.565 614.863 373C614.863 372.435 614.405 371.978 613.84 371.978C613.275 371.978 612.817 372.435 612.817 373C612.817 373.565 613.275 374.023 613.84 374.023Z" stroke="#BDBDBD" stroke-width="2.45487" stroke-linecap="round" stroke-linejoin="round"/>
<rect x="130.25" y="433.25" width="31.5" height="31.5" rx="7.75" fill="#2B2B2B"/>
<rect x="130.25" y="433.25" width="31.5" height="31.5" rx="7.75" stroke="#4B4B4B" stroke-width="0.5"/>
<path d="M143.5 454L148.5 449L143.5 444" stroke="#DCDCDC" stroke-width="2" stroke-linecap="round" stroke-linejoin="round"/>
<rect x="178" y="446" width="459" height="6" rx="3" fill="#464646"/>
<rect x="114.5" y="515.5" width="539" height="151" rx="7.5" fill="#181818" stroke="#232222"/>
<path d="M131.409 554.5V542.864H135.341C136.254 542.864 137 543.028 137.58 543.358C138.163 543.684 138.595 544.125 138.875 544.682C139.155 545.239 139.295 545.86 139.295 546.545C139.295 547.231 139.155 547.854 138.875 548.415C138.598 548.975 138.17 549.422 137.591 549.756C137.011 550.085 136.269 550.25 135.364 550.25H132.545V549H135.318C135.943 549 136.445 548.892 136.824 548.676C137.203 548.46 137.477 548.169 137.648 547.801C137.822 547.43 137.909 547.011 137.909 546.545C137.909 546.08 137.822 545.663 137.648 545.295C137.477 544.928 137.201 544.64 136.818 544.432C136.436 544.22 135.928 544.114 135.295 544.114H132.818V554.5H131.409ZM142.724 542.864V554.5H141.384V542.864H142.724ZM147.749 554.705C147.196 554.705 146.694 554.6 146.243 554.392C145.792 554.18 145.434 553.875 145.169 553.477C144.904 553.076 144.771 552.591 144.771 552.023C144.771 551.523 144.87 551.117 145.067 550.807C145.264 550.492 145.527 550.246 145.857 550.068C146.186 549.89 146.55 549.758 146.947 549.67C147.349 549.58 147.752 549.508 148.158 549.455C148.688 549.386 149.118 549.335 149.447 549.301C149.781 549.263 150.023 549.201 150.175 549.114C150.33 549.027 150.408 548.875 150.408 548.659V548.614C150.408 548.053 150.254 547.617 149.947 547.307C149.644 546.996 149.184 546.841 148.567 546.841C147.927 546.841 147.425 546.981 147.061 547.261C146.697 547.542 146.442 547.841 146.294 548.159L145.021 547.705C145.249 547.174 145.552 546.761 145.93 546.466C146.313 546.167 146.73 545.958 147.18 545.841C147.635 545.72 148.082 545.659 148.521 545.659C148.802 545.659 149.124 545.693 149.487 545.761C149.855 545.826 150.209 545.96 150.55 546.165C150.894 546.369 151.18 546.678 151.408 547.091C151.635 547.504 151.749 548.057 151.749 548.75V554.5H150.408V553.318H150.339C150.249 553.508 150.097 553.71 149.885 553.926C149.673 554.142 149.391 554.326 149.038 554.477C148.686 554.629 148.256 554.705 147.749 554.705ZM147.953 553.5C148.483 553.5 148.93 553.396 149.294 553.188C149.661 552.979 149.938 552.71 150.124 552.381C150.313 552.051 150.408 551.705 150.408 551.341V550.114C150.351 550.182 150.226 550.244 150.033 550.301C149.843 550.354 149.624 550.402 149.374 550.443C149.127 550.481 148.887 550.515 148.652 550.545C148.421 550.572 148.233 550.595 148.089 550.614C147.741 550.659 147.415 550.733 147.112 550.835C146.813 550.934 146.571 551.083 146.385 551.284C146.203 551.481 146.112 551.75 146.112 552.091C146.112 552.557 146.285 552.909 146.629 553.148C146.978 553.383 147.419 553.5 147.953 553.5ZM155.537 549.25V554.5H154.196V545.773H155.491V547.136H155.605C155.81 546.693 156.12 546.337 156.537 546.068C156.954 545.795 157.491 545.659 158.151 545.659C158.741 545.659 159.259 545.78 159.702 546.023C160.145 546.261 160.49 546.625 160.736 547.114C160.982 547.598 161.105 548.212 161.105 548.955V554.5H159.764V549.045C159.764 548.36 159.586 547.826 159.23 547.443C158.874 547.057 158.385 546.864 157.764 546.864C157.336 546.864 156.954 546.956 156.616 547.142C156.283 547.328 156.02 547.598 155.827 547.955C155.634 548.311 155.537 548.742 155.537 549.25ZM170.033 554.5L167.374 545.773H168.783L170.669 552.455H170.76L172.624 545.773H174.055L175.896 552.432H175.987L177.874 545.773H179.283L176.624 554.5H175.305L173.396 547.795H173.26L171.351 554.5H170.033ZM184.418 554.682C183.577 554.682 182.851 554.496 182.241 554.125C181.635 553.75 181.168 553.227 180.838 552.557C180.512 551.883 180.349 551.098 180.349 550.205C180.349 549.311 180.512 548.523 180.838 547.841C181.168 547.155 181.626 546.621 182.213 546.239C182.804 545.852 183.493 545.659 184.281 545.659C184.736 545.659 185.185 545.735 185.628 545.886C186.071 546.038 186.474 546.284 186.838 546.625C187.202 546.962 187.491 547.409 187.707 547.966C187.923 548.523 188.031 549.208 188.031 550.023V550.591H181.304V549.432H186.668C186.668 548.939 186.569 548.5 186.372 548.114C186.179 547.727 185.902 547.422 185.543 547.199C185.187 546.975 184.766 546.864 184.281 546.864C183.747 546.864 183.285 546.996 182.895 547.261C182.509 547.523 182.211 547.864 182.003 548.284C181.795 548.705 181.69 549.155 181.69 549.636V550.409C181.69 551.068 181.804 551.627 182.031 552.085C182.262 552.54 182.582 552.886 182.991 553.125C183.401 553.36 183.876 553.477 184.418 553.477C184.77 553.477 185.088 553.428 185.372 553.33C185.66 553.227 185.908 553.076 186.116 552.875C186.325 552.67 186.486 552.417 186.599 552.114L187.895 552.477C187.759 552.917 187.529 553.303 187.207 553.636C186.885 553.966 186.488 554.223 186.014 554.409C185.541 554.591 185.009 554.682 184.418 554.682ZM193.73 554.682C192.889 554.682 192.164 554.496 191.554 554.125C190.948 553.75 190.48 553.227 190.151 552.557C189.825 551.883 189.662 551.098 189.662 550.205C189.662 549.311 189.825 548.523 190.151 547.841C190.48 547.155 190.938 546.621 191.526 546.239C192.116 545.852 192.806 545.659 193.594 545.659C194.048 545.659 194.497 545.735 194.94 545.886C195.384 546.038 195.787 546.284 196.151 546.625C196.514 546.962 196.804 547.409 197.02 547.966C197.236 548.523 197.344 549.208 197.344 550.023V550.591H190.616V549.432H195.98C195.98 548.939 195.882 548.5 195.685 548.114C195.491 547.727 195.215 547.422 194.855 547.199C194.499 546.975 194.079 546.864 193.594 546.864C193.06 546.864 192.598 546.996 192.207 547.261C191.821 547.523 191.524 547.864 191.315 548.284C191.107 548.705 191.003 549.155 191.003 549.636V550.409C191.003 551.068 191.116 551.627 191.344 552.085C191.575 552.54 191.895 552.886 192.304 553.125C192.713 553.36 193.188 553.477 193.73 553.477C194.082 553.477 194.401 553.428 194.685 553.33C194.973 553.227 195.221 553.076 195.429 552.875C195.637 552.67 195.798 552.417 195.912 552.114L197.207 552.477C197.071 552.917 196.842 553.303 196.52 553.636C196.198 553.966 195.8 554.223 195.327 554.409C194.853 554.591 194.321 554.682 193.73 554.682ZM200.634 551.318L200.611 549.659H200.884L204.702 545.773H206.361L202.293 549.886H202.179L200.634 551.318ZM199.384 554.5V542.864H200.724V554.5H199.384ZM204.929 554.5L201.52 550.182L202.474 549.25L206.634 554.5H204.929ZM211.386 554.682C210.545 554.682 209.82 554.496 209.21 554.125C208.604 553.75 208.136 553.227 207.807 552.557C207.481 551.883 207.318 551.098 207.318 550.205C207.318 549.311 207.481 548.523 207.807 547.841C208.136 547.155 208.595 546.621 209.182 546.239C209.773 545.852 210.462 545.659 211.25 545.659C211.705 545.659 212.153 545.735 212.597 545.886C213.04 546.038 213.443 546.284 213.807 546.625C214.17 546.962 214.46 547.409 214.676 547.966C214.892 548.523 215 549.208 215 550.023V550.591H208.273V549.432H213.636C213.636 548.939 213.538 548.5 213.341 548.114C213.148 547.727 212.871 547.422 212.511 547.199C212.155 546.975 211.735 546.864 211.25 546.864C210.716 546.864 210.254 546.996 209.864 547.261C209.477 547.523 209.18 547.864 208.972 548.284C208.763 548.705 208.659 549.155 208.659 549.636V550.409C208.659 551.068 208.773 551.627 209 552.085C209.231 552.54 209.551 552.886 209.96 553.125C210.369 553.36 210.845 553.477 211.386 553.477C211.739 553.477 212.057 553.428 212.341 553.33C212.629 553.227 212.877 553.076 213.085 552.875C213.294 552.67 213.455 552.417 213.568 552.114L214.864 552.477C214.727 552.917 214.498 553.303 214.176 553.636C213.854 553.966 213.456 554.223 212.983 554.409C212.509 554.591 211.977 554.682 211.386 554.682ZM218.381 549.25V554.5H217.04V545.773H218.335V547.136H218.449C218.653 546.693 218.964 546.337 219.381 546.068C219.797 545.795 220.335 545.659 220.994 545.659C221.585 545.659 222.102 545.78 222.545 546.023C222.989 546.261 223.333 546.625 223.58 547.114C223.826 547.598 223.949 548.212 223.949 548.955V554.5H222.608V549.045C222.608 548.36 222.43 547.826 222.074 547.443C221.718 547.057 221.229 546.864 220.608 546.864C220.18 546.864 219.797 546.956 219.46 547.142C219.127 547.328 218.864 547.598 218.67 547.955C218.477 548.311 218.381 548.742 218.381 549.25ZM229.695 554.682C228.967 554.682 228.325 554.498 227.768 554.131C227.212 553.759 226.776 553.237 226.462 552.562C226.147 551.884 225.99 551.083 225.99 550.159C225.99 549.242 226.147 548.447 226.462 547.773C226.776 547.098 227.214 546.578 227.774 546.21C228.335 545.843 228.982 545.659 229.717 545.659C230.286 545.659 230.734 545.754 231.064 545.943C231.397 546.129 231.651 546.341 231.825 546.58C232.003 546.814 232.142 547.008 232.24 547.159H232.354V542.864H233.695V554.5H232.399V553.159H232.24C232.142 553.318 232.001 553.519 231.82 553.761C231.638 554 231.378 554.214 231.041 554.403C230.704 554.589 230.255 554.682 229.695 554.682ZM229.876 553.477C230.414 553.477 230.869 553.337 231.24 553.057C231.611 552.773 231.893 552.381 232.087 551.881C232.28 551.377 232.376 550.795 232.376 550.136C232.376 549.485 232.282 548.915 232.092 548.426C231.903 547.934 231.623 547.551 231.251 547.278C230.88 547.002 230.422 546.864 229.876 546.864C229.308 546.864 228.835 547.009 228.456 547.301C228.081 547.589 227.799 547.981 227.609 548.477C227.424 548.97 227.331 549.523 227.331 550.136C227.331 550.758 227.426 551.322 227.615 551.83C227.808 552.333 228.092 552.735 228.467 553.034C228.846 553.33 229.316 553.477 229.876 553.477ZM244.632 545.773V546.909H240.109V545.773H244.632ZM241.428 543.682H242.768V552C242.768 552.379 242.823 552.663 242.933 552.852C243.047 553.038 243.191 553.163 243.365 553.227C243.543 553.288 243.731 553.318 243.928 553.318C244.075 553.318 244.196 553.311 244.291 553.295C244.386 553.277 244.462 553.261 244.518 553.25L244.791 554.455C244.7 554.489 244.573 554.523 244.411 554.557C244.248 554.595 244.041 554.614 243.791 554.614C243.412 554.614 243.041 554.532 242.678 554.369C242.318 554.206 242.018 553.958 241.78 553.625C241.545 553.292 241.428 552.871 241.428 552.364V543.682ZM246.649 554.5V545.773H247.945V547.091H248.036C248.195 546.659 248.482 546.309 248.899 546.04C249.316 545.771 249.786 545.636 250.308 545.636C250.407 545.636 250.53 545.638 250.678 545.642C250.825 545.646 250.937 545.652 251.013 545.659V547.023C250.967 547.011 250.863 546.994 250.7 546.972C250.541 546.945 250.373 546.932 250.195 546.932C249.77 546.932 249.392 547.021 249.058 547.199C248.729 547.373 248.467 547.616 248.274 547.926C248.085 548.233 247.99 548.583 247.99 548.977V554.5H246.649ZM252.602 554.5V545.773H253.943V554.5H252.602ZM253.284 544.318C253.023 544.318 252.797 544.229 252.608 544.051C252.422 543.873 252.33 543.659 252.33 543.409C252.33 543.159 252.422 542.945 252.608 542.767C252.797 542.589 253.023 542.5 253.284 542.5C253.545 542.5 253.769 542.589 253.955 542.767C254.144 542.945 254.239 543.159 254.239 543.409C254.239 543.659 254.144 543.873 253.955 544.051C253.769 544.229 253.545 544.318 253.284 544.318ZM256.399 557.773V545.773H257.695V547.159H257.854C257.952 547.008 258.089 546.814 258.263 546.58C258.441 546.341 258.695 546.129 259.024 545.943C259.357 545.754 259.808 545.659 260.376 545.659C261.111 545.659 261.759 545.843 262.32 546.21C262.88 546.578 263.318 547.098 263.632 547.773C263.946 548.447 264.104 549.242 264.104 550.159C264.104 551.083 263.946 551.884 263.632 552.562C263.318 553.237 262.882 553.759 262.325 554.131C261.768 554.498 261.126 554.682 260.399 554.682C259.839 554.682 259.39 554.589 259.053 554.403C258.715 554.214 258.456 554 258.274 553.761C258.092 553.519 257.952 553.318 257.854 553.159H257.74V557.773H256.399ZM257.717 550.136C257.717 550.795 257.814 551.377 258.007 551.881C258.2 552.381 258.482 552.773 258.854 553.057C259.225 553.337 259.679 553.477 260.217 553.477C260.778 553.477 261.246 553.33 261.621 553.034C262 552.735 262.284 552.333 262.473 551.83C262.666 551.322 262.763 550.758 262.763 550.136C262.763 549.523 262.668 548.97 262.479 548.477C262.293 547.981 262.011 547.589 261.632 547.301C261.257 547.009 260.786 546.864 260.217 546.864C259.672 546.864 259.214 547.002 258.842 547.278C258.471 547.551 258.191 547.934 258.001 548.426C257.812 548.915 257.717 549.485 257.717 550.136Z" fill="#F0F0F0"/>
<rect x="557.25" y="533.25" width="31.5" height="31.5" rx="7.75" fill="#2B2B2B"/>
<rect x="557.25" y="533.25" width="31.5" height="31.5" rx="7.75" stroke="#4B4B4B" stroke-width="0.5"/>
<path d="M567.167 541.5L578.833 549L567.167 556.5V541.5Z" stroke="#DCDCDC" stroke-width="2" stroke-linecap="round" stroke-linejoin="round"/>
<rect x="605.25" y="533.25" width="31.5" height="31.5" rx="7.75" fill="#2B2B2B"/>
<rect x="605.25" y="533.25" width="31.5" height="31.5" rx="7.75" stroke="#4B4B4B" stroke-width="0.5"/>
<path d="M621 550.023C621.565 550.023 622.023 549.565 622.023 549C622.023 548.435 621.565 547.978 621 547.978C620.435 547.978 619.977 548.435 619.977 549C619.977 549.565 620.435 550.023 621 550.023Z" stroke="#BDBDBD" stroke-width="2.45487" stroke-linecap="round" stroke-linejoin="round"/>
<path d="M628.16 550.023C628.725 550.023 629.183 549.565 629.183 549C629.183 548.435 628.725 547.978 628.16 547.978C627.595 547.978 627.137 548.435 627.137 549C627.137 549.565 627.595 550.023 628.16 550.023Z" stroke="#BDBDBD" stroke-width="2.45487" stroke-linecap="round" stroke-linejoin="round"/>
<path d="M613.84 550.023C614.405 550.023 614.863 549.565 614.863 549C614.863 548.435 614.405 547.978 613.84 547.978C613.275 547.978 612.817 548.435 612.817 549C612.817 549.565 613.275 550.023 613.84 550.023Z" stroke="#BDBDBD" stroke-width="2.45487" stroke-linecap="round" stroke-linejoin="round"/>
<rect x="130.25" y="609.25" width="31.5" height="31.5" rx="7.75" fill="#2B2B2B"/>
<rect x="130.25" y="609.25" width="31.5" height="31.5" rx="7.75" stroke="#4B4B4B" stroke-width="0.5"/>
<path d="M143.5 630L148.5 625L143.5 620" stroke="#DCDCDC" stroke-width="2" stroke-linecap="round" stroke-linejoin="round"/>
<rect x="178" y="622" width="459" height="6" rx="3" fill="#464646"/>
<rect x="178" y="622" width="143" height="6" rx="3" fill="#75E068"/>
<defs>
<linearGradient id="paint0_linear_274_491" x1="384" y1="1.07288e-05" x2="24" y2="689" gradientUnits="userSpaceOnUse">
<stop stopColor="#0F0F0F"/>
<stop offset="1" stopColor="#181818"/>
</linearGradient>
</defs>
</svg>
