<svg width="768" height="528" viewBox="0 0 768 528" fill="none" xmlns="http://www.w3.org/2000/svg">
<rect width="768" height="528" rx="32" fill="white"/>
<rect x="114.5" y="68.5" width="539" height="63" rx="7.5" fill="#F6F6F6" stroke="#E3E3E3"/>
<path d="M132.091 109.273C131.864 109.273 131.661 109.254 131.483 109.216C131.305 109.182 131.182 109.148 131.114 109.114L131.455 107.932C131.78 108.015 132.068 108.045 132.318 108.023C132.568 108 132.79 107.888 132.983 107.688C133.18 107.491 133.36 107.17 133.523 106.727L133.773 106.045L130.545 97.2727H132L134.409 104.227H134.5L136.909 97.2727H138.364L134.659 107.273C134.492 107.723 134.286 108.097 134.04 108.392C133.794 108.691 133.508 108.913 133.182 109.057C132.86 109.201 132.496 109.273 132.091 109.273ZM143.366 106.182C142.579 106.182 141.887 105.994 141.293 105.619C140.702 105.244 140.24 104.72 139.906 104.045C139.577 103.371 139.412 102.583 139.412 101.682C139.412 100.773 139.577 99.9792 139.906 99.3011C140.24 98.6231 140.702 98.0966 141.293 97.7216C141.887 97.3466 142.579 97.1591 143.366 97.1591C144.154 97.1591 144.844 97.3466 145.435 97.7216C146.029 98.0966 146.491 98.6231 146.821 99.3011C147.154 99.9792 147.321 100.773 147.321 101.682C147.321 102.583 147.154 103.371 146.821 104.045C146.491 104.72 146.029 105.244 145.435 105.619C144.844 105.994 144.154 106.182 143.366 106.182ZM143.366 104.977C143.965 104.977 144.457 104.824 144.844 104.517C145.23 104.21 145.516 103.807 145.702 103.307C145.887 102.807 145.98 102.265 145.98 101.682C145.98 101.098 145.887 100.555 145.702 100.051C145.516 99.5473 145.23 99.1402 144.844 98.8295C144.457 98.5189 143.965 98.3636 143.366 98.3636C142.768 98.3636 142.276 98.5189 141.889 98.8295C141.503 99.1402 141.217 99.5473 141.031 100.051C140.846 100.555 140.753 101.098 140.753 101.682C140.753 102.265 140.846 102.807 141.031 103.307C141.217 103.807 141.503 104.21 141.889 104.517C142.276 104.824 142.768 104.977 143.366 104.977ZM154.868 102.432V97.2727H156.209V106H154.868V104.523H154.777C154.572 104.966 154.254 105.343 153.822 105.653C153.391 105.96 152.845 106.114 152.186 106.114C151.641 106.114 151.156 105.994 150.732 105.756C150.307 105.513 149.974 105.15 149.732 104.665C149.489 104.176 149.368 103.561 149.368 102.818V97.2727H150.709V102.727C150.709 103.364 150.887 103.871 151.243 104.25C151.603 104.629 152.061 104.818 152.618 104.818C152.951 104.818 153.29 104.733 153.635 104.562C153.983 104.392 154.275 104.131 154.51 103.778C154.749 103.426 154.868 102.977 154.868 102.432ZM162.46 97.2727V98.4091H157.938V97.2727H162.46ZM159.256 95.1818H160.597V103.5C160.597 103.879 160.652 104.163 160.761 104.352C160.875 104.538 161.019 104.663 161.193 104.727C161.371 104.788 161.559 104.818 161.756 104.818C161.903 104.818 162.025 104.811 162.119 104.795C162.214 104.777 162.29 104.761 162.347 104.75L162.619 105.955C162.528 105.989 162.402 106.023 162.239 106.057C162.076 106.095 161.869 106.114 161.619 106.114C161.241 106.114 160.869 106.032 160.506 105.869C160.146 105.706 159.847 105.458 159.608 105.125C159.373 104.792 159.256 104.371 159.256 103.864V95.1818ZM169.977 102.432V97.2727H171.318V106H169.977V104.523H169.886C169.682 104.966 169.364 105.343 168.932 105.653C168.5 105.96 167.955 106.114 167.295 106.114C166.75 106.114 166.265 105.994 165.841 105.756C165.417 105.513 165.083 105.15 164.841 104.665C164.598 104.176 164.477 103.561 164.477 102.818V97.2727H165.818V102.727C165.818 103.364 165.996 103.871 166.352 104.25C166.712 104.629 167.17 104.818 167.727 104.818C168.061 104.818 168.4 104.733 168.744 104.562C169.093 104.392 169.384 104.131 169.619 103.778C169.858 103.426 169.977 102.977 169.977 102.432ZM173.956 106V94.3636H175.297V98.6591H175.411C175.509 98.5076 175.645 98.3144 175.82 98.0795C175.998 97.8409 176.251 97.6288 176.581 97.4432C176.914 97.2538 177.365 97.1591 177.933 97.1591C178.668 97.1591 179.316 97.3428 179.876 97.7102C180.437 98.0777 180.875 98.5985 181.189 99.2727C181.503 99.947 181.661 100.742 181.661 101.659C181.661 102.583 181.503 103.384 181.189 104.062C180.875 104.737 180.439 105.259 179.882 105.631C179.325 105.998 178.683 106.182 177.956 106.182C177.395 106.182 176.946 106.089 176.609 105.903C176.272 105.714 176.013 105.5 175.831 105.261C175.649 105.019 175.509 104.818 175.411 104.659H175.251V106H173.956ZM175.274 101.636C175.274 102.295 175.371 102.877 175.564 103.381C175.757 103.881 176.039 104.273 176.411 104.557C176.782 104.837 177.236 104.977 177.774 104.977C178.335 104.977 178.803 104.83 179.178 104.534C179.556 104.235 179.84 103.833 180.03 103.33C180.223 102.822 180.32 102.258 180.32 101.636C180.32 101.023 180.225 100.47 180.036 99.9773C179.85 99.4811 179.568 99.089 179.189 98.8011C178.814 98.5095 178.342 98.3636 177.774 98.3636C177.229 98.3636 176.77 98.5019 176.399 98.7784C176.028 99.0511 175.748 99.4337 175.558 99.9261C175.369 100.415 175.274 100.985 175.274 101.636ZM187.371 106.182C186.53 106.182 185.804 105.996 185.195 105.625C184.589 105.25 184.121 104.727 183.791 104.057C183.465 103.383 183.303 102.598 183.303 101.705C183.303 100.811 183.465 100.023 183.791 99.3409C184.121 98.6553 184.579 98.1212 185.166 97.7386C185.757 97.3523 186.446 97.1591 187.234 97.1591C187.689 97.1591 188.138 97.2348 188.581 97.3864C189.024 97.5379 189.428 97.7841 189.791 98.125C190.155 98.4621 190.445 98.9091 190.661 99.4659C190.876 100.023 190.984 100.708 190.984 101.523V102.091H184.257V100.932H189.621C189.621 100.439 189.522 100 189.325 99.6136C189.132 99.2273 188.856 98.9223 188.496 98.6989C188.14 98.4754 187.719 98.3636 187.234 98.3636C186.7 98.3636 186.238 98.4962 185.848 98.7614C185.462 99.0227 185.164 99.3636 184.956 99.7841C184.748 100.205 184.643 100.655 184.643 101.136V101.909C184.643 102.568 184.757 103.127 184.984 103.585C185.215 104.04 185.536 104.386 185.945 104.625C186.354 104.86 186.829 104.977 187.371 104.977C187.723 104.977 188.041 104.928 188.325 104.83C188.613 104.727 188.861 104.576 189.07 104.375C189.278 104.17 189.439 103.917 189.553 103.614L190.848 103.977C190.712 104.417 190.482 104.803 190.161 105.136C189.839 105.466 189.441 105.723 188.967 105.909C188.494 106.091 187.962 106.182 187.371 106.182ZM194.001 106.091C193.721 106.091 193.481 105.991 193.28 105.79C193.079 105.589 192.979 105.348 192.979 105.068C192.979 104.788 193.079 104.547 193.28 104.347C193.481 104.146 193.721 104.045 194.001 104.045C194.282 104.045 194.522 104.146 194.723 104.347C194.924 104.547 195.024 104.788 195.024 105.068C195.024 105.254 194.977 105.424 194.882 105.58C194.791 105.735 194.668 105.86 194.513 105.955C194.361 106.045 194.191 106.091 194.001 106.091ZM200.976 106.182C200.158 106.182 199.453 105.989 198.862 105.602C198.271 105.216 197.817 104.684 197.499 104.006C197.18 103.328 197.021 102.553 197.021 101.682C197.021 100.795 197.184 100.013 197.51 99.3352C197.839 98.6534 198.298 98.1212 198.885 97.7386C199.476 97.3523 200.165 97.1591 200.953 97.1591C201.567 97.1591 202.12 97.2727 202.612 97.5C203.105 97.7273 203.508 98.0455 203.822 98.4545C204.137 98.8636 204.332 99.3409 204.408 99.8864H203.067C202.964 99.4886 202.737 99.1364 202.385 98.8295C202.036 98.5189 201.567 98.3636 200.976 98.3636C200.453 98.3636 199.995 98.5 199.601 98.7727C199.211 99.0417 198.906 99.4223 198.686 99.9148C198.47 100.403 198.362 100.977 198.362 101.636C198.362 102.311 198.468 102.898 198.68 103.398C198.896 103.898 199.199 104.286 199.589 104.562C199.983 104.839 200.446 104.977 200.976 104.977C201.324 104.977 201.641 104.917 201.925 104.795C202.209 104.674 202.449 104.5 202.646 104.273C202.843 104.045 202.983 103.773 203.067 103.455H204.408C204.332 103.97 204.144 104.434 203.845 104.847C203.55 105.256 203.158 105.581 202.669 105.824C202.184 106.062 201.62 106.182 200.976 106.182ZM209.913 106.182C209.125 106.182 208.434 105.994 207.839 105.619C207.249 105.244 206.786 104.72 206.453 104.045C206.124 103.371 205.959 102.583 205.959 101.682C205.959 100.773 206.124 99.9792 206.453 99.3011C206.786 98.6231 207.249 98.0966 207.839 97.7216C208.434 97.3466 209.125 97.1591 209.913 97.1591C210.701 97.1591 211.391 97.3466 211.982 97.7216C212.576 98.0966 213.038 98.6231 213.368 99.3011C213.701 99.9792 213.868 100.773 213.868 101.682C213.868 102.583 213.701 103.371 213.368 104.045C213.038 104.72 212.576 105.244 211.982 105.619C211.391 105.994 210.701 106.182 209.913 106.182ZM209.913 104.977C210.512 104.977 211.004 104.824 211.391 104.517C211.777 104.21 212.063 103.807 212.249 103.307C212.434 102.807 212.527 102.265 212.527 101.682C212.527 101.098 212.434 100.555 212.249 100.051C212.063 99.5473 211.777 99.1402 211.391 98.8295C211.004 98.5189 210.512 98.3636 209.913 98.3636C209.315 98.3636 208.822 98.5189 208.436 98.8295C208.05 99.1402 207.764 99.5473 207.578 100.051C207.393 100.555 207.3 101.098 207.3 101.682C207.3 102.265 207.393 102.807 207.578 103.307C207.764 103.807 208.05 104.21 208.436 104.517C208.822 104.824 209.315 104.977 209.913 104.977ZM215.915 106V97.2727H217.21V98.6364H217.324C217.506 98.1705 217.799 97.8087 218.205 97.5511C218.61 97.2898 219.097 97.1591 219.665 97.1591C220.241 97.1591 220.72 97.2898 221.102 97.5511C221.489 97.8087 221.79 98.1705 222.006 98.6364H222.097C222.32 98.1856 222.655 97.8277 223.102 97.5625C223.549 97.2936 224.085 97.1591 224.71 97.1591C225.491 97.1591 226.129 97.4034 226.625 97.892C227.121 98.3769 227.369 99.1326 227.369 100.159V106H226.028V100.159C226.028 99.5152 225.852 99.0549 225.5 98.7784C225.148 98.5019 224.733 98.3636 224.256 98.3636C223.642 98.3636 223.167 98.5492 222.83 98.9205C222.492 99.2879 222.324 99.7538 222.324 100.318V106H220.96V100.023C220.96 99.5265 220.799 99.1269 220.477 98.8239C220.155 98.517 219.741 98.3636 219.233 98.3636C218.884 98.3636 218.559 98.4564 218.256 98.642C217.956 98.8277 217.714 99.0852 217.528 99.4148C217.347 99.7405 217.256 100.117 217.256 100.545V106H215.915Z" fill="#6C6C6C"/>
<path d="M620 92.25C615.72 92.25 612.25 95.7198 612.25 100C612.25 104.28 615.72 107.75 620 107.75C624.28 107.75 627.75 104.28 627.75 100C627.75 95.7198 624.28 92.25 620 92.25Z" fill="#DEDEDE"/>
<path d="M620 92.25C615.72 92.25 612.25 95.7198 612.25 100C612.25 104.28 615.72 107.75 620 107.75C624.28 107.75 627.75 104.28 627.75 100C627.75 95.7198 624.28 92.25 620 92.25Z" stroke="#D8D8D8" stroke-width="0.5"/>
<path d="M208.489 195.545H210.304L214.114 203.83H214.284L220.821 195.545H222.67L214.727 205.44L213.474 213H211.889L213.134 205.44L208.489 195.545ZM225.747 213.273C224.599 213.273 223.634 212.983 222.849 212.403C222.065 211.818 221.511 211.009 221.188 209.974C220.864 208.94 220.81 207.747 221.026 206.395C221.241 205.077 221.67 203.918 222.312 202.918C222.96 201.912 223.756 201.131 224.699 200.574C225.642 200.011 226.668 199.73 227.776 199.73C228.929 199.73 229.895 200.023 230.673 200.608C231.457 201.193 232.011 202.003 232.335 203.037C232.665 204.071 232.722 205.267 232.506 206.625C232.29 207.938 231.858 209.094 231.21 210.094C230.563 211.088 229.767 211.866 228.824 212.429C227.886 212.991 226.861 213.273 225.747 213.273ZM225.764 211.884C226.696 211.884 227.526 211.636 228.253 211.142C228.986 210.642 229.591 209.977 230.068 209.148C230.545 208.312 230.866 207.395 231.031 206.395C231.185 205.44 231.168 204.562 230.98 203.761C230.793 202.96 230.432 202.318 229.898 201.835C229.364 201.352 228.653 201.111 227.767 201.111C226.841 201.111 226.011 201.364 225.278 201.869C224.545 202.369 223.94 203.04 223.463 203.881C222.986 204.716 222.668 205.631 222.509 206.625C222.349 207.585 222.361 208.463 222.543 209.259C222.73 210.054 223.091 210.69 223.625 211.168C224.165 211.645 224.878 211.884 225.764 211.884ZM243.924 207.997L245.279 199.909H246.796L244.614 213H243.097L243.455 210.827H243.344C242.935 211.497 242.356 212.057 241.606 212.506C240.862 212.949 240.009 213.17 239.049 213.17C238.214 213.17 237.501 212.989 236.91 212.625C236.325 212.256 235.907 211.716 235.657 211.006C235.407 210.295 235.367 209.423 235.538 208.389L236.961 199.909H238.478L237.08 208.295C236.915 209.318 237.08 210.142 237.575 210.767C238.075 211.386 238.796 211.696 239.739 211.696C240.33 211.696 240.921 211.554 241.512 211.27C242.109 210.986 242.626 210.571 243.063 210.026C243.506 209.474 243.793 208.798 243.924 207.997ZM255.969 199.909L255.756 201.23H249.5L249.722 199.909H255.969ZM252.185 196.773H253.71L251.58 209.582C251.489 210.128 251.511 210.557 251.648 210.869C251.784 211.176 251.994 211.395 252.278 211.526C252.563 211.651 252.875 211.713 253.216 211.713C253.415 211.713 253.585 211.702 253.727 211.679C253.875 211.651 254.006 211.622 254.119 211.594L254.23 212.966C254.065 213.023 253.869 213.074 253.642 213.119C253.415 213.17 253.142 213.196 252.824 213.196C252.267 213.196 251.753 213.074 251.281 212.83C250.81 212.585 250.452 212.222 250.207 211.739C249.963 211.256 249.898 210.656 250.011 209.94L252.185 196.773ZM266.377 207.997L267.732 199.909H269.249L267.067 213H265.55L265.908 210.827H265.798C265.388 211.497 264.809 212.057 264.059 212.506C263.315 212.949 262.462 213.17 261.502 213.17C260.667 213.17 259.954 212.989 259.363 212.625C258.778 212.256 258.36 211.716 258.11 211.006C257.86 210.295 257.82 209.423 257.991 208.389L259.414 199.909H260.931L259.533 208.295C259.369 209.318 259.533 210.142 260.028 210.767C260.528 211.386 261.249 211.696 262.192 211.696C262.783 211.696 263.374 211.554 263.965 211.27C264.562 210.986 265.079 210.571 265.516 210.026C265.96 209.474 266.246 208.798 266.377 207.997ZM271.399 213L274.297 195.545H275.822L274.697 202.406H274.834C275.067 202.014 275.376 201.611 275.763 201.196C276.155 200.781 276.638 200.435 277.212 200.156C277.786 199.872 278.473 199.73 279.274 199.73C280.348 199.73 281.243 200.014 281.959 200.582C282.68 201.145 283.183 201.935 283.467 202.952C283.751 203.963 283.783 205.142 283.561 206.489C283.334 207.841 282.911 209.026 282.291 210.043C281.672 211.06 280.911 211.852 280.007 212.42C279.104 212.989 278.118 213.273 277.05 213.273C276.254 213.273 275.612 213.131 275.124 212.847C274.641 212.562 274.271 212.213 274.016 211.798C273.766 211.378 273.584 210.969 273.47 210.571H273.283L272.874 213H271.399ZM273.99 206.463C273.82 207.52 273.82 208.457 273.99 209.276C274.166 210.088 274.51 210.727 275.021 211.193C275.538 211.653 276.22 211.884 277.067 211.884C277.936 211.884 278.712 211.645 279.393 211.168C280.081 210.685 280.649 210.034 281.098 209.216C281.553 208.398 281.865 207.48 282.036 206.463C282.2 205.457 282.197 204.551 282.027 203.744C281.857 202.937 281.513 202.298 280.996 201.827C280.479 201.349 279.783 201.111 278.908 201.111C278.055 201.111 277.288 201.341 276.607 201.801C275.93 202.256 275.368 202.886 274.919 203.693C274.47 204.494 274.161 205.418 273.99 206.463ZM291.061 213.273C289.839 213.273 288.831 212.989 288.036 212.42C287.24 211.847 286.683 211.054 286.365 210.043C286.047 209.026 285.999 207.855 286.22 206.531C286.442 205.213 286.879 204.043 287.533 203.02C288.186 201.991 288.993 201.187 289.953 200.608C290.913 200.023 291.956 199.73 293.081 199.73C293.791 199.73 294.456 199.861 295.075 200.122C295.695 200.378 296.22 200.773 296.652 201.307C297.089 201.835 297.393 202.503 297.564 203.31C297.734 204.111 297.729 205.06 297.547 206.156L297.428 206.906H287.2L287.413 205.568H296.098C296.24 204.727 296.2 203.972 295.979 203.301C295.757 202.631 295.379 202.099 294.845 201.707C294.317 201.31 293.661 201.111 292.876 201.111C292.075 201.111 291.317 201.335 290.601 201.784C289.891 202.233 289.288 202.818 288.794 203.54C288.305 204.256 287.99 205.02 287.848 205.832L287.678 206.838C287.496 207.946 287.518 208.875 287.746 209.625C287.973 210.369 288.385 210.932 288.982 211.312C289.578 211.693 290.342 211.884 291.274 211.884C291.899 211.884 292.464 211.787 292.97 211.594C293.476 211.401 293.916 211.142 294.291 210.818C294.666 210.489 294.967 210.128 295.195 209.736L296.55 210.205C296.26 210.756 295.851 211.264 295.322 211.73C294.8 212.196 294.178 212.571 293.456 212.855C292.74 213.134 291.942 213.273 291.061 213.273ZM309.404 213L307.631 199.909H309.225L310.529 210.707H310.64L315.532 199.909H317.143L318.413 210.682H318.532L323.424 199.909H325.043L318.907 213H317.339L316.009 202.287H315.847L310.972 213H309.404ZM329.433 213.298C328.643 213.298 327.947 213.145 327.344 212.838C326.742 212.526 326.293 212.077 325.998 211.491C325.708 210.901 325.629 210.185 325.759 209.344C325.873 208.696 326.089 208.151 326.407 207.707C326.731 207.264 327.14 206.901 327.634 206.616C328.129 206.327 328.697 206.099 329.339 205.935C329.981 205.77 330.68 205.645 331.435 205.56C332.174 205.469 332.805 205.389 333.327 205.321C333.85 205.253 334.256 205.145 334.546 204.997C334.836 204.849 335.009 204.611 335.066 204.281L335.117 203.974C335.265 203.082 335.129 202.381 334.708 201.869C334.288 201.352 333.583 201.094 332.594 201.094C331.651 201.094 330.833 201.304 330.14 201.724C329.452 202.139 328.941 202.625 328.606 203.182L327.259 202.662C327.668 201.946 328.171 201.375 328.768 200.949C329.364 200.517 330.004 200.207 330.685 200.02C331.367 199.827 332.04 199.73 332.705 199.73C333.205 199.73 333.714 199.795 334.231 199.926C334.748 200.057 335.211 200.284 335.62 200.608C336.035 200.926 336.339 201.372 336.532 201.946C336.731 202.514 336.759 203.236 336.617 204.111L335.134 213H333.617L333.967 210.929H333.873C333.634 211.315 333.305 211.69 332.884 212.054C332.469 212.418 331.972 212.716 331.393 212.949C330.813 213.182 330.16 213.298 329.433 213.298ZM329.816 211.909C330.623 211.909 331.353 211.73 332.006 211.372C332.665 211.014 333.205 210.54 333.626 209.949C334.052 209.352 334.325 208.696 334.444 207.98L334.759 206.088C334.634 206.196 334.43 206.293 334.146 206.378C333.867 206.463 333.552 206.54 333.2 206.608C332.853 206.67 332.504 206.724 332.151 206.77C331.805 206.815 331.498 206.855 331.231 206.889C330.475 206.98 329.816 207.122 329.254 207.315C328.697 207.509 328.251 207.776 327.915 208.116C327.58 208.452 327.37 208.884 327.285 209.412C327.154 210.207 327.327 210.824 327.805 211.261C328.288 211.693 328.958 211.909 329.816 211.909ZM349.67 202.781L348.212 203.156C348.138 202.764 348.002 202.412 347.803 202.099C347.61 201.781 347.329 201.531 346.96 201.349C346.596 201.162 346.119 201.068 345.528 201.068C344.641 201.068 343.877 201.284 343.235 201.716C342.593 202.142 342.218 202.687 342.11 203.352C342.019 203.909 342.136 204.361 342.46 204.707C342.789 205.054 343.34 205.327 344.113 205.526L346.022 206.011C347.079 206.284 347.832 206.71 348.281 207.29C348.735 207.869 348.891 208.602 348.749 209.489C348.624 210.227 348.309 210.881 347.803 211.449C347.303 212.017 346.661 212.463 345.877 212.787C345.099 213.111 344.229 213.273 343.269 213.273C341.979 213.273 340.965 212.983 340.227 212.403C339.494 211.824 339.102 210.989 339.05 209.898L340.576 209.557C340.621 210.33 340.886 210.915 341.369 211.312C341.857 211.71 342.545 211.909 343.431 211.909C344.442 211.909 345.292 211.679 345.979 211.219C346.667 210.759 347.062 210.19 347.164 209.514C347.261 208.98 347.161 208.537 346.866 208.185C346.576 207.832 346.082 207.571 345.383 207.401L343.346 206.889C342.249 206.611 341.474 206.176 341.019 205.585C340.57 204.989 340.42 204.253 340.567 203.378C340.687 202.656 340.988 202.023 341.471 201.477C341.954 200.932 342.565 200.506 343.303 200.199C344.042 199.886 344.849 199.73 345.724 199.73C346.928 199.73 347.846 200.003 348.477 200.548C349.107 201.088 349.505 201.832 349.67 202.781ZM358.54 213L361.438 195.545H362.963L361.838 202.406H361.974C362.207 202.014 362.517 201.611 362.903 201.196C363.295 200.781 363.778 200.435 364.352 200.156C364.926 199.872 365.614 199.73 366.415 199.73C367.489 199.73 368.384 200.014 369.099 200.582C369.821 201.145 370.324 201.935 370.608 202.952C370.892 203.963 370.923 205.142 370.702 206.489C370.474 207.841 370.051 209.026 369.432 210.043C368.813 211.06 368.051 211.852 367.148 212.42C366.244 212.989 365.259 213.273 364.19 213.273C363.395 213.273 362.753 213.131 362.264 212.847C361.781 212.562 361.412 212.213 361.156 211.798C360.906 211.378 360.724 210.969 360.611 210.571H360.423L360.014 213H358.54ZM361.131 206.463C360.96 207.52 360.96 208.457 361.131 209.276C361.307 210.088 361.651 210.727 362.162 211.193C362.679 211.653 363.361 211.884 364.207 211.884C365.077 211.884 365.852 211.645 366.534 211.168C367.222 210.685 367.79 210.034 368.239 209.216C368.693 208.398 369.006 207.48 369.176 206.463C369.341 205.457 369.338 204.551 369.168 203.744C368.997 202.937 368.653 202.298 368.136 201.827C367.619 201.349 366.923 201.111 366.048 201.111C365.196 201.111 364.429 201.341 363.747 201.801C363.071 202.256 362.509 202.886 362.06 203.693C361.611 204.494 361.301 205.418 361.131 206.463ZM377.358 195.545L374.46 213H372.943L375.841 195.545H377.358ZM383.622 213.273C382.474 213.273 381.509 212.983 380.724 212.403C379.94 211.818 379.386 211.009 379.062 209.974C378.739 208.94 378.685 207.747 378.901 206.395C379.116 205.077 379.545 203.918 380.188 202.918C380.835 201.912 381.631 201.131 382.574 200.574C383.517 200.011 384.543 199.73 385.651 199.73C386.804 199.73 387.77 200.023 388.548 200.608C389.332 201.193 389.886 202.003 390.21 203.037C390.54 204.071 390.597 205.267 390.381 206.625C390.165 207.938 389.733 209.094 389.085 210.094C388.438 211.088 387.642 211.866 386.699 212.429C385.761 212.991 384.736 213.273 383.622 213.273ZM383.639 211.884C384.571 211.884 385.401 211.636 386.128 211.142C386.861 210.642 387.466 209.977 387.943 209.148C388.42 208.312 388.741 207.395 388.906 206.395C389.06 205.44 389.043 204.562 388.855 203.761C388.668 202.96 388.307 202.318 387.773 201.835C387.239 201.352 386.528 201.111 385.642 201.111C384.716 201.111 383.886 201.364 383.153 201.869C382.42 202.369 381.815 203.04 381.338 203.881C380.861 204.716 380.543 205.631 380.384 206.625C380.224 207.585 380.236 208.463 380.418 209.259C380.605 210.054 380.966 210.69 381.5 211.168C382.04 211.645 382.753 211.884 383.639 211.884ZM397.734 213.273C396.552 213.273 395.577 212.98 394.81 212.395C394.043 211.81 393.506 211.009 393.2 209.991C392.898 208.969 392.856 207.81 393.072 206.514C393.288 205.196 393.722 204.028 394.376 203.011C395.029 201.989 395.836 201.187 396.796 200.608C397.762 200.023 398.816 199.73 399.958 199.73C400.839 199.73 401.606 199.901 402.259 200.241C402.913 200.577 403.418 201.051 403.776 201.665C404.134 202.273 404.305 202.983 404.288 203.795H402.754C402.714 203.04 402.438 202.403 401.927 201.886C401.421 201.369 400.705 201.111 399.779 201.111C398.933 201.111 398.148 201.338 397.427 201.793C396.705 202.241 396.094 202.869 395.594 203.676C395.1 204.477 394.768 205.406 394.597 206.463C394.415 207.526 394.433 208.466 394.648 209.284C394.864 210.097 395.251 210.733 395.808 211.193C396.37 211.653 397.08 211.884 397.938 211.884C398.523 211.884 399.075 211.776 399.592 211.56C400.109 211.338 400.566 211.026 400.964 210.622C401.362 210.213 401.665 209.733 401.876 209.182H403.41C403.154 209.977 402.751 210.682 402.2 211.295C401.654 211.909 401.001 212.392 400.239 212.744C399.478 213.097 398.643 213.273 397.734 213.273ZM408.212 208.057L408.519 206.054H408.86L416.011 199.909H417.954L410.888 205.977L410.752 206.003L408.212 208.057ZM406.013 213L408.911 195.545H410.428L407.531 213H406.013ZM414.195 213L409.977 206.276L411.212 205.227L416.113 213H414.195ZM423.342 213.273C422.121 213.273 421.112 212.989 420.317 212.42C419.521 211.847 418.964 211.054 418.646 210.043C418.328 209.026 418.28 207.855 418.501 206.531C418.723 205.213 419.161 204.043 419.814 203.02C420.467 201.991 421.274 201.187 422.234 200.608C423.195 200.023 424.237 199.73 425.362 199.73C426.072 199.73 426.737 199.861 427.357 200.122C427.976 200.378 428.501 200.773 428.933 201.307C429.371 201.835 429.675 202.503 429.845 203.31C430.016 204.111 430.01 205.06 429.828 206.156L429.709 206.906H419.482L419.695 205.568H428.379C428.521 204.727 428.482 203.972 428.26 203.301C428.038 202.631 427.661 202.099 427.126 201.707C426.598 201.31 425.942 201.111 425.158 201.111C424.357 201.111 423.598 201.335 422.882 201.784C422.172 202.233 421.57 202.818 421.075 203.54C420.587 204.256 420.271 205.02 420.129 205.832L419.959 206.838C419.777 207.946 419.8 208.875 420.027 209.625C420.254 210.369 420.666 210.932 421.263 211.312C421.859 211.693 422.624 211.884 423.555 211.884C424.18 211.884 424.746 211.787 425.251 211.594C425.757 211.401 426.197 211.142 426.572 210.818C426.947 210.489 427.249 210.128 427.476 209.736L428.831 210.205C428.541 210.756 428.132 211.264 427.604 211.73C427.081 212.196 426.459 212.571 425.737 212.855C425.021 213.134 424.223 213.273 423.342 213.273ZM436.717 213.273C435.643 213.273 434.748 212.989 434.032 212.42C433.316 211.852 432.816 211.06 432.532 210.043C432.248 209.026 432.217 207.841 432.438 206.489C432.665 205.142 433.089 203.963 433.708 202.952C434.333 201.935 435.097 201.145 436.001 200.582C436.91 200.014 437.901 199.73 438.975 199.73C439.776 199.73 440.415 199.872 440.893 200.156C441.376 200.435 441.742 200.781 441.992 201.196C442.242 201.611 442.421 202.014 442.529 202.406H442.665L443.808 195.545H445.333L442.435 213H440.961L441.37 210.571H441.183C440.938 210.969 440.617 211.378 440.219 211.798C439.827 212.213 439.344 212.562 438.771 212.847C438.197 213.131 437.512 213.273 436.717 213.273ZM437.049 211.884C437.896 211.884 438.66 211.653 439.342 211.193C440.029 210.727 440.603 210.088 441.063 209.276C441.529 208.457 441.847 207.52 442.018 206.463C442.194 205.418 442.191 204.494 442.009 203.693C441.827 202.886 441.475 202.256 440.952 201.801C440.43 201.341 439.739 201.111 438.881 201.111C438.012 201.111 437.239 201.349 436.563 201.827C435.887 202.298 435.327 202.937 434.884 203.744C434.447 204.551 434.143 205.457 433.972 206.463C433.808 207.48 433.808 208.398 433.972 209.216C434.137 210.034 434.472 210.685 434.978 211.168C435.489 211.645 436.18 211.884 437.049 211.884ZM453.813 213L456.711 195.545H458.237L457.112 202.406H457.248C457.481 202.014 457.79 201.611 458.177 201.196C458.569 200.781 459.052 200.435 459.626 200.156C460.2 199.872 460.887 199.73 461.688 199.73C462.762 199.73 463.657 200.014 464.373 200.582C465.094 201.145 465.597 201.935 465.881 202.952C466.165 203.963 466.197 205.142 465.975 206.489C465.748 207.841 465.325 209.026 464.705 210.043C464.086 211.06 463.325 211.852 462.421 212.42C461.518 212.989 460.532 213.273 459.464 213.273C458.668 213.273 458.026 213.131 457.538 212.847C457.055 212.562 456.685 212.213 456.43 211.798C456.18 211.378 455.998 210.969 455.884 210.571H455.697L455.288 213H453.813ZM456.404 206.463C456.234 207.52 456.234 208.457 456.404 209.276C456.58 210.088 456.924 210.727 457.435 211.193C457.952 211.653 458.634 211.884 459.481 211.884C460.35 211.884 461.126 211.645 461.808 211.168C462.495 210.685 463.063 210.034 463.512 209.216C463.967 208.398 464.279 207.48 464.45 206.463C464.614 205.457 464.612 204.551 464.441 203.744C464.271 202.937 463.927 202.298 463.41 201.827C462.893 201.349 462.197 201.111 461.322 201.111C460.469 201.111 459.702 201.341 459.021 201.801C458.344 202.256 457.782 202.886 457.333 203.693C456.884 204.494 456.575 205.418 456.404 206.463ZM468.004 217.909C467.702 217.909 467.424 217.881 467.168 217.824C466.918 217.767 466.722 217.705 466.58 217.636L467.219 216.298C467.697 216.463 468.134 216.514 468.532 216.452C468.935 216.395 469.319 216.202 469.683 215.872C470.046 215.543 470.404 215.051 470.756 214.398L471.472 213.068L468.881 199.909H470.458L472.504 211.023H472.614L478.35 199.909H480.063L472.009 215.054C471.663 215.707 471.279 216.244 470.859 216.665C470.444 217.085 469.995 217.398 469.512 217.602C469.035 217.807 468.532 217.909 468.004 217.909ZM487.224 213L487.438 211.798L499.565 196.977H489.849L490.071 195.545H501.713L501.526 196.747L489.372 211.568H499.139L498.901 213H487.224ZM507.694 213.273C506.472 213.273 505.464 212.989 504.668 212.42C503.873 211.847 503.316 211.054 502.998 210.043C502.68 209.026 502.631 207.855 502.853 206.531C503.075 205.213 503.512 204.043 504.165 203.02C504.819 201.991 505.626 201.187 506.586 200.608C507.546 200.023 508.589 199.73 509.714 199.73C510.424 199.73 511.089 199.861 511.708 200.122C512.327 200.378 512.853 200.773 513.285 201.307C513.722 201.835 514.026 202.503 514.197 203.31C514.367 204.111 514.362 205.06 514.18 206.156L514.06 206.906H503.833L504.046 205.568H512.731C512.873 204.727 512.833 203.972 512.612 203.301C512.39 202.631 512.012 202.099 511.478 201.707C510.95 201.31 510.293 201.111 509.509 201.111C508.708 201.111 507.95 201.335 507.234 201.784C506.523 202.233 505.921 202.818 505.427 203.54C504.938 204.256 504.623 205.02 504.481 205.832L504.31 206.838C504.129 207.946 504.151 208.875 504.379 209.625C504.606 210.369 505.018 210.932 505.614 211.312C506.211 211.693 506.975 211.884 507.907 211.884C508.532 211.884 509.097 211.787 509.603 211.594C510.109 211.401 510.549 211.142 510.924 210.818C511.299 210.489 511.6 210.128 511.827 209.736L513.183 210.205C512.893 210.756 512.484 211.264 511.955 211.73C511.433 212.196 510.81 212.571 510.089 212.855C509.373 213.134 508.575 213.273 507.694 213.273ZM519.253 204.818L517.898 213H516.381L518.562 199.909H520.037L519.696 201.963H519.832C520.241 201.293 520.807 200.756 521.528 200.352C522.256 199.943 523.099 199.739 524.06 199.739C524.935 199.739 525.673 199.923 526.276 200.293C526.884 200.656 527.315 201.193 527.571 201.903C527.832 202.614 527.878 203.486 527.707 204.52L526.284 213H524.767L526.165 204.614C526.341 203.545 526.185 202.699 525.696 202.074C525.213 201.443 524.466 201.128 523.455 201.128C522.767 201.128 522.128 201.276 521.537 201.571C520.952 201.866 520.457 202.293 520.054 202.849C519.651 203.401 519.384 204.057 519.253 204.818ZM534.967 213.273C533.893 213.273 532.998 212.989 532.282 212.42C531.566 211.852 531.066 211.06 530.782 210.043C530.498 209.026 530.467 207.841 530.688 206.489C530.915 205.142 531.339 203.963 531.958 202.952C532.583 201.935 533.347 201.145 534.251 200.582C535.16 200.014 536.151 199.73 537.225 199.73C538.026 199.73 538.665 199.872 539.143 200.156C539.626 200.435 539.992 200.781 540.242 201.196C540.492 201.611 540.671 202.014 540.779 202.406H540.915L542.058 195.545H543.583L540.685 213H539.211L539.62 210.571H539.433C539.188 210.969 538.867 211.378 538.469 211.798C538.077 212.213 537.594 212.562 537.021 212.847C536.447 213.131 535.762 213.273 534.967 213.273ZM535.299 211.884C536.146 211.884 536.91 211.653 537.592 211.193C538.279 210.727 538.853 210.088 539.313 209.276C539.779 208.457 540.097 207.52 540.268 206.463C540.444 205.418 540.441 204.494 540.259 203.693C540.077 202.886 539.725 202.256 539.202 201.801C538.68 201.341 537.989 201.111 537.131 201.111C536.262 201.111 535.489 201.349 534.813 201.827C534.137 202.298 533.577 202.937 533.134 203.744C532.697 204.551 532.393 205.457 532.222 206.463C532.058 207.48 532.058 208.398 532.222 209.216C532.387 210.034 532.722 210.685 533.228 211.168C533.739 211.645 534.43 211.884 535.299 211.884ZM550.146 213.273C548.998 213.273 548.032 212.983 547.248 212.403C546.464 211.818 545.91 211.009 545.586 209.974C545.262 208.94 545.208 207.747 545.424 206.395C545.64 205.077 546.069 203.918 546.711 202.918C547.359 201.912 548.154 201.131 549.097 200.574C550.04 200.011 551.066 199.73 552.174 199.73C553.327 199.73 554.293 200.023 555.072 200.608C555.856 201.193 556.41 202.003 556.734 203.037C557.063 204.071 557.12 205.267 556.904 206.625C556.688 207.938 556.256 209.094 555.609 210.094C554.961 211.088 554.165 211.866 553.222 212.429C552.285 212.991 551.259 213.273 550.146 213.273ZM550.163 211.884C551.094 211.884 551.924 211.636 552.651 211.142C553.384 210.642 553.989 209.977 554.467 209.148C554.944 208.312 555.265 207.395 555.43 206.395C555.583 205.44 555.566 204.562 555.379 203.761C555.191 202.96 554.83 202.318 554.296 201.835C553.762 201.352 553.052 201.111 552.165 201.111C551.239 201.111 550.41 201.364 549.677 201.869C548.944 202.369 548.339 203.04 547.862 203.881C547.384 204.716 547.066 205.631 546.907 206.625C546.748 207.585 546.759 208.463 546.941 209.259C547.129 210.054 547.489 210.69 548.023 211.168C548.563 211.645 549.276 211.884 550.163 211.884Z" fill="#6C6C6C"/>
<rect x="115.5" y="271.5" width="539" height="189" rx="7.5" fill="#FDFDFD" stroke="#EFEFEF"/>
<path d="M299.647 317.848L296.081 323.434L296.618 322.091V323.745C296.618 324.468 296.629 325.016 296.65 325.389C296.672 325.754 296.69 325.972 296.704 326.044L297.907 326.259L297.875 327H293.653L293.6 326.259L294.803 326.044C294.817 325.972 294.835 325.754 294.856 325.389C294.878 325.016 294.889 324.468 294.889 323.745V322.091L295.308 323.434L291.87 317.848L291.011 317.611L291.043 316.881H294.921L294.975 317.611L293.922 317.848L296.36 321.833H296.049L298.412 317.848L297.198 317.611L297.252 316.881H300.475L300.528 317.611L299.647 317.848ZM305.029 327.129C303.883 327.129 302.96 326.774 302.258 326.065C301.556 325.356 301.205 324.44 301.205 323.315C301.205 322.513 301.384 321.822 301.742 321.242C302.1 320.655 302.573 320.204 303.16 319.889C303.755 319.566 304.403 319.405 305.104 319.405C306.2 319.405 307.081 319.756 307.747 320.458C308.42 321.16 308.757 322.076 308.757 323.208C308.757 323.946 308.592 324.612 308.263 325.206C307.933 325.793 307.486 326.262 306.92 326.613C306.361 326.957 305.731 327.129 305.029 327.129ZM305.201 326.248C305.738 326.248 306.164 326.008 306.479 325.528C306.795 325.041 306.952 324.397 306.952 323.595C306.952 322.599 306.762 321.797 306.383 321.188C306.003 320.573 305.502 320.265 304.879 320.265C304.32 320.265 303.873 320.512 303.536 321.006C303.2 321.493 303.031 322.148 303.031 322.972C303.031 323.924 303.235 324.708 303.644 325.324C304.052 325.94 304.571 326.248 305.201 326.248ZM317.544 325.679L318.64 325.958V326.57L316.169 327.183L315.857 326.968L315.879 325.851L315.825 325.829C315.489 326.323 315.141 326.663 314.783 326.85C314.425 327.036 314.042 327.129 313.634 327.129C312.839 327.129 312.184 326.889 311.668 326.409C311.152 325.922 310.895 325.188 310.895 324.207V322.725C310.895 322.452 310.887 322.173 310.873 321.887C310.859 321.6 310.837 321.307 310.809 321.006L309.638 320.759V320.125L312.237 319.438L312.603 319.728C312.574 320.071 312.552 320.458 312.538 320.888C312.531 321.317 312.527 321.765 312.527 322.23L312.517 323.992C312.517 324.665 312.667 325.149 312.968 325.442C313.276 325.729 313.68 325.872 314.182 325.872C314.461 325.872 314.747 325.797 315.041 325.646C315.342 325.489 315.603 325.235 315.825 324.884V322.972C315.825 322.213 315.797 321.557 315.739 321.006L314.482 320.759V320.125L317.157 319.438L317.458 319.695C317.444 320.125 317.433 320.526 317.426 320.898C317.426 321.264 317.426 321.69 317.426 322.177V323.455C317.426 323.978 317.437 324.425 317.458 324.798C317.487 325.17 317.515 325.464 317.544 325.679ZM325.676 327.129C325.239 327.129 324.799 327.082 324.354 326.989C323.91 326.896 323.538 326.764 323.237 326.592L323.151 324.69H324.075L324.44 325.937C324.82 326.201 325.275 326.334 325.805 326.334C326.184 326.334 326.485 326.248 326.707 326.076C326.929 325.897 327.04 325.661 327.04 325.367C327.04 325.074 326.933 324.823 326.718 324.615C326.51 324.408 326.091 324.175 325.461 323.917C324.637 323.58 324.057 323.244 323.721 322.907C323.384 322.563 323.216 322.127 323.216 321.597C323.216 320.959 323.502 320.437 324.075 320.028C324.648 319.613 325.389 319.405 326.299 319.405C327.036 319.405 327.67 319.52 328.2 319.749L328.383 321.597H327.47L327.072 320.404C326.814 320.254 326.51 320.179 326.159 320.179C325.772 320.179 325.465 320.272 325.235 320.458C325.006 320.637 324.892 320.866 324.892 321.146C324.892 321.461 325.017 321.722 325.268 321.93C325.525 322.137 325.991 322.388 326.664 322.682C327.423 323.011 327.957 323.348 328.265 323.691C328.58 324.028 328.737 324.443 328.737 324.938C328.737 325.589 328.451 326.119 327.878 326.527C327.305 326.928 326.571 327.129 325.676 327.129ZM329.769 327L329.715 326.334L330.789 326.055C330.811 325.89 330.832 325.535 330.854 324.991C330.875 324.447 330.886 323.756 330.886 322.918V320.759C330.886 320.236 330.882 319.685 330.875 319.104C330.868 318.517 330.857 317.991 330.843 317.525C330.836 317.06 330.821 316.738 330.8 316.559L329.521 316.387L329.489 315.764L332.196 315.022L332.572 315.28C332.551 315.753 332.533 316.229 332.519 316.709C332.504 317.182 332.493 317.729 332.486 318.353C332.479 318.968 332.468 319.738 332.454 320.662L332.508 320.673C333.245 319.828 334.073 319.405 334.989 319.405C335.648 319.405 336.228 319.66 336.729 320.168C337.238 320.669 337.492 321.432 337.492 322.456V324.282C337.492 324.683 337.503 325.052 337.524 325.389C337.546 325.718 337.571 325.94 337.6 326.055L338.663 326.334L338.609 327H334.871L334.817 326.334L335.816 326.055C335.831 325.926 335.845 325.718 335.859 325.432C335.881 325.145 335.892 324.791 335.892 324.368V322.639C335.892 321.937 335.723 321.428 335.387 321.113C335.05 320.798 334.671 320.641 334.248 320.641C333.532 320.641 332.945 320.959 332.486 321.597V324.164C332.486 325.195 332.515 325.826 332.572 326.055L333.625 326.334L333.593 327H329.769ZM343.486 327.129C342.34 327.129 341.417 326.774 340.715 326.065C340.013 325.356 339.662 324.44 339.662 323.315C339.662 322.513 339.841 321.822 340.199 321.242C340.557 320.655 341.03 320.204 341.617 319.889C342.212 319.566 342.86 319.405 343.562 319.405C344.657 319.405 345.538 319.756 346.204 320.458C346.877 321.16 347.214 322.076 347.214 323.208C347.214 323.946 347.049 324.612 346.72 325.206C346.39 325.793 345.943 326.262 345.377 326.613C344.818 326.957 344.188 327.129 343.486 327.129ZM343.658 326.248C344.195 326.248 344.621 326.008 344.937 325.528C345.252 325.041 345.409 324.397 345.409 323.595C345.409 322.599 345.219 321.797 344.84 321.188C344.46 320.573 343.959 320.265 343.336 320.265C342.777 320.265 342.33 320.512 341.993 321.006C341.657 321.493 341.488 322.148 341.488 322.972C341.488 323.924 341.692 324.708 342.101 325.324C342.509 325.94 343.028 326.248 343.658 326.248ZM356.001 325.679L357.097 325.958V326.57L354.626 327.183L354.314 326.968L354.336 325.851L354.282 325.829C353.946 326.323 353.598 326.663 353.24 326.85C352.882 327.036 352.499 327.129 352.091 327.129C351.296 327.129 350.641 326.889 350.125 326.409C349.609 325.922 349.352 325.188 349.352 324.207V322.725C349.352 322.452 349.344 322.173 349.33 321.887C349.316 321.6 349.294 321.307 349.266 321.006L348.095 320.759V320.125L350.694 319.438L351.06 319.728C351.031 320.071 351.009 320.458 350.995 320.888C350.988 321.317 350.984 321.765 350.984 322.23L350.974 323.992C350.974 324.665 351.124 325.149 351.425 325.442C351.733 325.729 352.137 325.872 352.639 325.872C352.918 325.872 353.204 325.797 353.498 325.646C353.799 325.489 354.06 325.235 354.282 324.884V322.972C354.282 322.213 354.254 321.557 354.196 321.006L352.939 320.759V320.125L355.614 319.438L355.915 319.695C355.901 320.125 355.89 320.526 355.883 320.898C355.883 321.264 355.883 321.69 355.883 322.177V323.455C355.883 323.978 355.894 324.425 355.915 324.798C355.944 325.17 355.972 325.464 356.001 325.679ZM357.859 327L357.806 326.312L358.934 326.055C358.955 325.897 358.977 325.546 358.998 325.002C359.02 324.451 359.03 323.756 359.03 322.918V320.748C359.03 320.189 359.027 319.62 359.02 319.04C359.012 318.453 359.002 317.934 358.987 317.482C358.98 317.031 358.966 316.723 358.944 316.559L357.666 316.387L357.634 315.764L360.373 315.022L360.76 315.28C360.745 315.774 360.731 316.258 360.717 316.73C360.702 317.196 360.692 317.719 360.685 318.299C360.677 318.879 360.674 319.584 360.674 320.415L360.652 323.111C360.652 323.835 360.66 324.476 360.674 325.034C360.688 325.586 360.71 325.926 360.738 326.055L361.855 326.312L361.823 327H357.859ZM368.827 327.183L368.494 326.968L368.516 325.851L368.462 325.829C368.132 326.309 367.789 326.646 367.431 326.839C367.073 327.032 366.697 327.129 366.303 327.129C365.665 327.129 365.085 326.979 364.562 326.678C364.047 326.37 363.639 325.947 363.338 325.41C363.037 324.873 362.887 324.25 362.887 323.541C362.887 322.703 363.076 321.976 363.456 321.36C363.843 320.737 364.337 320.257 364.938 319.921C365.54 319.584 366.174 319.416 366.84 319.416C367.126 319.416 367.42 319.448 367.721 319.513C368.021 319.577 368.276 319.677 368.483 319.813C368.483 319.534 368.48 319.173 368.473 318.729C368.465 318.277 368.455 317.851 368.44 317.45C368.433 317.042 368.423 316.766 368.408 316.623L367.087 316.397L367.044 315.764L369.826 315.022L370.181 315.28C370.152 315.996 370.127 316.677 370.105 317.321C370.091 317.966 370.084 318.643 370.084 319.352L370.062 323.337C370.062 323.924 370.077 324.415 370.105 324.809C370.141 325.202 370.166 325.493 370.181 325.679L371.309 325.958V326.57L368.827 327.183ZM366.861 325.829C367.148 325.829 367.424 325.765 367.688 325.636C367.953 325.5 368.218 325.267 368.483 324.938V321.199C368.283 320.863 368.036 320.623 367.742 320.479C367.449 320.336 367.155 320.265 366.861 320.265C366.195 320.265 365.665 320.519 365.271 321.027C364.878 321.536 364.681 322.205 364.681 323.036C364.681 323.924 364.892 324.612 365.314 325.099C365.737 325.586 366.253 325.829 366.861 325.829ZM376.271 326.538C376.3 325.944 376.314 325.414 376.314 324.948C376.322 324.476 376.325 323.971 376.325 323.434V320.748C376.325 320.168 376.322 319.584 376.314 318.997C376.307 318.403 376.297 317.883 376.282 317.439C376.275 316.988 376.264 316.688 376.25 316.537L374.982 316.387L374.95 315.764L377.646 315.022L378.033 315.28C378.012 315.76 377.994 316.24 377.979 316.72C377.965 317.2 377.951 317.751 377.937 318.374C377.929 318.99 377.915 319.756 377.894 320.673L377.947 320.694C378.212 320.336 378.556 320.032 378.979 319.781C379.408 319.531 379.867 319.405 380.354 319.405C380.926 319.405 381.456 319.545 381.943 319.824C382.43 320.104 382.821 320.508 383.114 321.038C383.415 321.561 383.565 322.195 383.565 322.939C383.565 323.749 383.372 324.468 382.985 325.099C382.599 325.729 382.072 326.227 381.406 326.592C380.747 326.95 380.003 327.129 379.172 327.129C378.649 327.129 378.141 327.075 377.646 326.968C377.152 326.86 376.694 326.717 376.271 326.538ZM379.559 326.141C380.196 326.141 380.722 325.901 381.138 325.421C381.553 324.941 381.764 324.232 381.771 323.294C381.779 322.406 381.567 321.754 381.138 321.339C380.715 320.924 380.207 320.716 379.612 320.716C379.297 320.716 378.989 320.784 378.688 320.92C378.395 321.056 378.141 321.264 377.926 321.543V325.625C378.133 325.783 378.373 325.908 378.646 326.001C378.925 326.094 379.229 326.141 379.559 326.141ZM388.539 327.129C387.852 327.129 387.232 326.975 386.681 326.667C386.136 326.359 385.703 325.926 385.381 325.367C385.066 324.809 384.908 324.153 384.908 323.401C384.908 322.592 385.08 321.887 385.424 321.285C385.768 320.684 386.215 320.218 386.767 319.889C387.325 319.559 387.923 319.398 388.561 319.405C389.513 319.412 390.243 319.72 390.752 320.329C391.268 320.931 391.525 321.747 391.525 322.778V323.122H386.315V322.316H390.215L389.989 322.606V322.177C389.989 321.547 389.85 321.06 389.57 320.716C389.291 320.372 388.908 320.2 388.421 320.2C387.948 320.2 387.529 320.408 387.164 320.823C386.806 321.231 386.627 321.851 386.627 322.682V322.939C386.627 323.835 386.853 324.54 387.304 325.056C387.762 325.571 388.36 325.829 389.098 325.829C389.499 325.829 389.857 325.754 390.172 325.604C390.487 325.453 390.795 325.195 391.096 324.83L391.558 325.26C391.228 325.89 390.806 326.359 390.29 326.667C389.774 326.975 389.191 327.129 388.539 327.129ZM404.33 327.064L401.591 320.49L400.731 320.211L400.764 319.545H404.266L404.298 320.211L403.396 320.49L405.329 325.399H404.878L406.865 320.49L405.974 320.211L406.006 319.545H408.777L408.81 320.211L408.004 320.49L404.953 327.064H404.33ZM399.174 327.064L396.295 320.49L395.489 320.211L395.521 319.545H399.023L399.056 320.211L398.196 320.49L400.248 325.399H399.732L401.913 320.383L402.439 321.468L399.775 327.064H399.174ZM413.268 327.129C412.122 327.129 411.198 326.774 410.496 326.065C409.794 325.356 409.443 324.44 409.443 323.315C409.443 322.513 409.622 321.822 409.98 321.242C410.339 320.655 410.811 320.204 411.398 319.889C411.993 319.566 412.641 319.405 413.343 319.405C414.438 319.405 415.319 319.756 415.985 320.458C416.659 321.16 416.995 322.076 416.995 323.208C416.995 323.946 416.83 324.612 416.501 325.206C416.172 325.793 415.724 326.262 415.158 326.613C414.6 326.957 413.969 327.129 413.268 327.129ZM413.439 326.248C413.977 326.248 414.403 326.008 414.718 325.528C415.033 325.041 415.19 324.397 415.19 323.595C415.19 322.599 415.001 321.797 414.621 321.188C414.242 320.573 413.74 320.265 413.117 320.265C412.559 320.265 412.111 320.512 411.774 321.006C411.438 321.493 411.27 322.148 411.27 322.972C411.27 323.924 411.474 324.708 411.882 325.324C412.29 325.94 412.809 326.248 413.439 326.248ZM418.145 327L418.102 326.334L419.165 326.055C419.179 325.976 419.194 325.793 419.208 325.507C419.229 325.213 419.244 324.798 419.251 324.261L419.272 322.939C419.272 322.567 419.255 322.213 419.219 321.876C419.19 321.539 419.154 321.249 419.111 321.006L418.016 320.759V320.125L420.551 319.438L420.852 319.695L420.787 321.113L420.841 321.124C421.177 320.479 421.521 320.043 421.872 319.813C422.223 319.577 422.563 319.459 422.893 319.459C423.179 319.459 423.415 319.531 423.602 319.674C423.795 319.817 423.892 320.035 423.892 320.329C423.892 320.637 423.788 320.873 423.58 321.038C423.38 321.203 423.125 321.285 422.817 321.285C422.373 321.285 421.962 321.095 421.582 320.716L421.947 320.802C421.532 321.067 421.167 321.532 420.852 322.198L420.873 323.713C420.887 324.214 420.902 324.69 420.916 325.142C420.938 325.586 420.959 325.89 420.98 326.055L422.474 326.302L422.441 327H418.145ZM424.729 327L424.676 326.334L425.664 326.055C425.686 325.89 425.707 325.539 425.729 325.002C425.75 324.465 425.761 323.853 425.761 323.165V320.748C425.761 320.182 425.754 319.613 425.739 319.04C425.732 318.46 425.725 317.944 425.718 317.493C425.711 317.042 425.703 316.73 425.696 316.559L424.418 316.387L424.386 315.764L427.071 315.022L427.469 315.28C427.44 315.774 427.419 316.261 427.404 316.741C427.39 317.214 427.379 317.733 427.372 318.299C427.365 318.865 427.361 319.531 427.361 320.297L427.351 324.422C427.351 324.866 427.358 325.231 427.372 325.518C427.394 325.797 427.408 325.976 427.415 326.055L428.489 326.334L428.457 327H424.729ZM432.969 327H430.713C430.512 326.735 430.348 326.531 430.219 326.388C430.09 326.237 429.961 326.094 429.832 325.958L427.576 323.466H427.104L427.125 322.993L427.727 322.811L430.197 320.437L429.059 320.232L429.091 319.545H432.657L432.711 320.232L431.572 320.437L428.554 323.09L428.779 322.424L431.293 325.163C431.458 325.342 431.633 325.528 431.819 325.722C432.013 325.915 432.167 326.062 432.281 326.162L433.022 326.312L432.969 327ZM433.377 327L433.334 326.312L434.483 326.055C434.498 325.997 434.512 325.833 434.526 325.561C434.548 325.281 434.562 324.848 434.569 324.261V323.036C434.569 322.205 434.523 321.529 434.43 321.006L433.28 320.759V320.125L435.966 319.438L436.299 319.717C436.263 320.068 436.234 320.419 436.213 320.77C436.199 321.12 436.191 321.525 436.191 321.983V324.164C436.191 324.644 436.199 325.059 436.213 325.41C436.234 325.754 436.263 325.969 436.299 326.055L437.448 326.312L437.395 327H433.377ZM435.407 317.665C435.056 317.665 434.77 317.554 434.548 317.332C434.326 317.11 434.215 316.841 434.215 316.526C434.215 316.211 434.326 315.943 434.548 315.721C434.77 315.499 435.056 315.388 435.407 315.388C435.751 315.388 436.027 315.499 436.234 315.721C436.449 315.943 436.557 316.211 436.557 316.526C436.557 316.841 436.449 317.11 436.234 317.332C436.027 317.554 435.751 317.665 435.407 317.665ZM438.222 327L438.168 326.334L439.242 326.055C439.257 325.969 439.271 325.786 439.285 325.507C439.307 325.22 439.321 324.805 439.328 324.261L439.339 322.939C439.339 322.567 439.325 322.213 439.296 321.876C439.267 321.539 439.231 321.249 439.188 321.006L438.082 320.759V320.125L440.639 319.438L440.993 319.728L440.896 320.662L440.939 320.673C441.699 319.828 442.533 319.405 443.442 319.405C444.101 319.405 444.681 319.66 445.183 320.168C445.691 320.669 445.945 321.421 445.945 322.424V324.282C445.945 324.683 445.952 325.056 445.967 325.399C445.988 325.736 446.017 325.954 446.053 326.055L447.116 326.334L447.062 327H443.303L443.271 326.334L444.27 326.055C444.284 325.926 444.298 325.718 444.312 325.432C444.334 325.145 444.345 324.791 444.345 324.368V322.639C444.345 321.915 444.173 321.403 443.829 321.103C443.485 320.795 443.109 320.641 442.701 320.641C441.985 320.641 441.398 320.959 440.939 321.597V324.164C440.939 324.651 440.947 325.063 440.961 325.399C440.982 325.736 441.004 325.954 441.025 326.055L442.1 326.334L442.046 327H438.222ZM451.478 330.921C450.375 330.921 449.505 330.749 448.867 330.405C448.23 330.062 447.911 329.603 447.911 329.03C447.911 328.278 448.595 327.605 449.963 327.011L450.65 327.129C450.307 327.344 450.035 327.591 449.834 327.87C449.641 328.149 449.544 328.45 449.544 328.772C449.544 329.202 449.723 329.535 450.081 329.771C450.446 330.015 450.948 330.137 451.585 330.137C452.287 330.137 452.863 329.983 453.314 329.675C453.766 329.374 453.991 328.987 453.991 328.515C453.991 328.157 453.859 327.888 453.594 327.709C453.336 327.537 452.903 327.426 452.294 327.376L450.36 327.215L450.135 327.129C449.662 327.129 449.272 327.021 448.964 326.807C448.663 326.585 448.513 326.305 448.513 325.969C448.513 325.639 448.67 325.324 448.985 325.023C449.308 324.723 449.748 324.465 450.307 324.25L450.543 324.572C450.163 324.852 449.974 325.088 449.974 325.281C449.974 325.611 450.217 325.793 450.704 325.829L453.046 326.076C454.7 326.227 455.527 326.9 455.527 328.096C455.527 328.626 455.348 329.102 454.99 329.524C454.639 329.954 454.156 330.294 453.54 330.545C452.931 330.796 452.244 330.921 451.478 330.921ZM451.596 324.905C450.643 324.905 449.866 324.662 449.265 324.175C448.663 323.681 448.362 323.05 448.362 322.284C448.362 321.733 448.506 321.242 448.792 320.812C449.078 320.376 449.465 320.032 449.952 319.781C450.446 319.531 451.001 319.405 451.617 319.405C452.534 319.405 453.289 319.667 453.884 320.189C454.485 320.712 454.786 321.368 454.786 322.155C454.786 322.943 454.482 323.598 453.873 324.121C453.271 324.644 452.512 324.905 451.596 324.905ZM451.703 324.11C452.133 324.11 452.477 323.946 452.734 323.616C452.992 323.28 453.121 322.828 453.121 322.263C453.121 321.632 452.981 321.128 452.702 320.748C452.423 320.368 452.054 320.179 451.596 320.179C451.166 320.179 450.815 320.361 450.543 320.727C450.271 321.085 450.135 321.55 450.135 322.123C450.135 322.717 450.278 323.197 450.564 323.562C450.858 323.928 451.238 324.11 451.703 324.11ZM455.807 320.759L453.647 320.587L452.992 319.867L455.807 319.577V320.759ZM463.906 327.129C462.76 327.129 461.837 326.774 461.135 326.065C460.433 325.356 460.082 324.44 460.082 323.315C460.082 322.513 460.261 321.822 460.619 321.242C460.977 320.655 461.45 320.204 462.037 319.889C462.632 319.566 463.28 319.405 463.981 319.405C465.077 319.405 465.958 319.756 466.624 320.458C467.297 321.16 467.634 322.076 467.634 323.208C467.634 323.946 467.469 324.612 467.14 325.206C466.81 325.793 466.363 326.262 465.797 326.613C465.238 326.957 464.608 327.129 463.906 327.129ZM464.078 326.248C464.615 326.248 465.041 326.008 465.356 325.528C465.672 325.041 465.829 324.397 465.829 323.595C465.829 322.599 465.639 321.797 465.26 321.188C464.88 320.573 464.379 320.265 463.756 320.265C463.197 320.265 462.75 320.512 462.413 321.006C462.076 321.493 461.908 322.148 461.908 322.972C461.908 323.924 462.112 324.708 462.521 325.324C462.929 325.94 463.448 326.248 464.078 326.248ZM468.772 327L468.719 326.334L469.793 326.055C469.807 325.969 469.822 325.786 469.836 325.507C469.857 325.22 469.872 324.805 469.879 324.261L469.89 322.939C469.89 322.567 469.875 322.213 469.847 321.876C469.818 321.539 469.782 321.249 469.739 321.006L468.633 320.759V320.125L471.189 319.438L471.544 319.728L471.447 320.662L471.49 320.673C472.249 319.828 473.084 319.405 473.993 319.405C474.652 319.405 475.232 319.66 475.733 320.168C476.242 320.669 476.496 321.421 476.496 322.424V324.282C476.496 324.683 476.503 325.056 476.518 325.399C476.539 325.736 476.568 325.954 476.604 326.055L477.667 326.334L477.613 327H473.854L473.821 326.334L474.82 326.055C474.835 325.926 474.849 325.718 474.863 325.432C474.885 325.145 474.896 324.791 474.896 324.368V322.639C474.896 321.915 474.724 321.403 474.38 321.103C474.036 320.795 473.66 320.641 473.252 320.641C472.536 320.641 471.949 320.959 471.49 321.597V324.164C471.49 324.651 471.497 325.063 471.512 325.399C471.533 325.736 471.555 325.954 471.576 326.055L472.65 326.334L472.597 327H468.772Z" fill="#858585"/>
<path d="M250.159 353H248.045C247.92 352.392 247.702 351.858 247.389 351.398C247.082 350.938 246.707 350.551 246.264 350.239C245.827 349.92 245.341 349.682 244.807 349.523C244.273 349.364 243.716 349.284 243.136 349.284C242.08 349.284 241.122 349.551 240.264 350.085C239.412 350.619 238.733 351.406 238.227 352.446C237.727 353.486 237.477 354.761 237.477 356.273C237.477 357.784 237.727 359.06 238.227 360.099C238.733 361.139 239.412 361.926 240.264 362.46C241.122 362.994 242.08 363.261 243.136 363.261C243.716 363.261 244.273 363.182 244.807 363.023C245.341 362.864 245.827 362.628 246.264 362.315C246.707 361.997 247.082 361.608 247.389 361.148C247.702 360.682 247.92 360.148 248.045 359.545H250.159C250 360.437 249.71 361.236 249.29 361.94C248.869 362.645 248.347 363.244 247.722 363.739C247.097 364.227 246.395 364.599 245.616 364.855C244.844 365.111 244.017 365.239 243.136 365.239C241.648 365.239 240.324 364.875 239.165 364.148C238.006 363.42 237.094 362.386 236.429 361.045C235.764 359.705 235.432 358.114 235.432 356.273C235.432 354.432 235.764 352.841 236.429 351.5C237.094 350.159 238.006 349.125 239.165 348.398C240.324 347.67 241.648 347.307 243.136 347.307C244.017 347.307 244.844 347.435 245.616 347.69C246.395 347.946 247.097 348.321 247.722 348.815C248.347 349.304 248.869 349.901 249.29 350.605C249.71 351.304 250 352.102 250.159 353ZM258.62 365.273C257.438 365.273 256.401 364.991 255.509 364.429C254.623 363.866 253.93 363.08 253.43 362.068C252.935 361.057 252.688 359.875 252.688 358.523C252.688 357.159 252.935 355.969 253.43 354.952C253.93 353.935 254.623 353.145 255.509 352.582C256.401 352.02 257.438 351.739 258.62 351.739C259.802 351.739 260.836 352.02 261.722 352.582C262.614 353.145 263.308 353.935 263.802 354.952C264.302 355.969 264.552 357.159 264.552 358.523C264.552 359.875 264.302 361.057 263.802 362.068C263.308 363.08 262.614 363.866 261.722 364.429C260.836 364.991 259.802 365.273 258.62 365.273ZM258.62 363.466C259.518 363.466 260.256 363.236 260.836 362.776C261.415 362.315 261.844 361.71 262.123 360.96C262.401 360.21 262.54 359.398 262.54 358.523C262.54 357.648 262.401 356.832 262.123 356.077C261.844 355.321 261.415 354.71 260.836 354.244C260.256 353.778 259.518 353.545 258.62 353.545C257.722 353.545 256.984 353.778 256.404 354.244C255.825 354.71 255.396 355.321 255.117 356.077C254.839 356.832 254.7 357.648 254.7 358.523C254.7 359.398 254.839 360.21 255.117 360.96C255.396 361.71 255.825 362.315 256.404 362.776C256.984 363.236 257.722 363.466 258.62 363.466ZM267.622 365V351.909H269.565V353.955H269.736C270.009 353.256 270.449 352.713 271.057 352.327C271.665 351.935 272.395 351.739 273.247 351.739C274.111 351.739 274.83 351.935 275.403 352.327C275.983 352.713 276.435 353.256 276.759 353.955H276.895C277.23 353.278 277.733 352.741 278.403 352.344C279.074 351.94 279.878 351.739 280.815 351.739C281.986 351.739 282.943 352.105 283.688 352.838C284.432 353.565 284.804 354.699 284.804 356.239V365H282.793V356.239C282.793 355.273 282.528 354.582 282 354.168C281.472 353.753 280.849 353.545 280.134 353.545C279.213 353.545 278.5 353.824 277.994 354.381C277.489 354.932 277.236 355.631 277.236 356.477V365H275.19V356.034C275.19 355.29 274.949 354.69 274.466 354.236C273.983 353.776 273.361 353.545 272.599 353.545C272.077 353.545 271.588 353.685 271.134 353.963C270.685 354.241 270.321 354.628 270.043 355.122C269.77 355.611 269.634 356.176 269.634 356.818V365H267.622ZM288.482 369.909V351.909H290.425V353.989H290.663C290.811 353.761 291.016 353.472 291.277 353.119C291.544 352.761 291.925 352.443 292.419 352.165C292.919 351.881 293.595 351.739 294.447 351.739C295.55 351.739 296.521 352.014 297.362 352.565C298.203 353.116 298.859 353.898 299.331 354.909C299.803 355.92 300.038 357.114 300.038 358.489C300.038 359.875 299.803 361.077 299.331 362.094C298.859 363.105 298.206 363.889 297.371 364.446C296.536 364.997 295.572 365.273 294.482 365.273C293.641 365.273 292.967 365.134 292.462 364.855C291.956 364.571 291.567 364.25 291.294 363.892C291.021 363.528 290.811 363.227 290.663 362.989H290.493V369.909H288.482ZM290.459 358.455C290.459 359.443 290.604 360.315 290.893 361.071C291.183 361.821 291.607 362.409 292.163 362.835C292.72 363.256 293.402 363.466 294.209 363.466C295.05 363.466 295.751 363.244 296.314 362.801C296.882 362.352 297.308 361.75 297.592 360.994C297.882 360.233 298.027 359.386 298.027 358.455C298.027 357.534 297.885 356.705 297.601 355.966C297.322 355.222 296.899 354.634 296.331 354.202C295.768 353.764 295.061 353.545 294.209 353.545C293.391 353.545 292.703 353.753 292.146 354.168C291.589 354.577 291.169 355.151 290.885 355.889C290.601 356.622 290.459 357.477 290.459 358.455ZM305.118 347.545V365H303.107V347.545H305.118ZM314.29 365.273C313.029 365.273 311.941 364.994 311.026 364.438C310.117 363.875 309.415 363.091 308.921 362.085C308.433 361.074 308.188 359.898 308.188 358.557C308.188 357.216 308.433 356.034 308.921 355.011C309.415 353.983 310.103 353.182 310.984 352.608C311.87 352.028 312.904 351.739 314.086 351.739C314.768 351.739 315.441 351.852 316.106 352.08C316.771 352.307 317.376 352.676 317.921 353.188C318.467 353.693 318.901 354.364 319.225 355.199C319.549 356.034 319.711 357.062 319.711 358.284V359.136H309.62V357.398H317.665C317.665 356.659 317.518 356 317.222 355.42C316.933 354.841 316.518 354.384 315.978 354.048C315.444 353.713 314.813 353.545 314.086 353.545C313.285 353.545 312.592 353.744 312.006 354.142C311.427 354.534 310.981 355.045 310.668 355.676C310.356 356.307 310.2 356.983 310.2 357.705V358.864C310.2 359.852 310.37 360.69 310.711 361.378C311.058 362.06 311.538 362.58 312.151 362.938C312.765 363.29 313.478 363.466 314.29 363.466C314.819 363.466 315.296 363.392 315.722 363.244C316.154 363.091 316.526 362.864 316.839 362.562C317.151 362.256 317.393 361.875 317.563 361.42L319.506 361.966C319.302 362.625 318.958 363.205 318.475 363.705C317.992 364.199 317.396 364.585 316.685 364.864C315.975 365.136 315.177 365.273 314.29 365.273ZM328.464 351.909V353.614H321.68V351.909H328.464ZM323.657 348.773H325.668V361.25C325.668 361.818 325.751 362.244 325.915 362.528C326.086 362.807 326.302 362.994 326.563 363.091C326.83 363.182 327.112 363.227 327.407 363.227C327.629 363.227 327.81 363.216 327.952 363.193C328.094 363.165 328.208 363.142 328.293 363.125L328.702 364.932C328.566 364.983 328.376 365.034 328.131 365.085C327.887 365.142 327.577 365.17 327.202 365.17C326.634 365.17 326.077 365.048 325.532 364.804C324.992 364.56 324.543 364.188 324.185 363.688C323.833 363.188 323.657 362.557 323.657 361.795V348.773ZM336.837 365.273C335.576 365.273 334.488 364.994 333.573 364.438C332.664 363.875 331.962 363.091 331.468 362.085C330.979 361.074 330.735 359.898 330.735 358.557C330.735 357.216 330.979 356.034 331.468 355.011C331.962 353.983 332.65 353.182 333.531 352.608C334.417 352.028 335.451 351.739 336.633 351.739C337.315 351.739 337.988 351.852 338.653 352.08C339.317 352.307 339.923 352.676 340.468 353.188C341.013 353.693 341.448 354.364 341.772 355.199C342.096 356.034 342.258 357.062 342.258 358.284V359.136H332.167V357.398H340.212C340.212 356.659 340.065 356 339.769 355.42C339.479 354.841 339.065 354.384 338.525 354.048C337.991 353.713 337.36 353.545 336.633 353.545C335.832 353.545 335.138 353.744 334.553 354.142C333.974 354.534 333.528 355.045 333.215 355.676C332.903 356.307 332.746 356.983 332.746 357.705V358.864C332.746 359.852 332.917 360.69 333.258 361.378C333.604 362.06 334.085 362.58 334.698 362.938C335.312 363.29 336.025 363.466 336.837 363.466C337.366 363.466 337.843 363.392 338.269 363.244C338.701 363.091 339.073 362.864 339.386 362.562C339.698 362.256 339.94 361.875 340.11 361.42L342.053 361.966C341.849 362.625 341.505 363.205 341.022 363.705C340.539 364.199 339.942 364.585 339.232 364.864C338.522 365.136 337.724 365.273 336.837 365.273ZM352.067 369.909V351.909H354.011V353.989H354.249C354.397 353.761 354.602 353.472 354.863 353.119C355.13 352.761 355.511 352.443 356.005 352.165C356.505 351.881 357.181 351.739 358.033 351.739C359.136 351.739 360.107 352.014 360.948 352.565C361.789 353.116 362.445 353.898 362.917 354.909C363.388 355.92 363.624 357.114 363.624 358.489C363.624 359.875 363.388 361.077 362.917 362.094C362.445 363.105 361.792 363.889 360.957 364.446C360.121 364.997 359.158 365.273 358.067 365.273C357.227 365.273 356.553 365.134 356.048 364.855C355.542 364.571 355.153 364.25 354.88 363.892C354.607 363.528 354.397 363.227 354.249 362.989H354.079V369.909H352.067ZM354.045 358.455C354.045 359.443 354.19 360.315 354.479 361.071C354.769 361.821 355.192 362.409 355.749 362.835C356.306 363.256 356.988 363.466 357.795 363.466C358.636 363.466 359.337 363.244 359.9 362.801C360.468 362.352 360.894 361.75 361.178 360.994C361.468 360.233 361.613 359.386 361.613 358.455C361.613 357.534 361.471 356.705 361.187 355.966C360.908 355.222 360.485 354.634 359.917 354.202C359.354 353.764 358.647 353.545 357.795 353.545C356.977 353.545 356.289 353.753 355.732 354.168C355.175 354.577 354.755 355.151 354.471 355.889C354.187 356.622 354.045 357.477 354.045 358.455ZM366.692 365V351.909H368.636V353.886H368.772C369.011 353.239 369.442 352.713 370.067 352.31C370.692 351.906 371.397 351.705 372.181 351.705C372.329 351.705 372.513 351.707 372.735 351.713C372.957 351.719 373.124 351.727 373.238 351.739V353.784C373.17 353.767 373.013 353.741 372.769 353.707C372.531 353.668 372.278 353.648 372.011 353.648C371.374 353.648 370.806 353.781 370.306 354.048C369.812 354.31 369.42 354.673 369.13 355.139C368.846 355.599 368.704 356.125 368.704 356.716V365H366.692ZM380.542 365.273C379.36 365.273 378.323 364.991 377.431 364.429C376.545 363.866 375.852 363.08 375.352 362.068C374.857 361.057 374.61 359.875 374.61 358.523C374.61 357.159 374.857 355.969 375.352 354.952C375.852 353.935 376.545 353.145 377.431 352.582C378.323 352.02 379.36 351.739 380.542 351.739C381.724 351.739 382.758 352.02 383.644 352.582C384.536 353.145 385.229 353.935 385.724 354.952C386.224 355.969 386.474 357.159 386.474 358.523C386.474 359.875 386.224 361.057 385.724 362.068C385.229 363.08 384.536 363.866 383.644 364.429C382.758 364.991 381.724 365.273 380.542 365.273ZM380.542 363.466C381.44 363.466 382.178 363.236 382.758 362.776C383.337 362.315 383.766 361.71 384.045 360.96C384.323 360.21 384.462 359.398 384.462 358.523C384.462 357.648 384.323 356.832 384.045 356.077C383.766 355.321 383.337 354.71 382.758 354.244C382.178 353.778 381.44 353.545 380.542 353.545C379.644 353.545 378.906 353.778 378.326 354.244C377.746 354.71 377.317 355.321 377.039 356.077C376.761 356.832 376.621 357.648 376.621 358.523C376.621 359.398 376.761 360.21 377.039 360.96C377.317 361.71 377.746 362.315 378.326 362.776C378.906 363.236 379.644 363.466 380.542 363.466ZM389.544 351.909H391.555V365.955C391.555 366.761 391.416 367.46 391.138 368.051C390.865 368.642 390.45 369.099 389.893 369.423C389.342 369.747 388.646 369.909 387.805 369.909C387.737 369.909 387.669 369.909 387.601 369.909C387.533 369.909 387.464 369.909 387.396 369.909V368.034C387.464 368.034 387.527 368.034 387.584 368.034C387.641 368.034 387.703 368.034 387.771 368.034C388.385 368.034 388.834 367.852 389.118 367.489C389.402 367.131 389.544 366.619 389.544 365.955V351.909ZM390.533 349.727C390.141 349.727 389.803 349.594 389.518 349.327C389.24 349.06 389.101 348.739 389.101 348.364C389.101 347.989 389.24 347.668 389.518 347.401C389.803 347.134 390.141 347 390.533 347C390.925 347 391.26 347.134 391.538 347.401C391.822 347.668 391.964 347.989 391.964 348.364C391.964 348.739 391.822 349.06 391.538 349.327C391.26 349.594 390.925 349.727 390.533 349.727ZM400.728 365.273C399.467 365.273 398.379 364.994 397.464 364.438C396.555 363.875 395.853 363.091 395.359 362.085C394.87 361.074 394.626 359.898 394.626 358.557C394.626 357.216 394.87 356.034 395.359 355.011C395.853 353.983 396.54 353.182 397.421 352.608C398.308 352.028 399.342 351.739 400.523 351.739C401.205 351.739 401.879 351.852 402.543 352.08C403.208 352.307 403.813 352.676 404.359 353.188C404.904 353.693 405.339 354.364 405.663 355.199C405.987 356.034 406.148 357.062 406.148 358.284V359.136H396.058V357.398H404.103C404.103 356.659 403.955 356 403.66 355.42C403.37 354.841 402.955 354.384 402.415 354.048C401.881 353.713 401.251 353.545 400.523 353.545C399.722 353.545 399.029 353.744 398.444 354.142C397.864 354.534 397.418 355.045 397.106 355.676C396.793 356.307 396.637 356.983 396.637 357.705V358.864C396.637 359.852 396.808 360.69 397.148 361.378C397.495 362.06 397.975 362.58 398.589 362.938C399.202 363.29 399.915 363.466 400.728 363.466C401.256 363.466 401.734 363.392 402.16 363.244C402.592 363.091 402.964 362.864 403.276 362.562C403.589 362.256 403.83 361.875 404.001 361.42L405.944 361.966C405.739 362.625 405.396 363.205 404.913 363.705C404.43 364.199 403.833 364.585 403.123 364.864C402.413 365.136 401.614 365.273 400.728 365.273ZM414.526 365.273C413.299 365.273 412.242 364.983 411.356 364.403C410.469 363.824 409.788 363.026 409.31 362.009C408.833 360.991 408.594 359.83 408.594 358.523C408.594 357.193 408.839 356.02 409.327 355.003C409.822 353.98 410.509 353.182 411.39 352.608C412.276 352.028 413.31 351.739 414.492 351.739C415.413 351.739 416.242 351.909 416.981 352.25C417.719 352.591 418.325 353.068 418.796 353.682C419.268 354.295 419.56 355.011 419.674 355.83H417.663C417.509 355.233 417.168 354.705 416.64 354.244C416.117 353.778 415.413 353.545 414.526 353.545C413.742 353.545 413.055 353.75 412.464 354.159C411.879 354.562 411.421 355.134 411.092 355.872C410.768 356.605 410.606 357.466 410.606 358.455C410.606 359.466 410.765 360.347 411.083 361.097C411.407 361.847 411.862 362.429 412.447 362.844C413.038 363.259 413.731 363.466 414.526 363.466C415.049 363.466 415.523 363.375 415.95 363.193C416.376 363.011 416.737 362.75 417.032 362.409C417.327 362.068 417.538 361.659 417.663 361.182H419.674C419.56 361.955 419.279 362.651 418.83 363.27C418.387 363.884 417.799 364.372 417.066 364.736C416.339 365.094 415.492 365.273 414.526 365.273ZM428.308 351.909V353.614H421.523V351.909H428.308ZM423.501 348.773H425.512V361.25C425.512 361.818 425.594 362.244 425.759 362.528C425.93 362.807 426.146 362.994 426.407 363.091C426.674 363.182 426.955 363.227 427.251 363.227C427.472 363.227 427.654 363.216 427.796 363.193C427.938 363.165 428.052 363.142 428.137 363.125L428.546 364.932C428.41 364.983 428.219 365.034 427.975 365.085C427.731 365.142 427.421 365.17 427.046 365.17C426.478 365.17 425.921 365.048 425.376 364.804C424.836 364.56 424.387 364.188 424.029 363.688C423.677 363.188 423.501 362.557 423.501 361.795V348.773ZM438.083 369.909V351.909H440.026V353.989H440.265C440.413 353.761 440.617 353.472 440.879 353.119C441.146 352.761 441.526 352.443 442.021 352.165C442.521 351.881 443.197 351.739 444.049 351.739C445.151 351.739 446.123 352.014 446.964 352.565C447.805 353.116 448.461 353.898 448.933 354.909C449.404 355.92 449.64 357.114 449.64 358.489C449.64 359.875 449.404 361.077 448.933 362.094C448.461 363.105 447.808 363.889 446.972 364.446C446.137 364.997 445.174 365.273 444.083 365.273C443.242 365.273 442.569 365.134 442.063 364.855C441.558 364.571 441.168 364.25 440.896 363.892C440.623 363.528 440.413 363.227 440.265 362.989H440.094V369.909H438.083ZM440.06 358.455C440.06 359.443 440.205 360.315 440.495 361.071C440.785 361.821 441.208 362.409 441.765 362.835C442.322 363.256 443.004 363.466 443.81 363.466C444.651 363.466 445.353 363.244 445.915 362.801C446.484 362.352 446.91 361.75 447.194 360.994C447.484 360.233 447.629 359.386 447.629 358.455C447.629 357.534 447.487 356.705 447.202 355.966C446.924 355.222 446.501 354.634 445.933 354.202C445.37 353.764 444.663 353.545 443.81 353.545C442.992 353.545 442.305 353.753 441.748 354.168C441.191 354.577 440.771 355.151 440.487 355.889C440.202 356.622 440.06 357.477 440.06 358.455ZM452.708 365V351.909H454.651V353.886H454.788C455.026 353.239 455.458 352.713 456.083 352.31C456.708 351.906 457.413 351.705 458.197 351.705C458.344 351.705 458.529 351.707 458.751 351.713C458.972 351.719 459.14 351.727 459.254 351.739V353.784C459.185 353.767 459.029 353.741 458.785 353.707C458.546 353.668 458.293 353.648 458.026 353.648C457.39 353.648 456.822 353.781 456.322 354.048C455.827 354.31 455.435 354.673 455.146 355.139C454.862 355.599 454.719 356.125 454.719 356.716V365H452.708ZM466.558 365.273C465.376 365.273 464.339 364.991 463.447 364.429C462.56 363.866 461.867 363.08 461.367 362.068C460.873 361.057 460.626 359.875 460.626 358.523C460.626 357.159 460.873 355.969 461.367 354.952C461.867 353.935 462.56 353.145 463.447 352.582C464.339 352.02 465.376 351.739 466.558 351.739C467.739 351.739 468.773 352.02 469.66 352.582C470.552 353.145 471.245 353.935 471.739 354.952C472.239 355.969 472.489 357.159 472.489 358.523C472.489 359.875 472.239 361.057 471.739 362.068C471.245 363.08 470.552 363.866 469.66 364.429C468.773 364.991 467.739 365.273 466.558 365.273ZM466.558 363.466C467.455 363.466 468.194 363.236 468.773 362.776C469.353 362.315 469.782 361.71 470.06 360.96C470.339 360.21 470.478 359.398 470.478 358.523C470.478 357.648 470.339 356.832 470.06 356.077C469.782 355.321 469.353 354.71 468.773 354.244C468.194 353.778 467.455 353.545 466.558 353.545C465.66 353.545 464.921 353.778 464.342 354.244C463.762 354.71 463.333 355.321 463.055 356.077C462.776 356.832 462.637 357.648 462.637 358.523C462.637 359.398 462.776 360.21 463.055 360.96C463.333 361.71 463.762 362.315 464.342 362.776C464.921 363.236 465.66 363.466 466.558 363.466ZM475.56 369.909V351.909H477.503V353.989H477.741C477.889 353.761 478.094 353.472 478.355 353.119C478.622 352.761 479.003 352.443 479.497 352.165C479.997 351.881 480.673 351.739 481.526 351.739C482.628 351.739 483.599 352.014 484.44 352.565C485.281 353.116 485.938 353.898 486.409 354.909C486.881 355.92 487.116 357.114 487.116 358.489C487.116 359.875 486.881 361.077 486.409 362.094C485.938 363.105 485.284 363.889 484.449 364.446C483.614 364.997 482.651 365.273 481.56 365.273C480.719 365.273 480.045 365.134 479.54 364.855C479.034 364.571 478.645 364.25 478.372 363.892C478.099 363.528 477.889 363.227 477.741 362.989H477.571V369.909H475.56ZM477.537 358.455C477.537 359.443 477.682 360.315 477.972 361.071C478.261 361.821 478.685 362.409 479.241 362.835C479.798 363.256 480.48 363.466 481.287 363.466C482.128 363.466 482.83 363.244 483.392 362.801C483.96 362.352 484.386 361.75 484.67 360.994C484.96 360.233 485.105 359.386 485.105 358.455C485.105 357.534 484.963 356.705 484.679 355.966C484.401 355.222 483.977 354.634 483.409 354.202C482.847 353.764 482.139 353.545 481.287 353.545C480.469 353.545 479.781 353.753 479.224 354.168C478.668 354.577 478.247 355.151 477.963 355.889C477.679 356.622 477.537 357.477 477.537 358.455ZM495.503 365.273C494.321 365.273 493.284 364.991 492.392 364.429C491.506 363.866 490.812 363.08 490.312 362.068C489.818 361.057 489.571 359.875 489.571 358.523C489.571 357.159 489.818 355.969 490.312 354.952C490.812 353.935 491.506 353.145 492.392 352.582C493.284 352.02 494.321 351.739 495.503 351.739C496.685 351.739 497.719 352.02 498.605 352.582C499.497 353.145 500.19 353.935 500.685 354.952C501.185 355.969 501.435 357.159 501.435 358.523C501.435 359.875 501.185 361.057 500.685 362.068C500.19 363.08 499.497 363.866 498.605 364.429C497.719 364.991 496.685 365.273 495.503 365.273ZM495.503 363.466C496.401 363.466 497.139 363.236 497.719 362.776C498.298 362.315 498.727 361.71 499.006 360.96C499.284 360.21 499.423 359.398 499.423 358.523C499.423 357.648 499.284 356.832 499.006 356.077C498.727 355.321 498.298 354.71 497.719 354.244C497.139 353.778 496.401 353.545 495.503 353.545C494.605 353.545 493.866 353.778 493.287 354.244C492.707 354.71 492.278 355.321 492 356.077C491.722 356.832 491.582 357.648 491.582 358.523C491.582 359.398 491.722 360.21 492 360.96C492.278 361.71 492.707 362.315 493.287 362.776C493.866 363.236 494.605 363.466 495.503 363.466ZM513.778 354.841L511.971 355.352C511.857 355.051 511.69 354.759 511.468 354.474C511.252 354.185 510.957 353.946 510.582 353.759C510.207 353.571 509.727 353.477 509.141 353.477C508.34 353.477 507.673 353.662 507.138 354.031C506.61 354.395 506.346 354.858 506.346 355.42C506.346 355.92 506.528 356.315 506.891 356.605C507.255 356.895 507.823 357.136 508.596 357.33L510.539 357.807C511.71 358.091 512.582 358.526 513.156 359.111C513.729 359.69 514.016 360.437 514.016 361.352C514.016 362.102 513.8 362.773 513.369 363.364C512.942 363.955 512.346 364.42 511.579 364.761C510.812 365.102 509.92 365.273 508.903 365.273C507.567 365.273 506.462 364.983 505.587 364.403C504.712 363.824 504.158 362.977 503.925 361.864L505.835 361.386C506.016 362.091 506.36 362.619 506.866 362.972C507.377 363.324 508.045 363.5 508.869 363.5C509.806 363.5 510.55 363.301 511.102 362.903C511.658 362.5 511.937 362.017 511.937 361.455C511.937 361 511.778 360.619 511.46 360.312C511.141 360 510.653 359.767 509.994 359.614L507.812 359.102C506.613 358.818 505.732 358.378 505.17 357.781C504.613 357.179 504.335 356.426 504.335 355.523C504.335 354.784 504.542 354.131 504.957 353.562C505.377 352.994 505.948 352.548 506.67 352.224C507.397 351.901 508.221 351.739 509.141 351.739C510.437 351.739 511.454 352.023 512.192 352.591C512.937 353.159 513.465 353.909 513.778 354.841ZM520.896 365.307C520.067 365.307 519.314 365.151 518.638 364.838C517.962 364.52 517.425 364.062 517.027 363.466C516.629 362.864 516.43 362.136 516.43 361.284C516.43 360.534 516.578 359.926 516.874 359.46C517.169 358.989 517.564 358.619 518.058 358.352C518.553 358.085 519.098 357.886 519.695 357.756C520.297 357.619 520.902 357.511 521.51 357.432C522.305 357.33 522.95 357.253 523.445 357.202C523.945 357.145 524.308 357.051 524.536 356.92C524.768 356.79 524.885 356.562 524.885 356.239V356.17C524.885 355.33 524.655 354.676 524.195 354.21C523.74 353.744 523.05 353.511 522.124 353.511C521.163 353.511 520.411 353.722 519.865 354.142C519.32 354.562 518.936 355.011 518.714 355.489L516.805 354.807C517.146 354.011 517.601 353.392 518.169 352.949C518.743 352.5 519.368 352.187 520.044 352.011C520.726 351.83 521.396 351.739 522.055 351.739C522.476 351.739 522.959 351.79 523.504 351.892C524.055 351.989 524.587 352.19 525.098 352.497C525.615 352.804 526.044 353.267 526.385 353.886C526.726 354.506 526.896 355.335 526.896 356.375V365H524.885V363.227H524.783C524.646 363.511 524.419 363.815 524.101 364.139C523.783 364.463 523.359 364.739 522.831 364.966C522.303 365.193 521.658 365.307 520.896 365.307ZM521.203 363.5C521.999 363.5 522.669 363.344 523.214 363.031C523.766 362.719 524.18 362.315 524.459 361.821C524.743 361.327 524.885 360.807 524.885 360.261V358.42C524.8 358.523 524.612 358.616 524.322 358.702C524.038 358.781 523.709 358.852 523.334 358.915C522.964 358.972 522.604 359.023 522.251 359.068C521.905 359.108 521.624 359.142 521.408 359.17C520.885 359.239 520.396 359.349 519.942 359.503C519.493 359.651 519.129 359.875 518.851 360.176C518.578 360.472 518.442 360.875 518.442 361.386C518.442 362.085 518.7 362.614 519.217 362.972C519.74 363.324 520.402 363.5 521.203 363.5ZM532.579 347.545V365H530.567V347.545H532.579Z" fill="#6C6C6C"/>
<path d="M343 395.25H426C430.28 395.25 433.75 398.72 433.75 403V419C433.75 423.28 430.28 426.75 426 426.75H343C338.72 426.75 335.25 423.28 335.25 419V403C335.25 398.72 338.72 395.25 343 395.25Z" fill="#DEDEDE"/>
<path d="M343 395.25H426C430.28 395.25 433.75 398.72 433.75 403V419C433.75 423.28 430.28 426.75 426 426.75H343C338.72 426.75 335.25 423.28 335.25 419V403C335.25 398.72 338.72 395.25 343 395.25Z" stroke="#D8D8D8" stroke-width="0.5"/>
<path d="M360.773 408.5H359.364C359.28 408.095 359.134 407.739 358.926 407.432C358.722 407.125 358.472 406.867 358.176 406.659C357.884 406.447 357.561 406.288 357.205 406.182C356.848 406.076 356.477 406.023 356.091 406.023C355.386 406.023 354.748 406.201 354.176 406.557C353.608 406.913 353.155 407.438 352.818 408.131C352.485 408.824 352.318 409.674 352.318 410.682C352.318 411.689 352.485 412.54 352.818 413.233C353.155 413.926 353.608 414.451 354.176 414.807C354.748 415.163 355.386 415.341 356.091 415.341C356.477 415.341 356.848 415.288 357.205 415.182C357.561 415.076 357.884 414.919 358.176 414.71C358.472 414.498 358.722 414.239 358.926 413.932C359.134 413.621 359.28 413.265 359.364 412.864H360.773C360.667 413.458 360.473 413.991 360.193 414.46C359.913 414.93 359.564 415.33 359.148 415.659C358.731 415.985 358.263 416.233 357.744 416.403C357.229 416.574 356.678 416.659 356.091 416.659C355.098 416.659 354.216 416.417 353.443 415.932C352.67 415.447 352.063 414.758 351.619 413.864C351.176 412.97 350.955 411.909 350.955 410.682C350.955 409.455 351.176 408.394 351.619 407.5C352.063 406.606 352.67 405.917 353.443 405.432C354.216 404.947 355.098 404.705 356.091 404.705C356.678 404.705 357.229 404.79 357.744 404.96C358.263 405.131 358.731 405.381 359.148 405.71C359.564 406.036 359.913 406.434 360.193 406.903C360.473 407.369 360.667 407.902 360.773 408.5ZM366.413 416.682C365.625 416.682 364.934 416.494 364.339 416.119C363.749 415.744 363.286 415.22 362.953 414.545C362.624 413.871 362.459 413.083 362.459 412.182C362.459 411.273 362.624 410.479 362.953 409.801C363.286 409.123 363.749 408.597 364.339 408.222C364.934 407.847 365.625 407.659 366.413 407.659C367.201 407.659 367.891 407.847 368.482 408.222C369.076 408.597 369.538 409.123 369.868 409.801C370.201 410.479 370.368 411.273 370.368 412.182C370.368 413.083 370.201 413.871 369.868 414.545C369.538 415.22 369.076 415.744 368.482 416.119C367.891 416.494 367.201 416.682 366.413 416.682ZM366.413 415.477C367.012 415.477 367.504 415.324 367.891 415.017C368.277 414.71 368.563 414.307 368.749 413.807C368.934 413.307 369.027 412.765 369.027 412.182C369.027 411.598 368.934 411.055 368.749 410.551C368.563 410.047 368.277 409.64 367.891 409.33C367.504 409.019 367.012 408.864 366.413 408.864C365.815 408.864 365.322 409.019 364.936 409.33C364.55 409.64 364.264 410.047 364.078 410.551C363.893 411.055 363.8 411.598 363.8 412.182C363.8 412.765 363.893 413.307 364.078 413.807C364.264 414.307 364.55 414.71 364.936 415.017C365.322 415.324 365.815 415.477 366.413 415.477ZM373.756 411.25V416.5H372.415V407.773H373.71V409.136H373.824C374.028 408.693 374.339 408.337 374.756 408.068C375.172 407.795 375.71 407.659 376.369 407.659C376.96 407.659 377.477 407.78 377.92 408.023C378.364 408.261 378.708 408.625 378.955 409.114C379.201 409.598 379.324 410.212 379.324 410.955V416.5H377.983V411.045C377.983 410.36 377.805 409.826 377.449 409.443C377.093 409.057 376.604 408.864 375.983 408.864C375.555 408.864 375.172 408.956 374.835 409.142C374.502 409.328 374.239 409.598 374.045 409.955C373.852 410.311 373.756 410.742 373.756 411.25ZM385.57 407.773V408.909H381.047V407.773H385.57ZM382.365 405.682H383.706V414C383.706 414.379 383.761 414.663 383.871 414.852C383.984 415.038 384.128 415.163 384.303 415.227C384.481 415.288 384.668 415.318 384.865 415.318C385.013 415.318 385.134 415.311 385.229 415.295C385.323 415.277 385.399 415.261 385.456 415.25L385.729 416.455C385.638 416.489 385.511 416.523 385.348 416.557C385.185 416.595 384.979 416.614 384.729 416.614C384.35 416.614 383.979 416.532 383.615 416.369C383.255 416.206 382.956 415.958 382.717 415.625C382.482 415.292 382.365 414.871 382.365 414.364V405.682ZM387.587 416.5V407.773H388.928V416.5H387.587ZM388.268 406.318C388.007 406.318 387.782 406.229 387.592 406.051C387.407 405.873 387.314 405.659 387.314 405.409C387.314 405.159 387.407 404.945 387.592 404.767C387.782 404.589 388.007 404.5 388.268 404.5C388.53 404.5 388.753 404.589 388.939 404.767C389.128 404.945 389.223 405.159 389.223 405.409C389.223 405.659 389.128 405.873 388.939 406.051C388.753 406.229 388.53 406.318 388.268 406.318ZM392.724 411.25V416.5H391.384V407.773H392.679V409.136H392.793C392.997 408.693 393.308 408.337 393.724 408.068C394.141 407.795 394.679 407.659 395.338 407.659C395.929 407.659 396.446 407.78 396.889 408.023C397.332 408.261 397.677 408.625 397.923 409.114C398.17 409.598 398.293 410.212 398.293 410.955V416.5H396.952V411.045C396.952 410.36 396.774 409.826 396.418 409.443C396.062 409.057 395.573 408.864 394.952 408.864C394.524 408.864 394.141 408.956 393.804 409.142C393.471 409.328 393.207 409.598 393.014 409.955C392.821 410.311 392.724 410.742 392.724 411.25ZM406.243 412.932V407.773H407.584V416.5H406.243V415.023H406.152C405.947 415.466 405.629 415.843 405.197 416.153C404.766 416.46 404.22 416.614 403.561 416.614C403.016 416.614 402.531 416.494 402.107 416.256C401.682 416.013 401.349 415.65 401.107 415.165C400.864 414.676 400.743 414.061 400.743 413.318V407.773H402.084V413.227C402.084 413.864 402.262 414.371 402.618 414.75C402.978 415.129 403.436 415.318 403.993 415.318C404.326 415.318 404.665 415.233 405.01 415.062C405.358 414.892 405.65 414.631 405.885 414.278C406.124 413.926 406.243 413.477 406.243 412.932ZM413.699 416.682C412.858 416.682 412.133 416.496 411.523 416.125C410.917 415.75 410.449 415.227 410.119 414.557C409.794 413.883 409.631 413.098 409.631 412.205C409.631 411.311 409.794 410.523 410.119 409.841C410.449 409.155 410.907 408.621 411.494 408.239C412.085 407.852 412.775 407.659 413.562 407.659C414.017 407.659 414.466 407.735 414.909 407.886C415.352 408.038 415.756 408.284 416.119 408.625C416.483 408.962 416.773 409.409 416.989 409.966C417.205 410.523 417.312 411.208 417.312 412.023V412.591H410.585V411.432H415.949C415.949 410.939 415.85 410.5 415.653 410.114C415.46 409.727 415.184 409.422 414.824 409.199C414.468 408.975 414.047 408.864 413.562 408.864C413.028 408.864 412.566 408.996 412.176 409.261C411.79 409.523 411.492 409.864 411.284 410.284C411.076 410.705 410.972 411.155 410.972 411.636V412.409C410.972 413.068 411.085 413.627 411.312 414.085C411.544 414.54 411.864 414.886 412.273 415.125C412.682 415.36 413.157 415.477 413.699 415.477C414.051 415.477 414.369 415.428 414.653 415.33C414.941 415.227 415.189 415.076 415.398 414.875C415.606 414.67 415.767 414.417 415.881 414.114L417.176 414.477C417.04 414.917 416.811 415.303 416.489 415.636C416.167 415.966 415.769 416.223 415.295 416.409C414.822 416.591 414.29 416.682 413.699 416.682Z" fill="#434343"/>
</svg>
