<svg width="768" height="528" viewBox="0 0 768 528" fill="none" xmlns="http://www.w3.org/2000/svg">
<rect width="768" height="528" rx="32" fill="url(#paint0_linear_277_1494)"/>
<path d="M52 232H226C229.866 232 233 235.134 233 239V352H45V239C45 235.134 48.134 232 52 232Z" stroke="url(#paint1_linear_277_1494)" stroke-width="2"/>
<path d="M61 241H217C220.866 241 224 244.134 224 248V352H54V248C54 244.134 57.134 241 61 241Z" stroke="url(#paint2_linear_277_1494)" stroke-width="2"/>
<rect x="31" y="354" width="215" height="13" rx="6.5" stroke="url(#paint3_linear_277_1494)" stroke-width="2"/>
<path d="M260 166H517C520.866 166 524 169.134 524 173V326C524 329.866 520.866 333 517 333H260C256.134 333 253 329.866 253 326V173C253 169.134 256.134 166 260 166Z" stroke="url(#paint4_linear_277_1494)" stroke-width="2"/>
<path d="M273 179H504C507.866 179 511 182.134 511 186V313C511 316.866 507.866 320 504 320H273C269.134 320 266 316.866 266 313V186C266 182.134 269.134 179 273 179Z" stroke="url(#paint5_linear_277_1494)" stroke-width="2"/>
<path d="M342 368L347 333.5H429L434.5 368H342Z" stroke="url(#paint6_linear_277_1494)" stroke-width="2"/>
<rect x="537" y="221" width="117" height="146" rx="7" stroke="url(#paint7_linear_277_1494)" stroke-width="2"/>
<rect x="547" y="230" width="97" height="124" rx="1" stroke="url(#paint8_linear_277_1494)" stroke-width="2"/>
<rect x="667" y="278" width="51" height="89" rx="7" stroke="url(#paint9_linear_277_1494)" stroke-width="2"/>
<rect x="672" y="287" width="41" height="67" rx="1" stroke="url(#paint10_linear_277_1494)" stroke-width="2"/>
<path d="M146.094 303.176C145.82 303.163 145.391 303.143 144.805 303.117C144.219 303.091 143.62 303.065 143.008 303.039C142.396 303.013 141.895 303 141.504 303H134.414C133.971 303 133.529 303.007 133.086 303.02C132.643 303.033 132.22 303.065 131.816 303.117V301.32L141.582 285.148V286.555H136.855C136.165 286.555 135.625 286.574 135.234 286.613C134.844 286.652 134.466 286.698 134.102 286.75L133.477 289.973H131.309L131.25 284.523C131.745 284.562 132.305 284.589 132.93 284.602C133.568 284.602 134.082 284.602 134.473 284.602H143.555C144.414 284.602 145.254 284.582 146.074 284.543V286.359L136.504 302.258V300.91H141.738C142.233 300.91 142.604 300.897 142.852 300.871C143.099 300.845 143.379 300.806 143.691 300.754L145 297.141L147.109 297.434L146.094 303.176Z" fill="#9B9B9B"/>
<path d="M399.094 250.176C398.82 250.163 398.391 250.143 397.805 250.117C397.219 250.091 396.62 250.065 396.008 250.039C395.396 250.013 394.895 250 394.504 250H387.414C386.971 250 386.529 250.007 386.086 250.02C385.643 250.033 385.22 250.065 384.816 250.117V248.32L394.582 232.148V233.555H389.855C389.165 233.555 388.625 233.574 388.234 233.613C387.844 233.652 387.466 233.698 387.102 233.75L386.477 236.973H384.309L384.25 231.523C384.745 231.562 385.305 231.589 385.93 231.602C386.568 231.602 387.082 231.602 387.473 231.602H396.555C397.414 231.602 398.254 231.582 399.074 231.543V233.359L389.504 249.258V247.91H394.738C395.233 247.91 395.604 247.897 395.852 247.871C396.099 247.845 396.379 247.806 396.691 247.754L398 244.141L400.109 244.434L399.094 250.176Z" fill="#9B9B9B"/>
<path d="M603.094 295.176C602.82 295.163 602.391 295.143 601.805 295.117C601.219 295.091 600.62 295.065 600.008 295.039C599.396 295.013 598.895 295 598.504 295H591.414C590.971 295 590.529 295.007 590.086 295.02C589.643 295.033 589.22 295.065 588.816 295.117V293.32L598.582 277.148V278.555H593.855C593.165 278.555 592.625 278.574 592.234 278.613C591.844 278.652 591.466 278.698 591.102 278.75L590.477 281.973H588.309L588.25 276.523C588.745 276.562 589.305 276.589 589.93 276.602C590.568 276.602 591.082 276.602 591.473 276.602H600.555C601.414 276.602 602.254 276.582 603.074 276.543V278.359L593.504 294.258V292.91H598.738C599.233 292.91 599.604 292.897 599.852 292.871C600.099 292.845 600.379 292.806 600.691 292.754L602 289.141L604.109 289.434L603.094 295.176Z" fill="#9B9B9B"/>
<path d="M700.094 324.176C699.82 324.163 699.391 324.143 698.805 324.117C698.219 324.091 697.62 324.065 697.008 324.039C696.396 324.013 695.895 324 695.504 324H688.414C687.971 324 687.529 324.007 687.086 324.02C686.643 324.033 686.22 324.065 685.816 324.117V322.32L695.582 306.148V307.555H690.855C690.165 307.555 689.625 307.574 689.234 307.613C688.844 307.652 688.466 307.698 688.102 307.75L687.477 310.973H685.309L685.25 305.523C685.745 305.562 686.305 305.589 686.93 305.602C687.568 305.602 688.082 305.602 688.473 305.602H697.555C698.414 305.602 699.254 305.582 700.074 305.543V307.359L690.504 323.258V321.91H695.738C696.233 321.91 696.604 321.897 696.852 321.871C697.099 321.845 697.379 321.806 697.691 321.754L699 318.141L701.109 318.434L700.094 324.176Z" fill="#9B9B9B"/>
<defs>
<linearGradient id="paint0_linear_277_1494" x1="384" y1="7.37607e-06" x2="192.147" y2="534.089" gradientUnits="userSpaceOnUse">
<stop stop-color="#0F0F0F"/>
<stop offset="1" stop-color="#181818"/>
</linearGradient>
<linearGradient id="paint1_linear_277_1494" x1="139" y1="231" x2="139" y2="353" gradientUnits="userSpaceOnUse">
<stop stop-color="#2F2F2F"/>
<stop offset="1" stop-color="#323131"/>
</linearGradient>
<linearGradient id="paint2_linear_277_1494" x1="139" y1="240" x2="139" y2="353" gradientUnits="userSpaceOnUse">
<stop stop-color="#2F2F2F"/>
<stop offset="1" stop-color="#323131"/>
</linearGradient>
<linearGradient id="paint3_linear_277_1494" x1="138.5" y1="353" x2="138.5" y2="368" gradientUnits="userSpaceOnUse">
<stop stop-color="#2F2F2F"/>
<stop offset="1" stop-color="#323131"/>
</linearGradient>
<linearGradient id="paint4_linear_277_1494" x1="388.5" y1="165" x2="388.5" y2="334" gradientUnits="userSpaceOnUse">
<stop stop-color="#2F2F2F"/>
<stop offset="1" stop-color="#323131"/>
</linearGradient>
<linearGradient id="paint5_linear_277_1494" x1="388.5" y1="178" x2="388.5" y2="321" gradientUnits="userSpaceOnUse">
<stop stop-color="#2F2F2F"/>
<stop offset="1" stop-color="#323131"/>
</linearGradient>
<linearGradient id="paint6_linear_277_1494" x1="388.25" y1="333.5" x2="388.25" y2="368" gradientUnits="userSpaceOnUse">
<stop stop-color="#2F2F2F"/>
<stop offset="1" stop-color="#323131"/>
</linearGradient>
<linearGradient id="paint7_linear_277_1494" x1="595.5" y1="220" x2="595.5" y2="368" gradientUnits="userSpaceOnUse">
<stop stop-color="#2F2F2F"/>
<stop offset="1" stop-color="#323131"/>
</linearGradient>
<linearGradient id="paint8_linear_277_1494" x1="595.5" y1="229" x2="595.5" y2="355" gradientUnits="userSpaceOnUse">
<stop stop-color="#2F2F2F"/>
<stop offset="1" stop-color="#323131"/>
</linearGradient>
<linearGradient id="paint9_linear_277_1494" x1="692.5" y1="277" x2="692.5" y2="368" gradientUnits="userSpaceOnUse">
<stop stop-color="#2F2F2F"/>
<stop offset="1" stop-color="#323131"/>
</linearGradient>
<linearGradient id="paint10_linear_277_1494" x1="692.5" y1="286" x2="692.5" y2="355" gradientUnits="userSpaceOnUse">
<stop stop-color="#2F2F2F"/>
<stop offset="1" stop-color="#323131"/>
</linearGradient>
</defs>
</svg>
