<svg width="768" height="528" viewBox="0 0 768 528" fill="none" xmlns="http://www.w3.org/2000/svg">
<rect width="768" height="528" rx="32" fill="url(#paint0_linear_277_1021)"/>
<rect x="114.5" y="68.5" width="539" height="63" rx="7.5" fill="#0F0F0F" stroke="#343333"/>
<path d="M132.091 109.273C131.864 109.273 131.661 109.254 131.483 109.216C131.305 109.182 131.182 109.148 131.114 109.114L131.455 107.932C131.78 108.015 132.068 108.045 132.318 108.023C132.568 108 132.79 107.888 132.983 107.688C133.18 107.491 133.36 107.17 133.523 106.727L133.773 106.045L130.545 97.2727H132L134.409 104.227H134.5L136.909 97.2727H138.364L134.659 107.273C134.492 107.723 134.286 108.097 134.04 108.392C133.794 108.691 133.508 108.913 133.182 109.057C132.86 109.201 132.496 109.273 132.091 109.273ZM143.366 106.182C142.579 106.182 141.887 105.994 141.293 105.619C140.702 105.244 140.24 104.72 139.906 104.045C139.577 103.371 139.412 102.583 139.412 101.682C139.412 100.773 139.577 99.9792 139.906 99.3011C140.24 98.6231 140.702 98.0966 141.293 97.7216C141.887 97.3466 142.579 97.1591 143.366 97.1591C144.154 97.1591 144.844 97.3466 145.435 97.7216C146.029 98.0966 146.491 98.6231 146.821 99.3011C147.154 99.9792 147.321 100.773 147.321 101.682C147.321 102.583 147.154 103.371 146.821 104.045C146.491 104.72 146.029 105.244 145.435 105.619C144.844 105.994 144.154 106.182 143.366 106.182ZM143.366 104.977C143.965 104.977 144.457 104.824 144.844 104.517C145.23 104.21 145.516 103.807 145.702 103.307C145.887 102.807 145.98 102.265 145.98 101.682C145.98 101.098 145.887 100.555 145.702 100.051C145.516 99.5473 145.23 99.1402 144.844 98.8295C144.457 98.5189 143.965 98.3636 143.366 98.3636C142.768 98.3636 142.276 98.5189 141.889 98.8295C141.503 99.1402 141.217 99.5473 141.031 100.051C140.846 100.555 140.753 101.098 140.753 101.682C140.753 102.265 140.846 102.807 141.031 103.307C141.217 103.807 141.503 104.21 141.889 104.517C142.276 104.824 142.768 104.977 143.366 104.977ZM154.868 102.432V97.2727H156.209V106H154.868V104.523H154.777C154.572 104.966 154.254 105.343 153.822 105.653C153.391 105.96 152.845 106.114 152.186 106.114C151.641 106.114 151.156 105.994 150.732 105.756C150.307 105.513 149.974 105.15 149.732 104.665C149.489 104.176 149.368 103.561 149.368 102.818V97.2727H150.709V102.727C150.709 103.364 150.887 103.871 151.243 104.25C151.603 104.629 152.061 104.818 152.618 104.818C152.951 104.818 153.29 104.733 153.635 104.562C153.983 104.392 154.275 104.131 154.51 103.778C154.749 103.426 154.868 102.977 154.868 102.432ZM162.46 97.2727V98.4091H157.938V97.2727H162.46ZM159.256 95.1818H160.597V103.5C160.597 103.879 160.652 104.163 160.761 104.352C160.875 104.538 161.019 104.663 161.193 104.727C161.371 104.788 161.559 104.818 161.756 104.818C161.903 104.818 162.025 104.811 162.119 104.795C162.214 104.777 162.29 104.761 162.347 104.75L162.619 105.955C162.528 105.989 162.402 106.023 162.239 106.057C162.076 106.095 161.869 106.114 161.619 106.114C161.241 106.114 160.869 106.032 160.506 105.869C160.146 105.706 159.847 105.458 159.608 105.125C159.373 104.792 159.256 104.371 159.256 103.864V95.1818ZM169.977 102.432V97.2727H171.318V106H169.977V104.523H169.886C169.682 104.966 169.364 105.343 168.932 105.653C168.5 105.96 167.955 106.114 167.295 106.114C166.75 106.114 166.265 105.994 165.841 105.756C165.417 105.513 165.083 105.15 164.841 104.665C164.598 104.176 164.477 103.561 164.477 102.818V97.2727H165.818V102.727C165.818 103.364 165.996 103.871 166.352 104.25C166.712 104.629 167.17 104.818 167.727 104.818C168.061 104.818 168.4 104.733 168.744 104.562C169.093 104.392 169.384 104.131 169.619 103.778C169.858 103.426 169.977 102.977 169.977 102.432ZM173.956 106V94.3636H175.297V98.6591H175.411C175.509 98.5076 175.645 98.3144 175.82 98.0795C175.998 97.8409 176.251 97.6288 176.581 97.4432C176.914 97.2538 177.365 97.1591 177.933 97.1591C178.668 97.1591 179.316 97.3428 179.876 97.7102C180.437 98.0777 180.875 98.5985 181.189 99.2727C181.503 99.947 181.661 100.742 181.661 101.659C181.661 102.583 181.503 103.384 181.189 104.062C180.875 104.737 180.439 105.259 179.882 105.631C179.325 105.998 178.683 106.182 177.956 106.182C177.395 106.182 176.946 106.089 176.609 105.903C176.272 105.714 176.013 105.5 175.831 105.261C175.649 105.019 175.509 104.818 175.411 104.659H175.251V106H173.956ZM175.274 101.636C175.274 102.295 175.371 102.877 175.564 103.381C175.757 103.881 176.039 104.273 176.411 104.557C176.782 104.837 177.236 104.977 177.774 104.977C178.335 104.977 178.803 104.83 179.178 104.534C179.556 104.235 179.84 103.833 180.03 103.33C180.223 102.822 180.32 102.258 180.32 101.636C180.32 101.023 180.225 100.47 180.036 99.9773C179.85 99.4811 179.568 99.089 179.189 98.8011C178.814 98.5095 178.342 98.3636 177.774 98.3636C177.229 98.3636 176.77 98.5019 176.399 98.7784C176.028 99.0511 175.748 99.4337 175.558 99.9261C175.369 100.415 175.274 100.985 175.274 101.636ZM187.371 106.182C186.53 106.182 185.804 105.996 185.195 105.625C184.589 105.25 184.121 104.727 183.791 104.057C183.465 103.383 183.303 102.598 183.303 101.705C183.303 100.811 183.465 100.023 183.791 99.3409C184.121 98.6553 184.579 98.1212 185.166 97.7386C185.757 97.3523 186.446 97.1591 187.234 97.1591C187.689 97.1591 188.138 97.2348 188.581 97.3864C189.024 97.5379 189.428 97.7841 189.791 98.125C190.155 98.4621 190.445 98.9091 190.661 99.4659C190.876 100.023 190.984 100.708 190.984 101.523V102.091H184.257V100.932H189.621C189.621 100.439 189.522 100 189.325 99.6136C189.132 99.2273 188.856 98.9223 188.496 98.6989C188.14 98.4754 187.719 98.3636 187.234 98.3636C186.7 98.3636 186.238 98.4962 185.848 98.7614C185.462 99.0227 185.164 99.3636 184.956 99.7841C184.748 100.205 184.643 100.655 184.643 101.136V101.909C184.643 102.568 184.757 103.127 184.984 103.585C185.215 104.04 185.536 104.386 185.945 104.625C186.354 104.86 186.829 104.977 187.371 104.977C187.723 104.977 188.041 104.928 188.325 104.83C188.613 104.727 188.861 104.576 189.07 104.375C189.278 104.17 189.439 103.917 189.553 103.614L190.848 103.977C190.712 104.417 190.482 104.803 190.161 105.136C189.839 105.466 189.441 105.723 188.967 105.909C188.494 106.091 187.962 106.182 187.371 106.182ZM194.001 106.091C193.721 106.091 193.481 105.991 193.28 105.79C193.079 105.589 192.979 105.348 192.979 105.068C192.979 104.788 193.079 104.547 193.28 104.347C193.481 104.146 193.721 104.045 194.001 104.045C194.282 104.045 194.522 104.146 194.723 104.347C194.924 104.547 195.024 104.788 195.024 105.068C195.024 105.254 194.977 105.424 194.882 105.58C194.791 105.735 194.668 105.86 194.513 105.955C194.361 106.045 194.191 106.091 194.001 106.091ZM200.976 106.182C200.158 106.182 199.453 105.989 198.862 105.602C198.271 105.216 197.817 104.684 197.499 104.006C197.18 103.328 197.021 102.553 197.021 101.682C197.021 100.795 197.184 100.013 197.51 99.3352C197.839 98.6534 198.298 98.1212 198.885 97.7386C199.476 97.3523 200.165 97.1591 200.953 97.1591C201.567 97.1591 202.12 97.2727 202.612 97.5C203.105 97.7273 203.508 98.0455 203.822 98.4545C204.137 98.8636 204.332 99.3409 204.408 99.8864H203.067C202.964 99.4886 202.737 99.1364 202.385 98.8295C202.036 98.5189 201.567 98.3636 200.976 98.3636C200.453 98.3636 199.995 98.5 199.601 98.7727C199.211 99.0417 198.906 99.4223 198.686 99.9148C198.47 100.403 198.362 100.977 198.362 101.636C198.362 102.311 198.468 102.898 198.68 103.398C198.896 103.898 199.199 104.286 199.589 104.562C199.983 104.839 200.446 104.977 200.976 104.977C201.324 104.977 201.641 104.917 201.925 104.795C202.209 104.674 202.449 104.5 202.646 104.273C202.843 104.045 202.983 103.773 203.067 103.455H204.408C204.332 103.97 204.144 104.434 203.845 104.847C203.55 105.256 203.158 105.581 202.669 105.824C202.184 106.062 201.62 106.182 200.976 106.182ZM209.913 106.182C209.125 106.182 208.434 105.994 207.839 105.619C207.249 105.244 206.786 104.72 206.453 104.045C206.124 103.371 205.959 102.583 205.959 101.682C205.959 100.773 206.124 99.9792 206.453 99.3011C206.786 98.6231 207.249 98.0966 207.839 97.7216C208.434 97.3466 209.125 97.1591 209.913 97.1591C210.701 97.1591 211.391 97.3466 211.982 97.7216C212.576 98.0966 213.038 98.6231 213.368 99.3011C213.701 99.9792 213.868 100.773 213.868 101.682C213.868 102.583 213.701 103.371 213.368 104.045C213.038 104.72 212.576 105.244 211.982 105.619C211.391 105.994 210.701 106.182 209.913 106.182ZM209.913 104.977C210.512 104.977 211.004 104.824 211.391 104.517C211.777 104.21 212.063 103.807 212.249 103.307C212.434 102.807 212.527 102.265 212.527 101.682C212.527 101.098 212.434 100.555 212.249 100.051C212.063 99.5473 211.777 99.1402 211.391 98.8295C211.004 98.5189 210.512 98.3636 209.913 98.3636C209.315 98.3636 208.822 98.5189 208.436 98.8295C208.05 99.1402 207.764 99.5473 207.578 100.051C207.393 100.555 207.3 101.098 207.3 101.682C207.3 102.265 207.393 102.807 207.578 103.307C207.764 103.807 208.05 104.21 208.436 104.517C208.822 104.824 209.315 104.977 209.913 104.977ZM215.915 106V97.2727H217.21V98.6364H217.324C217.506 98.1705 217.799 97.8087 218.205 97.5511C218.61 97.2898 219.097 97.1591 219.665 97.1591C220.241 97.1591 220.72 97.2898 221.102 97.5511C221.489 97.8087 221.79 98.1705 222.006 98.6364H222.097C222.32 98.1856 222.655 97.8277 223.102 97.5625C223.549 97.2936 224.085 97.1591 224.71 97.1591C225.491 97.1591 226.129 97.4034 226.625 97.892C227.121 98.3769 227.369 99.1326 227.369 100.159V106H226.028V100.159C226.028 99.5152 225.852 99.0549 225.5 98.7784C225.148 98.5019 224.733 98.3636 224.256 98.3636C223.642 98.3636 223.167 98.5492 222.83 98.9205C222.492 99.2879 222.324 99.7538 222.324 100.318V106H220.96V100.023C220.96 99.5265 220.799 99.1269 220.477 98.8239C220.155 98.517 219.741 98.3636 219.233 98.3636C218.884 98.3636 218.559 98.4564 218.256 98.642C217.956 98.8277 217.714 99.0852 217.528 99.4148C217.347 99.7405 217.256 100.117 217.256 100.545V106H215.915Z" fill="#B4B4B4"/>
<path d="M616 107.875H624C626.14 107.875 627.875 106.14 627.875 104V96C627.875 93.8599 626.14 92.125 624 92.125H616C613.86 92.125 612.125 93.8599 612.125 96V104C612.125 106.14 613.86 107.875 616 107.875Z" fill="#2B2B2B"/>
<path d="M616 107.875H624C626.14 107.875 627.875 106.14 627.875 104V96C627.875 93.8599 626.14 92.125 624 92.125H616C613.86 92.125 612.125 93.8599 612.125 96V104C612.125 106.14 613.86 107.875 616 107.875Z" stroke="#4B4B4B" stroke-width="0.25"/>
<path d="M208.557 195.545H209.776L213.875 203.966H214.011L220.906 195.545H222.193L214.318 205.082L213.014 213H211.94L213.253 205.082L208.557 195.545ZM225.246 213.273C224.156 213.273 223.232 212.98 222.477 212.395C221.727 211.804 221.192 210.991 220.874 209.957C220.556 208.923 220.508 207.741 220.729 206.412C220.945 205.116 221.371 203.966 222.008 202.96C222.65 201.949 223.434 201.156 224.36 200.582C225.286 200.003 226.281 199.713 227.343 199.713C228.44 199.713 229.363 200.011 230.113 200.608C230.869 201.199 231.406 202.014 231.724 203.054C232.042 204.088 232.096 205.267 231.886 206.591C231.67 207.881 231.238 209.031 230.59 210.043C229.948 211.048 229.164 211.838 228.238 212.412C227.312 212.986 226.315 213.273 225.246 213.273ZM225.263 212.31C226.195 212.31 227.053 212.048 227.837 211.526C228.621 211.003 229.278 210.295 229.806 209.403C230.34 208.511 230.695 207.514 230.871 206.412C231.048 205.344 231.022 204.378 230.795 203.514C230.567 202.645 230.161 201.957 229.576 201.452C228.991 200.94 228.249 200.685 227.352 200.685C226.425 200.685 225.567 200.949 224.778 201.477C223.994 202.006 223.335 202.716 222.8 203.608C222.266 204.5 221.911 205.494 221.735 206.591C221.553 207.653 221.576 208.619 221.803 209.489C222.036 210.352 222.445 211.04 223.031 211.551C223.621 212.057 224.366 212.31 225.263 212.31ZM243.555 208.355L244.962 199.909H246.001L243.82 213H242.78L243.138 210.878H243.044C242.635 211.554 242.05 212.105 241.288 212.531C240.527 212.957 239.68 213.17 238.749 213.17C237.891 213.17 237.163 212.983 236.567 212.608C235.97 212.233 235.541 211.702 235.28 211.014C235.024 210.321 234.976 209.497 235.135 208.543L236.575 199.909H237.615L236.183 208.5C236.007 209.591 236.195 210.474 236.746 211.151C237.297 211.821 238.098 212.156 239.149 212.156C239.831 212.156 240.482 212.003 241.101 211.696C241.726 211.389 242.257 210.952 242.695 210.384C243.138 209.81 243.425 209.134 243.555 208.355ZM254.938 199.909L254.776 200.838H249.065L249.219 199.909H254.938ZM251.665 196.773H252.696L250.531 209.906C250.44 210.44 250.469 210.878 250.616 211.219C250.77 211.554 251 211.804 251.307 211.969C251.619 212.128 251.974 212.207 252.372 212.207C252.548 212.207 252.707 212.193 252.849 212.165C252.991 212.131 253.134 212.094 253.276 212.054L253.369 213C253.193 213.062 253.006 213.114 252.807 213.153C252.608 213.193 252.378 213.213 252.116 213.213C251.571 213.213 251.077 213.091 250.634 212.847C250.196 212.602 249.864 212.247 249.636 211.781C249.415 211.315 249.361 210.753 249.474 210.094L251.665 196.773ZM265.774 208.355L267.18 199.909H268.22L266.038 213H264.999L265.357 210.878H265.263C264.854 211.554 264.268 212.105 263.507 212.531C262.746 212.957 261.899 213.17 260.967 213.17C260.109 213.17 259.382 212.983 258.786 212.608C258.189 212.233 257.76 211.702 257.499 211.014C257.243 210.321 257.195 209.497 257.354 208.543L258.794 199.909H259.834L258.402 208.5C258.226 209.591 258.413 210.474 258.964 211.151C259.516 211.821 260.317 212.156 261.368 212.156C262.05 212.156 262.7 212.003 263.32 211.696C263.945 211.389 264.476 210.952 264.913 210.384C265.357 209.81 265.643 209.134 265.774 208.355ZM270.713 213L273.611 195.545H274.642L273.449 202.832H273.551C273.841 202.27 274.21 201.753 274.659 201.281C275.114 200.81 275.645 200.432 276.253 200.148C276.861 199.858 277.537 199.713 278.281 199.713C279.332 199.713 280.202 200.006 280.889 200.591C281.577 201.17 282.051 201.972 282.312 202.994C282.58 204.011 282.602 205.176 282.381 206.489C282.165 207.807 281.756 208.977 281.153 210C280.557 211.017 279.818 211.818 278.938 212.403C278.062 212.983 277.097 213.273 276.04 213.273C275.29 213.273 274.659 213.131 274.148 212.847C273.642 212.562 273.239 212.185 272.938 211.713C272.642 211.236 272.438 210.713 272.324 210.145H272.205L271.727 213H270.713ZM272.827 206.48C272.645 207.594 272.645 208.591 272.827 209.472C273.009 210.347 273.369 211.04 273.909 211.551C274.449 212.057 275.165 212.31 276.057 212.31C276.949 212.31 277.761 212.054 278.494 211.543C279.227 211.026 279.841 210.327 280.335 209.446C280.83 208.565 281.168 207.577 281.349 206.48C281.526 205.384 281.523 204.398 281.341 203.523C281.159 202.648 280.798 201.957 280.259 201.452C279.719 200.94 279 200.685 278.102 200.685C277.216 200.685 276.406 200.937 275.673 201.443C274.946 201.943 274.335 202.631 273.841 203.506C273.347 204.375 273.009 205.366 272.827 206.48ZM289.949 213.273C288.767 213.273 287.787 212.98 287.009 212.395C286.23 211.81 285.688 211.009 285.381 209.991C285.074 208.974 285.028 207.815 285.244 206.514C285.46 205.207 285.892 204.043 286.54 203.02C287.188 201.997 287.98 201.19 288.918 200.599C289.855 200.009 290.866 199.713 291.952 199.713C292.685 199.713 293.352 199.861 293.955 200.156C294.563 200.452 295.074 200.875 295.489 201.426C295.903 201.972 296.19 202.634 296.349 203.412C296.509 204.19 296.509 205.065 296.349 206.037L296.23 206.685H285.866L286.028 205.739H295.344C295.503 204.795 295.457 203.943 295.207 203.182C294.957 202.415 294.543 201.807 293.963 201.358C293.389 200.909 292.685 200.685 291.849 200.685C290.997 200.685 290.185 200.932 289.412 201.426C288.645 201.915 287.986 202.568 287.435 203.386C286.889 204.205 286.526 205.105 286.344 206.088L286.241 206.616C286.06 207.741 286.082 208.733 286.31 209.591C286.543 210.443 286.974 211.111 287.605 211.594C288.236 212.071 289.06 212.31 290.077 212.31C290.787 212.31 291.418 212.19 291.969 211.952C292.526 211.707 292.997 211.412 293.384 211.065C293.776 210.719 294.082 210.384 294.304 210.06L295.165 210.443C294.903 210.881 294.528 211.318 294.04 211.756C293.551 212.187 292.963 212.548 292.276 212.838C291.588 213.128 290.812 213.273 289.949 213.273ZM308.381 213L306.643 199.909H307.708L309.165 211.474H309.259L314.56 199.909H315.643L317.1 211.466H317.185L322.487 199.909H323.594L317.492 213H316.333L314.867 201.622H314.756L309.54 213H308.381ZM328.086 213.281C327.33 213.281 326.663 213.131 326.083 212.83C325.509 212.528 325.08 212.088 324.796 211.509C324.512 210.929 324.435 210.224 324.566 209.395C324.663 208.849 324.842 208.369 325.103 207.955C325.364 207.54 325.722 207.182 326.177 206.881C326.631 206.58 327.188 206.332 327.847 206.139C328.512 205.94 329.288 205.787 330.174 205.679C330.856 205.599 331.464 205.52 331.998 205.44C332.532 205.361 332.964 205.239 333.293 205.074C333.623 204.909 333.816 204.662 333.873 204.332L333.958 203.787C334.117 202.838 333.955 202.082 333.472 201.52C332.989 200.952 332.219 200.668 331.163 200.668C330.231 200.668 329.396 200.878 328.657 201.298C327.918 201.713 327.367 202.239 327.004 202.875L326.1 202.509C326.452 201.884 326.898 201.364 327.438 200.949C327.984 200.534 328.58 200.224 329.228 200.02C329.881 199.815 330.546 199.713 331.222 199.713C331.808 199.713 332.353 199.795 332.859 199.96C333.364 200.125 333.796 200.375 334.154 200.71C334.518 201.045 334.776 201.474 334.93 201.997C335.089 202.514 335.106 203.134 334.981 203.855L333.464 213H332.424L332.825 210.639H332.748C332.441 211.128 332.055 211.574 331.589 211.977C331.129 212.375 330.603 212.693 330.012 212.932C329.421 213.165 328.779 213.281 328.086 213.281ZM328.282 212.318C329.1 212.318 329.862 212.119 330.566 211.722C331.276 211.318 331.873 210.767 332.356 210.068C332.844 209.369 333.16 208.577 333.302 207.69L333.634 205.764C333.481 205.878 333.273 205.98 333.012 206.071C332.751 206.156 332.458 206.233 332.134 206.301C331.816 206.364 331.484 206.42 331.137 206.472C330.796 206.517 330.464 206.56 330.14 206.599C329.168 206.713 328.364 206.889 327.728 207.128C327.092 207.361 326.6 207.668 326.254 208.048C325.913 208.429 325.694 208.889 325.597 209.429C325.455 210.321 325.637 211.026 326.143 211.543C326.654 212.06 327.367 212.318 328.282 212.318ZM347.846 202.73L346.849 202.969C346.763 202.486 346.61 202.074 346.388 201.733C346.167 201.386 345.86 201.122 345.468 200.94C345.082 200.753 344.596 200.659 344.011 200.659C343.028 200.659 342.19 200.903 341.496 201.392C340.803 201.881 340.394 202.511 340.269 203.284C340.167 203.898 340.286 204.403 340.627 204.801C340.968 205.199 341.545 205.503 342.357 205.713L344.3 206.216C345.289 206.472 345.996 206.892 346.423 207.477C346.854 208.062 346.999 208.778 346.857 209.625C346.744 210.347 346.445 210.983 345.962 211.534C345.485 212.08 344.877 212.506 344.138 212.812C343.4 213.119 342.576 213.273 341.667 213.273C340.44 213.273 339.479 212.986 338.786 212.412C338.093 211.832 337.721 211.006 337.67 209.932L338.701 209.727C338.741 210.574 339.019 211.219 339.536 211.662C340.053 212.099 340.789 212.318 341.744 212.318C342.829 212.318 343.746 212.06 344.496 211.543C345.246 211.026 345.687 210.366 345.817 209.565C345.914 208.969 345.803 208.469 345.485 208.065C345.167 207.662 344.633 207.366 343.883 207.179L341.897 206.668C340.863 206.401 340.121 205.974 339.673 205.389C339.229 204.798 339.079 204.077 339.221 203.224C339.34 202.531 339.624 201.92 340.073 201.392C340.528 200.864 341.102 200.452 341.795 200.156C342.488 199.861 343.252 199.713 344.087 199.713C345.207 199.713 346.073 199.977 346.687 200.506C347.3 201.028 347.687 201.77 347.846 202.73ZM357.01 213L359.908 195.545H360.939L359.746 202.832H359.848C360.138 202.27 360.507 201.753 360.956 201.281C361.411 200.81 361.942 200.432 362.55 200.148C363.158 199.858 363.834 199.713 364.578 199.713C365.629 199.713 366.499 200.006 367.186 200.591C367.874 201.17 368.348 201.972 368.609 202.994C368.876 204.011 368.899 205.176 368.678 206.489C368.462 207.807 368.053 208.977 367.45 210C366.854 211.017 366.115 211.818 365.234 212.403C364.359 212.983 363.393 213.273 362.337 213.273C361.587 213.273 360.956 213.131 360.445 212.847C359.939 212.562 359.536 212.185 359.234 211.713C358.939 211.236 358.734 210.713 358.621 210.145H358.501L358.024 213H357.01ZM359.124 206.48C358.942 207.594 358.942 208.591 359.124 209.472C359.305 210.347 359.666 211.04 360.206 211.551C360.746 212.057 361.462 212.31 362.354 212.31C363.246 212.31 364.058 212.054 364.791 211.543C365.524 211.026 366.138 210.327 366.632 209.446C367.126 208.565 367.464 207.577 367.646 206.48C367.822 205.384 367.82 204.398 367.638 203.523C367.456 202.648 367.095 201.957 366.555 201.452C366.016 200.94 365.297 200.685 364.399 200.685C363.513 200.685 362.703 200.937 361.97 201.443C361.243 201.943 360.632 202.631 360.138 203.506C359.643 204.375 359.305 205.366 359.124 206.48ZM375.112 195.545L372.214 213H371.175L374.072 195.545H375.112ZM381.411 213.273C380.32 213.273 379.396 212.98 378.641 212.395C377.891 211.804 377.357 210.991 377.038 209.957C376.72 208.923 376.672 207.741 376.893 206.412C377.109 205.116 377.536 203.966 378.172 202.96C378.814 201.949 379.598 201.156 380.524 200.582C381.45 200.003 382.445 199.713 383.507 199.713C384.604 199.713 385.527 200.011 386.277 200.608C387.033 201.199 387.57 202.014 387.888 203.054C388.206 204.088 388.26 205.267 388.05 206.591C387.834 207.881 387.402 209.031 386.754 210.043C386.112 211.048 385.328 211.838 384.402 212.412C383.476 212.986 382.479 213.273 381.411 213.273ZM381.428 212.31C382.359 212.31 383.217 212.048 384.001 211.526C384.786 211.003 385.442 210.295 385.97 209.403C386.504 208.511 386.859 207.514 387.036 206.412C387.212 205.344 387.186 204.378 386.959 203.514C386.732 202.645 386.325 201.957 385.74 201.452C385.155 200.94 384.413 200.685 383.516 200.685C382.589 200.685 381.732 200.949 380.942 201.477C380.158 202.006 379.499 202.716 378.964 203.608C378.43 204.5 378.075 205.494 377.899 206.591C377.717 207.653 377.74 208.619 377.967 209.489C378.2 210.352 378.609 211.04 379.195 211.551C379.786 212.057 380.53 212.31 381.428 212.31ZM395.433 213.273C394.302 213.273 393.364 212.977 392.62 212.386C391.876 211.795 391.353 210.989 391.052 209.966C390.756 208.943 390.714 207.787 390.924 206.497C391.134 205.196 391.563 204.034 392.211 203.011C392.859 201.989 393.657 201.185 394.606 200.599C395.555 200.009 396.577 199.713 397.674 199.713C398.509 199.713 399.239 199.884 399.864 200.224C400.489 200.565 400.975 201.04 401.322 201.648C401.668 202.256 401.839 202.96 401.833 203.761H400.776C400.759 202.852 400.467 202.114 399.898 201.545C399.336 200.972 398.563 200.685 397.58 200.685C396.683 200.685 395.839 200.935 395.049 201.435C394.265 201.929 393.6 202.611 393.055 203.48C392.509 204.349 392.143 205.349 391.955 206.48C391.773 207.588 391.796 208.582 392.023 209.463C392.256 210.338 392.671 211.031 393.268 211.543C393.87 212.054 394.626 212.31 395.535 212.31C396.183 212.31 396.799 212.182 397.384 211.926C397.969 211.665 398.484 211.301 398.927 210.835C399.37 210.364 399.7 209.812 399.915 209.182H400.972C400.711 209.994 400.305 210.707 399.754 211.321C399.208 211.935 398.563 212.415 397.819 212.761C397.08 213.102 396.285 213.273 395.433 213.273ZM405.626 207.886L405.864 206.378H406.137L413.714 199.909H415.112L408.097 205.875L407.995 205.918L405.626 207.886ZM403.87 213L406.768 195.545H407.808L404.91 213H403.87ZM411.915 213L407.509 206.02L408.353 205.33L413.202 213H411.915ZM420.543 213.273C419.361 213.273 418.381 212.98 417.602 212.395C416.824 211.81 416.281 211.009 415.974 209.991C415.668 208.974 415.622 207.815 415.838 206.514C416.054 205.207 416.486 204.043 417.134 203.02C417.781 201.997 418.574 201.19 419.511 200.599C420.449 200.009 421.46 199.713 422.545 199.713C423.278 199.713 423.946 199.861 424.548 200.156C425.156 200.452 425.668 200.875 426.082 201.426C426.497 201.972 426.784 202.634 426.943 203.412C427.102 204.19 427.102 205.065 426.943 206.037L426.824 206.685H416.46L416.622 205.739H425.938C426.097 204.795 426.051 203.943 425.801 203.182C425.551 202.415 425.136 201.807 424.557 201.358C423.983 200.909 423.278 200.685 422.443 200.685C421.591 200.685 420.778 200.932 420.006 201.426C419.239 201.915 418.58 202.568 418.028 203.386C417.483 204.205 417.119 205.105 416.938 206.088L416.835 206.616C416.653 207.741 416.676 208.733 416.903 209.591C417.136 210.443 417.568 211.111 418.199 211.594C418.83 212.071 419.653 212.31 420.67 212.31C421.381 212.31 422.011 212.19 422.562 211.952C423.119 211.707 423.591 211.412 423.977 211.065C424.369 210.719 424.676 210.384 424.898 210.06L425.759 210.443C425.497 210.881 425.122 211.318 424.634 211.756C424.145 212.187 423.557 212.548 422.869 212.838C422.182 213.128 421.406 213.273 420.543 213.273ZM433.836 213.273C432.779 213.273 431.907 212.983 431.219 212.403C430.532 211.824 430.058 211.026 429.796 210.009C429.535 208.986 429.512 207.812 429.728 206.489C429.95 205.176 430.362 204.011 430.964 202.994C431.566 201.972 432.308 201.17 433.188 200.591C434.069 200.006 435.032 199.713 436.077 199.713C436.827 199.713 437.455 199.858 437.961 200.148C438.472 200.432 438.876 200.81 439.171 201.281C439.472 201.753 439.677 202.27 439.785 202.832H439.887L441.097 195.545H442.129L439.231 213H438.217L438.694 210.145H438.575C438.273 210.707 437.896 211.227 437.441 211.705C436.987 212.176 436.458 212.557 435.856 212.847C435.254 213.131 434.58 213.273 433.836 213.273ZM433.998 212.31C434.884 212.31 435.694 212.057 436.427 211.551C437.16 211.04 437.773 210.347 438.268 209.472C438.762 208.591 439.103 207.594 439.29 206.48C439.478 205.366 439.475 204.375 439.282 203.506C439.094 202.631 438.728 201.943 438.183 201.443C437.637 200.937 436.921 200.685 436.035 200.685C435.137 200.685 434.325 200.94 433.597 201.452C432.87 201.957 432.262 202.648 431.773 203.523C431.285 204.398 430.95 205.384 430.768 206.48C430.586 207.577 430.583 208.565 430.759 209.446C430.941 210.327 431.302 211.026 431.842 211.543C432.381 212.054 433.1 212.31 433.998 212.31ZM451.018 213L453.915 195.545H454.947L453.754 202.832H453.856C454.146 202.27 454.515 201.753 454.964 201.281C455.418 200.81 455.95 200.432 456.558 200.148C457.165 199.858 457.842 199.713 458.586 199.713C459.637 199.713 460.506 200.006 461.194 200.591C461.881 201.17 462.356 201.972 462.617 202.994C462.884 204.011 462.907 205.176 462.685 206.489C462.469 207.807 462.06 208.977 461.458 210C460.862 211.017 460.123 211.818 459.242 212.403C458.367 212.983 457.401 213.273 456.344 213.273C455.594 213.273 454.964 213.131 454.452 212.847C453.947 212.562 453.543 212.185 453.242 211.713C452.947 211.236 452.742 210.713 452.629 210.145H452.509L452.032 213H451.018ZM453.131 206.48C452.95 207.594 452.95 208.591 453.131 209.472C453.313 210.347 453.674 211.04 454.214 211.551C454.754 212.057 455.469 212.31 456.362 212.31C457.254 212.31 458.066 212.054 458.799 211.543C459.532 211.026 460.146 210.327 460.64 209.446C461.134 208.565 461.472 207.577 461.654 206.48C461.83 205.384 461.827 204.398 461.646 203.523C461.464 202.648 461.103 201.957 460.563 201.452C460.023 200.94 459.305 200.685 458.407 200.685C457.521 200.685 456.711 200.937 455.978 201.443C455.251 201.943 454.64 202.631 454.146 203.506C453.651 204.375 453.313 205.366 453.131 206.48ZM464.731 217.909C464.469 217.909 464.217 217.881 463.972 217.824C463.734 217.767 463.518 217.693 463.325 217.602L463.776 216.69C464.265 216.895 464.728 216.963 465.165 216.895C465.609 216.832 466.023 216.625 466.41 216.273C466.802 215.92 467.171 215.42 467.518 214.773L468.387 213.136L465.83 199.909H466.896L469.094 211.67H469.188L475.299 199.909H476.467L468.396 215.224C468.077 215.821 467.725 216.318 467.339 216.716C466.952 217.114 466.538 217.412 466.094 217.611C465.657 217.81 465.202 217.909 464.731 217.909ZM483.841 213L484.003 212.122L496.523 196.534H486.602L486.756 195.545H497.989L497.869 196.423L485.307 212.011H495.347L495.176 213H483.841ZM504.05 213.273C502.869 213.273 501.888 212.98 501.11 212.395C500.332 211.81 499.789 211.009 499.482 209.991C499.175 208.974 499.13 207.815 499.346 206.514C499.562 205.207 499.994 204.043 500.641 203.02C501.289 201.997 502.082 201.19 503.019 200.599C503.957 200.009 504.968 199.713 506.053 199.713C506.786 199.713 507.454 199.861 508.056 200.156C508.664 200.452 509.175 200.875 509.59 201.426C510.005 201.972 510.292 202.634 510.451 203.412C510.61 204.19 510.61 205.065 510.451 206.037L510.332 206.685H499.968L500.13 205.739H509.445C509.604 204.795 509.559 203.943 509.309 203.182C509.059 202.415 508.644 201.807 508.065 201.358C507.491 200.909 506.786 200.685 505.951 200.685C505.099 200.685 504.286 200.932 503.513 201.426C502.746 201.915 502.087 202.568 501.536 203.386C500.991 204.205 500.627 205.105 500.445 206.088L500.343 206.616C500.161 207.741 500.184 208.733 500.411 209.591C500.644 210.443 501.076 211.111 501.707 211.594C502.337 212.071 503.161 212.31 504.178 212.31C504.888 212.31 505.519 212.19 506.07 211.952C506.627 211.707 507.099 211.412 507.485 211.065C507.877 210.719 508.184 210.384 508.406 210.06L509.266 210.443C509.005 210.881 508.63 211.318 508.141 211.756C507.653 212.187 507.065 212.548 506.377 212.838C505.69 213.128 504.914 213.273 504.05 213.273ZM515.324 204.511L513.918 213H512.878L515.06 199.909H516.074L515.733 201.98H515.835C516.244 201.304 516.824 200.761 517.574 200.352C518.324 199.943 519.165 199.739 520.097 199.739C520.972 199.739 521.713 199.926 522.321 200.301C522.929 200.676 523.364 201.21 523.625 201.903C523.886 202.591 523.938 203.412 523.778 204.366L522.338 213H521.298L522.73 204.409C522.912 203.295 522.736 202.401 522.202 201.724C521.673 201.043 520.866 200.702 519.781 200.702C519.048 200.702 518.366 200.861 517.736 201.179C517.111 201.497 516.585 201.943 516.159 202.517C515.733 203.085 515.455 203.75 515.324 204.511ZM531.125 213.273C530.068 213.273 529.196 212.983 528.509 212.403C527.821 211.824 527.347 211.026 527.085 210.009C526.824 208.986 526.801 207.812 527.017 206.489C527.239 205.176 527.651 204.011 528.253 202.994C528.855 201.972 529.597 201.17 530.477 200.591C531.358 200.006 532.321 199.713 533.366 199.713C534.116 199.713 534.744 199.858 535.25 200.148C535.761 200.432 536.165 200.81 536.46 201.281C536.761 201.753 536.966 202.27 537.074 202.832H537.176L538.386 195.545H539.418L536.52 213H535.506L535.983 210.145H535.864C535.563 210.707 535.185 211.227 534.73 211.705C534.276 212.176 533.747 212.557 533.145 212.847C532.543 213.131 531.869 213.273 531.125 213.273ZM531.287 212.31C532.173 212.31 532.983 212.057 533.716 211.551C534.449 211.04 535.063 210.347 535.557 209.472C536.051 208.591 536.392 207.594 536.58 206.48C536.767 205.366 536.764 204.375 536.571 203.506C536.384 202.631 536.017 201.943 535.472 201.443C534.926 200.937 534.21 200.685 533.324 200.685C532.426 200.685 531.614 200.94 530.886 201.452C530.159 201.957 529.551 202.648 529.062 203.523C528.574 204.398 528.239 205.384 528.057 206.48C527.875 207.577 527.872 208.565 528.048 209.446C528.23 210.327 528.591 211.026 529.131 211.543C529.67 212.054 530.389 212.31 531.287 212.31ZM546.082 213.273C544.991 213.273 544.068 212.98 543.312 212.395C542.562 211.804 542.028 210.991 541.71 209.957C541.392 208.923 541.344 207.741 541.565 206.412C541.781 205.116 542.207 203.966 542.844 202.96C543.486 201.949 544.27 201.156 545.196 200.582C546.122 200.003 547.116 199.713 548.179 199.713C549.276 199.713 550.199 200.011 550.949 200.608C551.705 201.199 552.241 202.014 552.56 203.054C552.878 204.088 552.932 205.267 552.722 206.591C552.506 207.881 552.074 209.031 551.426 210.043C550.784 211.048 550 211.838 549.074 212.412C548.148 212.986 547.151 213.273 546.082 213.273ZM546.099 212.31C547.031 212.31 547.889 212.048 548.673 211.526C549.457 211.003 550.114 210.295 550.642 209.403C551.176 208.511 551.531 207.514 551.707 206.412C551.884 205.344 551.858 204.378 551.631 203.514C551.403 202.645 550.997 201.957 550.412 201.452C549.827 200.94 549.085 200.685 548.188 200.685C547.261 200.685 546.403 200.949 545.614 201.477C544.83 202.006 544.17 202.716 543.636 203.608C543.102 204.5 542.747 205.494 542.571 206.591C542.389 207.653 542.412 208.619 542.639 209.489C542.872 210.352 543.281 211.04 543.866 211.551C544.457 212.057 545.202 212.31 546.099 212.31Z" fill="#B4B4B4"/>
<rect x="115.5" y="271.5" width="539" height="189" rx="7.5" fill="#181818" stroke="#232222"/>
<path d="M299.647 317.848L296.081 323.434L296.618 322.091V323.745C296.618 324.468 296.629 325.016 296.65 325.389C296.672 325.754 296.69 325.972 296.704 326.044L297.907 326.259L297.875 327H293.653L293.6 326.259L294.803 326.044C294.817 325.972 294.835 325.754 294.856 325.389C294.878 325.016 294.889 324.468 294.889 323.745V322.091L295.308 323.434L291.87 317.848L291.011 317.611L291.043 316.881H294.921L294.975 317.611L293.922 317.848L296.36 321.833H296.049L298.412 317.848L297.198 317.611L297.252 316.881H300.475L300.528 317.611L299.647 317.848ZM305.029 327.129C303.883 327.129 302.96 326.774 302.258 326.065C301.556 325.356 301.205 324.44 301.205 323.315C301.205 322.513 301.384 321.822 301.742 321.242C302.1 320.655 302.573 320.204 303.16 319.889C303.755 319.566 304.403 319.405 305.104 319.405C306.2 319.405 307.081 319.756 307.747 320.458C308.42 321.16 308.757 322.076 308.757 323.208C308.757 323.946 308.592 324.612 308.263 325.206C307.933 325.793 307.486 326.262 306.92 326.613C306.361 326.957 305.731 327.129 305.029 327.129ZM305.201 326.248C305.738 326.248 306.164 326.008 306.479 325.528C306.795 325.041 306.952 324.397 306.952 323.595C306.952 322.599 306.762 321.797 306.383 321.188C306.003 320.573 305.502 320.265 304.879 320.265C304.32 320.265 303.873 320.512 303.536 321.006C303.2 321.493 303.031 322.148 303.031 322.972C303.031 323.924 303.235 324.708 303.644 325.324C304.052 325.94 304.571 326.248 305.201 326.248ZM317.544 325.679L318.64 325.958V326.57L316.169 327.183L315.857 326.968L315.879 325.851L315.825 325.829C315.489 326.323 315.141 326.663 314.783 326.85C314.425 327.036 314.042 327.129 313.634 327.129C312.839 327.129 312.184 326.889 311.668 326.409C311.152 325.922 310.895 325.188 310.895 324.207V322.725C310.895 322.452 310.887 322.173 310.873 321.887C310.859 321.6 310.837 321.307 310.809 321.006L309.638 320.759V320.125L312.237 319.438L312.603 319.728C312.574 320.071 312.552 320.458 312.538 320.888C312.531 321.317 312.527 321.765 312.527 322.23L312.517 323.992C312.517 324.665 312.667 325.149 312.968 325.442C313.276 325.729 313.68 325.872 314.182 325.872C314.461 325.872 314.747 325.797 315.041 325.646C315.342 325.489 315.603 325.235 315.825 324.884V322.972C315.825 322.213 315.797 321.557 315.739 321.006L314.482 320.759V320.125L317.157 319.438L317.458 319.695C317.444 320.125 317.433 320.526 317.426 320.898C317.426 321.264 317.426 321.69 317.426 322.177V323.455C317.426 323.978 317.437 324.425 317.458 324.798C317.487 325.17 317.515 325.464 317.544 325.679ZM325.676 327.129C325.239 327.129 324.799 327.082 324.354 326.989C323.91 326.896 323.538 326.764 323.237 326.592L323.151 324.69H324.075L324.44 325.937C324.82 326.201 325.275 326.334 325.805 326.334C326.184 326.334 326.485 326.248 326.707 326.076C326.929 325.897 327.04 325.661 327.04 325.367C327.04 325.074 326.933 324.823 326.718 324.615C326.51 324.408 326.091 324.175 325.461 323.917C324.637 323.58 324.057 323.244 323.721 322.907C323.384 322.563 323.216 322.127 323.216 321.597C323.216 320.959 323.502 320.437 324.075 320.028C324.648 319.613 325.389 319.405 326.299 319.405C327.036 319.405 327.67 319.52 328.2 319.749L328.383 321.597H327.47L327.072 320.404C326.814 320.254 326.51 320.179 326.159 320.179C325.772 320.179 325.465 320.272 325.235 320.458C325.006 320.637 324.892 320.866 324.892 321.146C324.892 321.461 325.017 321.722 325.268 321.93C325.525 322.137 325.991 322.388 326.664 322.682C327.423 323.011 327.957 323.348 328.265 323.691C328.58 324.028 328.737 324.443 328.737 324.938C328.737 325.589 328.451 326.119 327.878 326.527C327.305 326.928 326.571 327.129 325.676 327.129ZM329.769 327L329.715 326.334L330.789 326.055C330.811 325.89 330.832 325.535 330.854 324.991C330.875 324.447 330.886 323.756 330.886 322.918V320.759C330.886 320.236 330.882 319.685 330.875 319.104C330.868 318.517 330.857 317.991 330.843 317.525C330.836 317.06 330.821 316.738 330.8 316.559L329.521 316.387L329.489 315.764L332.196 315.022L332.572 315.28C332.551 315.753 332.533 316.229 332.519 316.709C332.504 317.182 332.493 317.729 332.486 318.353C332.479 318.968 332.468 319.738 332.454 320.662L332.508 320.673C333.245 319.828 334.073 319.405 334.989 319.405C335.648 319.405 336.228 319.66 336.729 320.168C337.238 320.669 337.492 321.432 337.492 322.456V324.282C337.492 324.683 337.503 325.052 337.524 325.389C337.546 325.718 337.571 325.94 337.6 326.055L338.663 326.334L338.609 327H334.871L334.817 326.334L335.816 326.055C335.831 325.926 335.845 325.718 335.859 325.432C335.881 325.145 335.892 324.791 335.892 324.368V322.639C335.892 321.937 335.723 321.428 335.387 321.113C335.05 320.798 334.671 320.641 334.248 320.641C333.532 320.641 332.945 320.959 332.486 321.597V324.164C332.486 325.195 332.515 325.826 332.572 326.055L333.625 326.334L333.593 327H329.769ZM343.486 327.129C342.34 327.129 341.417 326.774 340.715 326.065C340.013 325.356 339.662 324.44 339.662 323.315C339.662 322.513 339.841 321.822 340.199 321.242C340.557 320.655 341.03 320.204 341.617 319.889C342.212 319.566 342.86 319.405 343.562 319.405C344.657 319.405 345.538 319.756 346.204 320.458C346.877 321.16 347.214 322.076 347.214 323.208C347.214 323.946 347.049 324.612 346.72 325.206C346.39 325.793 345.943 326.262 345.377 326.613C344.818 326.957 344.188 327.129 343.486 327.129ZM343.658 326.248C344.195 326.248 344.621 326.008 344.937 325.528C345.252 325.041 345.409 324.397 345.409 323.595C345.409 322.599 345.219 321.797 344.84 321.188C344.46 320.573 343.959 320.265 343.336 320.265C342.777 320.265 342.33 320.512 341.993 321.006C341.657 321.493 341.488 322.148 341.488 322.972C341.488 323.924 341.692 324.708 342.101 325.324C342.509 325.94 343.028 326.248 343.658 326.248ZM356.001 325.679L357.097 325.958V326.57L354.626 327.183L354.314 326.968L354.336 325.851L354.282 325.829C353.946 326.323 353.598 326.663 353.24 326.85C352.882 327.036 352.499 327.129 352.091 327.129C351.296 327.129 350.641 326.889 350.125 326.409C349.609 325.922 349.352 325.188 349.352 324.207V322.725C349.352 322.452 349.344 322.173 349.33 321.887C349.316 321.6 349.294 321.307 349.266 321.006L348.095 320.759V320.125L350.694 319.438L351.06 319.728C351.031 320.071 351.009 320.458 350.995 320.888C350.988 321.317 350.984 321.765 350.984 322.23L350.974 323.992C350.974 324.665 351.124 325.149 351.425 325.442C351.733 325.729 352.137 325.872 352.639 325.872C352.918 325.872 353.204 325.797 353.498 325.646C353.799 325.489 354.06 325.235 354.282 324.884V322.972C354.282 322.213 354.254 321.557 354.196 321.006L352.939 320.759V320.125L355.614 319.438L355.915 319.695C355.901 320.125 355.89 320.526 355.883 320.898C355.883 321.264 355.883 321.69 355.883 322.177V323.455C355.883 323.978 355.894 324.425 355.915 324.798C355.944 325.17 355.972 325.464 356.001 325.679ZM357.859 327L357.806 326.312L358.934 326.055C358.955 325.897 358.977 325.546 358.998 325.002C359.02 324.451 359.03 323.756 359.03 322.918V320.748C359.03 320.189 359.027 319.62 359.02 319.04C359.012 318.453 359.002 317.934 358.987 317.482C358.98 317.031 358.966 316.723 358.944 316.559L357.666 316.387L357.634 315.764L360.373 315.022L360.76 315.28C360.745 315.774 360.731 316.258 360.717 316.73C360.702 317.196 360.692 317.719 360.685 318.299C360.677 318.879 360.674 319.584 360.674 320.415L360.652 323.111C360.652 323.835 360.66 324.476 360.674 325.034C360.688 325.586 360.71 325.926 360.738 326.055L361.855 326.312L361.823 327H357.859ZM368.827 327.183L368.494 326.968L368.516 325.851L368.462 325.829C368.132 326.309 367.789 326.646 367.431 326.839C367.073 327.032 366.697 327.129 366.303 327.129C365.665 327.129 365.085 326.979 364.562 326.678C364.047 326.37 363.639 325.947 363.338 325.41C363.037 324.873 362.887 324.25 362.887 323.541C362.887 322.703 363.076 321.976 363.456 321.36C363.843 320.737 364.337 320.257 364.938 319.921C365.54 319.584 366.174 319.416 366.84 319.416C367.126 319.416 367.42 319.448 367.721 319.513C368.021 319.577 368.276 319.677 368.483 319.813C368.483 319.534 368.48 319.173 368.473 318.729C368.465 318.277 368.455 317.851 368.44 317.45C368.433 317.042 368.423 316.766 368.408 316.623L367.087 316.397L367.044 315.764L369.826 315.022L370.181 315.28C370.152 315.996 370.127 316.677 370.105 317.321C370.091 317.966 370.084 318.643 370.084 319.352L370.062 323.337C370.062 323.924 370.077 324.415 370.105 324.809C370.141 325.202 370.166 325.493 370.181 325.679L371.309 325.958V326.57L368.827 327.183ZM366.861 325.829C367.148 325.829 367.424 325.765 367.688 325.636C367.953 325.5 368.218 325.267 368.483 324.938V321.199C368.283 320.863 368.036 320.623 367.742 320.479C367.449 320.336 367.155 320.265 366.861 320.265C366.195 320.265 365.665 320.519 365.271 321.027C364.878 321.536 364.681 322.205 364.681 323.036C364.681 323.924 364.892 324.612 365.314 325.099C365.737 325.586 366.253 325.829 366.861 325.829ZM376.271 326.538C376.3 325.944 376.314 325.414 376.314 324.948C376.322 324.476 376.325 323.971 376.325 323.434V320.748C376.325 320.168 376.322 319.584 376.314 318.997C376.307 318.403 376.297 317.883 376.282 317.439C376.275 316.988 376.264 316.688 376.25 316.537L374.982 316.387L374.95 315.764L377.646 315.022L378.033 315.28C378.012 315.76 377.994 316.24 377.979 316.72C377.965 317.2 377.951 317.751 377.937 318.374C377.929 318.99 377.915 319.756 377.894 320.673L377.947 320.694C378.212 320.336 378.556 320.032 378.979 319.781C379.408 319.531 379.867 319.405 380.354 319.405C380.926 319.405 381.456 319.545 381.943 319.824C382.43 320.104 382.821 320.508 383.114 321.038C383.415 321.561 383.565 322.195 383.565 322.939C383.565 323.749 383.372 324.468 382.985 325.099C382.599 325.729 382.072 326.227 381.406 326.592C380.747 326.95 380.003 327.129 379.172 327.129C378.649 327.129 378.141 327.075 377.646 326.968C377.152 326.86 376.694 326.717 376.271 326.538ZM379.559 326.141C380.196 326.141 380.722 325.901 381.138 325.421C381.553 324.941 381.764 324.232 381.771 323.294C381.779 322.406 381.567 321.754 381.138 321.339C380.715 320.924 380.207 320.716 379.612 320.716C379.297 320.716 378.989 320.784 378.688 320.92C378.395 321.056 378.141 321.264 377.926 321.543V325.625C378.133 325.783 378.373 325.908 378.646 326.001C378.925 326.094 379.229 326.141 379.559 326.141ZM388.539 327.129C387.852 327.129 387.232 326.975 386.681 326.667C386.136 326.359 385.703 325.926 385.381 325.367C385.066 324.809 384.908 324.153 384.908 323.401C384.908 322.592 385.08 321.887 385.424 321.285C385.768 320.684 386.215 320.218 386.767 319.889C387.325 319.559 387.923 319.398 388.561 319.405C389.513 319.412 390.243 319.72 390.752 320.329C391.268 320.931 391.525 321.747 391.525 322.778V323.122H386.315V322.316H390.215L389.989 322.606V322.177C389.989 321.547 389.85 321.06 389.57 320.716C389.291 320.372 388.908 320.2 388.421 320.2C387.948 320.2 387.529 320.408 387.164 320.823C386.806 321.231 386.627 321.851 386.627 322.682V322.939C386.627 323.835 386.853 324.54 387.304 325.056C387.762 325.571 388.36 325.829 389.098 325.829C389.499 325.829 389.857 325.754 390.172 325.604C390.487 325.453 390.795 325.195 391.096 324.83L391.558 325.26C391.228 325.89 390.806 326.359 390.29 326.667C389.774 326.975 389.191 327.129 388.539 327.129ZM404.33 327.064L401.591 320.49L400.731 320.211L400.764 319.545H404.266L404.298 320.211L403.396 320.49L405.329 325.399H404.878L406.865 320.49L405.974 320.211L406.006 319.545H408.777L408.81 320.211L408.004 320.49L404.953 327.064H404.33ZM399.174 327.064L396.295 320.49L395.489 320.211L395.521 319.545H399.023L399.056 320.211L398.196 320.49L400.248 325.399H399.732L401.913 320.383L402.439 321.468L399.775 327.064H399.174ZM413.268 327.129C412.122 327.129 411.198 326.774 410.496 326.065C409.794 325.356 409.443 324.44 409.443 323.315C409.443 322.513 409.622 321.822 409.98 321.242C410.339 320.655 410.811 320.204 411.398 319.889C411.993 319.566 412.641 319.405 413.343 319.405C414.438 319.405 415.319 319.756 415.985 320.458C416.659 321.16 416.995 322.076 416.995 323.208C416.995 323.946 416.83 324.612 416.501 325.206C416.172 325.793 415.724 326.262 415.158 326.613C414.6 326.957 413.969 327.129 413.268 327.129ZM413.439 326.248C413.977 326.248 414.403 326.008 414.718 325.528C415.033 325.041 415.19 324.397 415.19 323.595C415.19 322.599 415.001 321.797 414.621 321.188C414.242 320.573 413.74 320.265 413.117 320.265C412.559 320.265 412.111 320.512 411.774 321.006C411.438 321.493 411.27 322.148 411.27 322.972C411.27 323.924 411.474 324.708 411.882 325.324C412.29 325.94 412.809 326.248 413.439 326.248ZM418.145 327L418.102 326.334L419.165 326.055C419.179 325.976 419.194 325.793 419.208 325.507C419.229 325.213 419.244 324.798 419.251 324.261L419.272 322.939C419.272 322.567 419.255 322.213 419.219 321.876C419.19 321.539 419.154 321.249 419.111 321.006L418.016 320.759V320.125L420.551 319.438L420.852 319.695L420.787 321.113L420.841 321.124C421.177 320.479 421.521 320.043 421.872 319.813C422.223 319.577 422.563 319.459 422.893 319.459C423.179 319.459 423.415 319.531 423.602 319.674C423.795 319.817 423.892 320.035 423.892 320.329C423.892 320.637 423.788 320.873 423.58 321.038C423.38 321.203 423.125 321.285 422.817 321.285C422.373 321.285 421.962 321.095 421.582 320.716L421.947 320.802C421.532 321.067 421.167 321.532 420.852 322.198L420.873 323.713C420.887 324.214 420.902 324.69 420.916 325.142C420.938 325.586 420.959 325.89 420.98 326.055L422.474 326.302L422.441 327H418.145ZM424.729 327L424.676 326.334L425.664 326.055C425.686 325.89 425.707 325.539 425.729 325.002C425.75 324.465 425.761 323.853 425.761 323.165V320.748C425.761 320.182 425.754 319.613 425.739 319.04C425.732 318.46 425.725 317.944 425.718 317.493C425.711 317.042 425.703 316.73 425.696 316.559L424.418 316.387L424.386 315.764L427.071 315.022L427.469 315.28C427.44 315.774 427.419 316.261 427.404 316.741C427.39 317.214 427.379 317.733 427.372 318.299C427.365 318.865 427.361 319.531 427.361 320.297L427.351 324.422C427.351 324.866 427.358 325.231 427.372 325.518C427.394 325.797 427.408 325.976 427.415 326.055L428.489 326.334L428.457 327H424.729ZM432.969 327H430.713C430.512 326.735 430.348 326.531 430.219 326.388C430.09 326.237 429.961 326.094 429.832 325.958L427.576 323.466H427.104L427.125 322.993L427.727 322.811L430.197 320.437L429.059 320.232L429.091 319.545H432.657L432.711 320.232L431.572 320.437L428.554 323.09L428.779 322.424L431.293 325.163C431.458 325.342 431.633 325.528 431.819 325.722C432.013 325.915 432.167 326.062 432.281 326.162L433.022 326.312L432.969 327ZM433.377 327L433.334 326.312L434.483 326.055C434.498 325.997 434.512 325.833 434.526 325.561C434.548 325.281 434.562 324.848 434.569 324.261V323.036C434.569 322.205 434.523 321.529 434.43 321.006L433.28 320.759V320.125L435.966 319.438L436.299 319.717C436.263 320.068 436.234 320.419 436.213 320.77C436.199 321.12 436.191 321.525 436.191 321.983V324.164C436.191 324.644 436.199 325.059 436.213 325.41C436.234 325.754 436.263 325.969 436.299 326.055L437.448 326.312L437.395 327H433.377ZM435.407 317.665C435.056 317.665 434.77 317.554 434.548 317.332C434.326 317.11 434.215 316.841 434.215 316.526C434.215 316.211 434.326 315.943 434.548 315.721C434.77 315.499 435.056 315.388 435.407 315.388C435.751 315.388 436.027 315.499 436.234 315.721C436.449 315.943 436.557 316.211 436.557 316.526C436.557 316.841 436.449 317.11 436.234 317.332C436.027 317.554 435.751 317.665 435.407 317.665ZM438.222 327L438.168 326.334L439.242 326.055C439.257 325.969 439.271 325.786 439.285 325.507C439.307 325.22 439.321 324.805 439.328 324.261L439.339 322.939C439.339 322.567 439.325 322.213 439.296 321.876C439.267 321.539 439.231 321.249 439.188 321.006L438.082 320.759V320.125L440.639 319.438L440.993 319.728L440.896 320.662L440.939 320.673C441.699 319.828 442.533 319.405 443.442 319.405C444.101 319.405 444.681 319.66 445.183 320.168C445.691 320.669 445.945 321.421 445.945 322.424V324.282C445.945 324.683 445.952 325.056 445.967 325.399C445.988 325.736 446.017 325.954 446.053 326.055L447.116 326.334L447.062 327H443.303L443.271 326.334L444.27 326.055C444.284 325.926 444.298 325.718 444.312 325.432C444.334 325.145 444.345 324.791 444.345 324.368V322.639C444.345 321.915 444.173 321.403 443.829 321.103C443.485 320.795 443.109 320.641 442.701 320.641C441.985 320.641 441.398 320.959 440.939 321.597V324.164C440.939 324.651 440.947 325.063 440.961 325.399C440.982 325.736 441.004 325.954 441.025 326.055L442.1 326.334L442.046 327H438.222ZM451.478 330.921C450.375 330.921 449.505 330.749 448.867 330.405C448.23 330.062 447.911 329.603 447.911 329.03C447.911 328.278 448.595 327.605 449.963 327.011L450.65 327.129C450.307 327.344 450.035 327.591 449.834 327.87C449.641 328.149 449.544 328.45 449.544 328.772C449.544 329.202 449.723 329.535 450.081 329.771C450.446 330.015 450.948 330.137 451.585 330.137C452.287 330.137 452.863 329.983 453.314 329.675C453.766 329.374 453.991 328.987 453.991 328.515C453.991 328.157 453.859 327.888 453.594 327.709C453.336 327.537 452.903 327.426 452.294 327.376L450.36 327.215L450.135 327.129C449.662 327.129 449.272 327.021 448.964 326.807C448.663 326.585 448.513 326.305 448.513 325.969C448.513 325.639 448.67 325.324 448.985 325.023C449.308 324.723 449.748 324.465 450.307 324.25L450.543 324.572C450.163 324.852 449.974 325.088 449.974 325.281C449.974 325.611 450.217 325.793 450.704 325.829L453.046 326.076C454.7 326.227 455.527 326.9 455.527 328.096C455.527 328.626 455.348 329.102 454.99 329.524C454.639 329.954 454.156 330.294 453.54 330.545C452.931 330.796 452.244 330.921 451.478 330.921ZM451.596 324.905C450.643 324.905 449.866 324.662 449.265 324.175C448.663 323.681 448.362 323.05 448.362 322.284C448.362 321.733 448.506 321.242 448.792 320.812C449.078 320.376 449.465 320.032 449.952 319.781C450.446 319.531 451.001 319.405 451.617 319.405C452.534 319.405 453.289 319.667 453.884 320.189C454.485 320.712 454.786 321.368 454.786 322.155C454.786 322.943 454.482 323.598 453.873 324.121C453.271 324.644 452.512 324.905 451.596 324.905ZM451.703 324.11C452.133 324.11 452.477 323.946 452.734 323.616C452.992 323.28 453.121 322.828 453.121 322.263C453.121 321.632 452.981 321.128 452.702 320.748C452.423 320.368 452.054 320.179 451.596 320.179C451.166 320.179 450.815 320.361 450.543 320.727C450.271 321.085 450.135 321.55 450.135 322.123C450.135 322.717 450.278 323.197 450.564 323.562C450.858 323.928 451.238 324.11 451.703 324.11ZM455.807 320.759L453.647 320.587L452.992 319.867L455.807 319.577V320.759ZM463.906 327.129C462.76 327.129 461.837 326.774 461.135 326.065C460.433 325.356 460.082 324.44 460.082 323.315C460.082 322.513 460.261 321.822 460.619 321.242C460.977 320.655 461.45 320.204 462.037 319.889C462.632 319.566 463.28 319.405 463.981 319.405C465.077 319.405 465.958 319.756 466.624 320.458C467.297 321.16 467.634 322.076 467.634 323.208C467.634 323.946 467.469 324.612 467.14 325.206C466.81 325.793 466.363 326.262 465.797 326.613C465.238 326.957 464.608 327.129 463.906 327.129ZM464.078 326.248C464.615 326.248 465.041 326.008 465.356 325.528C465.672 325.041 465.829 324.397 465.829 323.595C465.829 322.599 465.639 321.797 465.26 321.188C464.88 320.573 464.379 320.265 463.756 320.265C463.197 320.265 462.75 320.512 462.413 321.006C462.076 321.493 461.908 322.148 461.908 322.972C461.908 323.924 462.112 324.708 462.521 325.324C462.929 325.94 463.448 326.248 464.078 326.248ZM468.772 327L468.719 326.334L469.793 326.055C469.807 325.969 469.822 325.786 469.836 325.507C469.857 325.22 469.872 324.805 469.879 324.261L469.89 322.939C469.89 322.567 469.875 322.213 469.847 321.876C469.818 321.539 469.782 321.249 469.739 321.006L468.633 320.759V320.125L471.189 319.438L471.544 319.728L471.447 320.662L471.49 320.673C472.249 319.828 473.084 319.405 473.993 319.405C474.652 319.405 475.232 319.66 475.733 320.168C476.242 320.669 476.496 321.421 476.496 322.424V324.282C476.496 324.683 476.503 325.056 476.518 325.399C476.539 325.736 476.568 325.954 476.604 326.055L477.667 326.334L477.613 327H473.854L473.821 326.334L474.82 326.055C474.835 325.926 474.849 325.718 474.863 325.432C474.885 325.145 474.896 324.791 474.896 324.368V322.639C474.896 321.915 474.724 321.403 474.38 321.103C474.036 320.795 473.66 320.641 473.252 320.641C472.536 320.641 471.949 320.959 471.49 321.597V324.164C471.49 324.651 471.497 325.063 471.512 325.399C471.533 325.736 471.555 325.954 471.576 326.055L472.65 326.334L472.597 327H468.772Z" fill="#858585"/>
<path d="M250.159 353H248.045C247.92 352.392 247.702 351.858 247.389 351.398C247.082 350.938 246.707 350.551 246.264 350.239C245.827 349.92 245.341 349.682 244.807 349.523C244.273 349.364 243.716 349.284 243.136 349.284C242.08 349.284 241.122 349.551 240.264 350.085C239.412 350.619 238.733 351.406 238.227 352.446C237.727 353.486 237.477 354.761 237.477 356.273C237.477 357.784 237.727 359.06 238.227 360.099C238.733 361.139 239.412 361.926 240.264 362.46C241.122 362.994 242.08 363.261 243.136 363.261C243.716 363.261 244.273 363.182 244.807 363.023C245.341 362.864 245.827 362.628 246.264 362.315C246.707 361.997 247.082 361.608 247.389 361.148C247.702 360.682 247.92 360.148 248.045 359.545H250.159C250 360.437 249.71 361.236 249.29 361.94C248.869 362.645 248.347 363.244 247.722 363.739C247.097 364.227 246.395 364.599 245.616 364.855C244.844 365.111 244.017 365.239 243.136 365.239C241.648 365.239 240.324 364.875 239.165 364.148C238.006 363.42 237.094 362.386 236.429 361.045C235.764 359.705 235.432 358.114 235.432 356.273C235.432 354.432 235.764 352.841 236.429 351.5C237.094 350.159 238.006 349.125 239.165 348.398C240.324 347.67 241.648 347.307 243.136 347.307C244.017 347.307 244.844 347.435 245.616 347.69C246.395 347.946 247.097 348.321 247.722 348.815C248.347 349.304 248.869 349.901 249.29 350.605C249.71 351.304 250 352.102 250.159 353ZM258.62 365.273C257.438 365.273 256.401 364.991 255.509 364.429C254.623 363.866 253.93 363.08 253.43 362.068C252.935 361.057 252.688 359.875 252.688 358.523C252.688 357.159 252.935 355.969 253.43 354.952C253.93 353.935 254.623 353.145 255.509 352.582C256.401 352.02 257.438 351.739 258.62 351.739C259.802 351.739 260.836 352.02 261.722 352.582C262.614 353.145 263.308 353.935 263.802 354.952C264.302 355.969 264.552 357.159 264.552 358.523C264.552 359.875 264.302 361.057 263.802 362.068C263.308 363.08 262.614 363.866 261.722 364.429C260.836 364.991 259.802 365.273 258.62 365.273ZM258.62 363.466C259.518 363.466 260.256 363.236 260.836 362.776C261.415 362.315 261.844 361.71 262.123 360.96C262.401 360.21 262.54 359.398 262.54 358.523C262.54 357.648 262.401 356.832 262.123 356.077C261.844 355.321 261.415 354.71 260.836 354.244C260.256 353.778 259.518 353.545 258.62 353.545C257.722 353.545 256.984 353.778 256.404 354.244C255.825 354.71 255.396 355.321 255.117 356.077C254.839 356.832 254.7 357.648 254.7 358.523C254.7 359.398 254.839 360.21 255.117 360.96C255.396 361.71 255.825 362.315 256.404 362.776C256.984 363.236 257.722 363.466 258.62 363.466ZM267.622 365V351.909H269.565V353.955H269.736C270.009 353.256 270.449 352.713 271.057 352.327C271.665 351.935 272.395 351.739 273.247 351.739C274.111 351.739 274.83 351.935 275.403 352.327C275.983 352.713 276.435 353.256 276.759 353.955H276.895C277.23 353.278 277.733 352.741 278.403 352.344C279.074 351.94 279.878 351.739 280.815 351.739C281.986 351.739 282.943 352.105 283.688 352.838C284.432 353.565 284.804 354.699 284.804 356.239V365H282.793V356.239C282.793 355.273 282.528 354.582 282 354.168C281.472 353.753 280.849 353.545 280.134 353.545C279.213 353.545 278.5 353.824 277.994 354.381C277.489 354.932 277.236 355.631 277.236 356.477V365H275.19V356.034C275.19 355.29 274.949 354.69 274.466 354.236C273.983 353.776 273.361 353.545 272.599 353.545C272.077 353.545 271.588 353.685 271.134 353.963C270.685 354.241 270.321 354.628 270.043 355.122C269.77 355.611 269.634 356.176 269.634 356.818V365H267.622ZM288.482 369.909V351.909H290.425V353.989H290.663C290.811 353.761 291.016 353.472 291.277 353.119C291.544 352.761 291.925 352.443 292.419 352.165C292.919 351.881 293.595 351.739 294.447 351.739C295.55 351.739 296.521 352.014 297.362 352.565C298.203 353.116 298.859 353.898 299.331 354.909C299.803 355.92 300.038 357.114 300.038 358.489C300.038 359.875 299.803 361.077 299.331 362.094C298.859 363.105 298.206 363.889 297.371 364.446C296.536 364.997 295.572 365.273 294.482 365.273C293.641 365.273 292.967 365.134 292.462 364.855C291.956 364.571 291.567 364.25 291.294 363.892C291.021 363.528 290.811 363.227 290.663 362.989H290.493V369.909H288.482ZM290.459 358.455C290.459 359.443 290.604 360.315 290.893 361.071C291.183 361.821 291.607 362.409 292.163 362.835C292.72 363.256 293.402 363.466 294.209 363.466C295.05 363.466 295.751 363.244 296.314 362.801C296.882 362.352 297.308 361.75 297.592 360.994C297.882 360.233 298.027 359.386 298.027 358.455C298.027 357.534 297.885 356.705 297.601 355.966C297.322 355.222 296.899 354.634 296.331 354.202C295.768 353.764 295.061 353.545 294.209 353.545C293.391 353.545 292.703 353.753 292.146 354.168C291.589 354.577 291.169 355.151 290.885 355.889C290.601 356.622 290.459 357.477 290.459 358.455ZM305.118 347.545V365H303.107V347.545H305.118ZM314.29 365.273C313.029 365.273 311.941 364.994 311.026 364.438C310.117 363.875 309.415 363.091 308.921 362.085C308.433 361.074 308.188 359.898 308.188 358.557C308.188 357.216 308.433 356.034 308.921 355.011C309.415 353.983 310.103 353.182 310.984 352.608C311.87 352.028 312.904 351.739 314.086 351.739C314.768 351.739 315.441 351.852 316.106 352.08C316.771 352.307 317.376 352.676 317.921 353.188C318.467 353.693 318.901 354.364 319.225 355.199C319.549 356.034 319.711 357.062 319.711 358.284V359.136H309.62V357.398H317.665C317.665 356.659 317.518 356 317.222 355.42C316.933 354.841 316.518 354.384 315.978 354.048C315.444 353.713 314.813 353.545 314.086 353.545C313.285 353.545 312.592 353.744 312.006 354.142C311.427 354.534 310.981 355.045 310.668 355.676C310.356 356.307 310.2 356.983 310.2 357.705V358.864C310.2 359.852 310.37 360.69 310.711 361.378C311.058 362.06 311.538 362.58 312.151 362.938C312.765 363.29 313.478 363.466 314.29 363.466C314.819 363.466 315.296 363.392 315.722 363.244C316.154 363.091 316.526 362.864 316.839 362.562C317.151 362.256 317.393 361.875 317.563 361.42L319.506 361.966C319.302 362.625 318.958 363.205 318.475 363.705C317.992 364.199 317.396 364.585 316.685 364.864C315.975 365.136 315.177 365.273 314.29 365.273ZM328.464 351.909V353.614H321.68V351.909H328.464ZM323.657 348.773H325.668V361.25C325.668 361.818 325.751 362.244 325.915 362.528C326.086 362.807 326.302 362.994 326.563 363.091C326.83 363.182 327.112 363.227 327.407 363.227C327.629 363.227 327.81 363.216 327.952 363.193C328.094 363.165 328.208 363.142 328.293 363.125L328.702 364.932C328.566 364.983 328.376 365.034 328.131 365.085C327.887 365.142 327.577 365.17 327.202 365.17C326.634 365.17 326.077 365.048 325.532 364.804C324.992 364.56 324.543 364.188 324.185 363.688C323.833 363.188 323.657 362.557 323.657 361.795V348.773ZM336.837 365.273C335.576 365.273 334.488 364.994 333.573 364.438C332.664 363.875 331.962 363.091 331.468 362.085C330.979 361.074 330.735 359.898 330.735 358.557C330.735 357.216 330.979 356.034 331.468 355.011C331.962 353.983 332.65 353.182 333.531 352.608C334.417 352.028 335.451 351.739 336.633 351.739C337.315 351.739 337.988 351.852 338.653 352.08C339.317 352.307 339.923 352.676 340.468 353.188C341.013 353.693 341.448 354.364 341.772 355.199C342.096 356.034 342.258 357.062 342.258 358.284V359.136H332.167V357.398H340.212C340.212 356.659 340.065 356 339.769 355.42C339.479 354.841 339.065 354.384 338.525 354.048C337.991 353.713 337.36 353.545 336.633 353.545C335.832 353.545 335.138 353.744 334.553 354.142C333.974 354.534 333.528 355.045 333.215 355.676C332.903 356.307 332.746 356.983 332.746 357.705V358.864C332.746 359.852 332.917 360.69 333.258 361.378C333.604 362.06 334.085 362.58 334.698 362.938C335.312 363.29 336.025 363.466 336.837 363.466C337.366 363.466 337.843 363.392 338.269 363.244C338.701 363.091 339.073 362.864 339.386 362.562C339.698 362.256 339.94 361.875 340.11 361.42L342.053 361.966C341.849 362.625 341.505 363.205 341.022 363.705C340.539 364.199 339.942 364.585 339.232 364.864C338.522 365.136 337.724 365.273 336.837 365.273ZM352.067 369.909V351.909H354.011V353.989H354.249C354.397 353.761 354.602 353.472 354.863 353.119C355.13 352.761 355.511 352.443 356.005 352.165C356.505 351.881 357.181 351.739 358.033 351.739C359.136 351.739 360.107 352.014 360.948 352.565C361.789 353.116 362.445 353.898 362.917 354.909C363.388 355.92 363.624 357.114 363.624 358.489C363.624 359.875 363.388 361.077 362.917 362.094C362.445 363.105 361.792 363.889 360.957 364.446C360.121 364.997 359.158 365.273 358.067 365.273C357.227 365.273 356.553 365.134 356.048 364.855C355.542 364.571 355.153 364.25 354.88 363.892C354.607 363.528 354.397 363.227 354.249 362.989H354.079V369.909H352.067ZM354.045 358.455C354.045 359.443 354.19 360.315 354.479 361.071C354.769 361.821 355.192 362.409 355.749 362.835C356.306 363.256 356.988 363.466 357.795 363.466C358.636 363.466 359.337 363.244 359.9 362.801C360.468 362.352 360.894 361.75 361.178 360.994C361.468 360.233 361.613 359.386 361.613 358.455C361.613 357.534 361.471 356.705 361.187 355.966C360.908 355.222 360.485 354.634 359.917 354.202C359.354 353.764 358.647 353.545 357.795 353.545C356.977 353.545 356.289 353.753 355.732 354.168C355.175 354.577 354.755 355.151 354.471 355.889C354.187 356.622 354.045 357.477 354.045 358.455ZM366.692 365V351.909H368.636V353.886H368.772C369.011 353.239 369.442 352.713 370.067 352.31C370.692 351.906 371.397 351.705 372.181 351.705C372.329 351.705 372.513 351.707 372.735 351.713C372.957 351.719 373.124 351.727 373.238 351.739V353.784C373.17 353.767 373.013 353.741 372.769 353.707C372.531 353.668 372.278 353.648 372.011 353.648C371.374 353.648 370.806 353.781 370.306 354.048C369.812 354.31 369.42 354.673 369.13 355.139C368.846 355.599 368.704 356.125 368.704 356.716V365H366.692ZM380.542 365.273C379.36 365.273 378.323 364.991 377.431 364.429C376.545 363.866 375.852 363.08 375.352 362.068C374.857 361.057 374.61 359.875 374.61 358.523C374.61 357.159 374.857 355.969 375.352 354.952C375.852 353.935 376.545 353.145 377.431 352.582C378.323 352.02 379.36 351.739 380.542 351.739C381.724 351.739 382.758 352.02 383.644 352.582C384.536 353.145 385.229 353.935 385.724 354.952C386.224 355.969 386.474 357.159 386.474 358.523C386.474 359.875 386.224 361.057 385.724 362.068C385.229 363.08 384.536 363.866 383.644 364.429C382.758 364.991 381.724 365.273 380.542 365.273ZM380.542 363.466C381.44 363.466 382.178 363.236 382.758 362.776C383.337 362.315 383.766 361.71 384.045 360.96C384.323 360.21 384.462 359.398 384.462 358.523C384.462 357.648 384.323 356.832 384.045 356.077C383.766 355.321 383.337 354.71 382.758 354.244C382.178 353.778 381.44 353.545 380.542 353.545C379.644 353.545 378.906 353.778 378.326 354.244C377.746 354.71 377.317 355.321 377.039 356.077C376.761 356.832 376.621 357.648 376.621 358.523C376.621 359.398 376.761 360.21 377.039 360.96C377.317 361.71 377.746 362.315 378.326 362.776C378.906 363.236 379.644 363.466 380.542 363.466ZM389.544 351.909H391.555V365.955C391.555 366.761 391.416 367.46 391.138 368.051C390.865 368.642 390.45 369.099 389.893 369.423C389.342 369.747 388.646 369.909 387.805 369.909C387.737 369.909 387.669 369.909 387.601 369.909C387.533 369.909 387.464 369.909 387.396 369.909V368.034C387.464 368.034 387.527 368.034 387.584 368.034C387.641 368.034 387.703 368.034 387.771 368.034C388.385 368.034 388.834 367.852 389.118 367.489C389.402 367.131 389.544 366.619 389.544 365.955V351.909ZM390.533 349.727C390.141 349.727 389.803 349.594 389.518 349.327C389.24 349.06 389.101 348.739 389.101 348.364C389.101 347.989 389.24 347.668 389.518 347.401C389.803 347.134 390.141 347 390.533 347C390.925 347 391.26 347.134 391.538 347.401C391.822 347.668 391.964 347.989 391.964 348.364C391.964 348.739 391.822 349.06 391.538 349.327C391.26 349.594 390.925 349.727 390.533 349.727ZM400.728 365.273C399.467 365.273 398.379 364.994 397.464 364.438C396.555 363.875 395.853 363.091 395.359 362.085C394.87 361.074 394.626 359.898 394.626 358.557C394.626 357.216 394.87 356.034 395.359 355.011C395.853 353.983 396.54 353.182 397.421 352.608C398.308 352.028 399.342 351.739 400.523 351.739C401.205 351.739 401.879 351.852 402.543 352.08C403.208 352.307 403.813 352.676 404.359 353.188C404.904 353.693 405.339 354.364 405.663 355.199C405.987 356.034 406.148 357.062 406.148 358.284V359.136H396.058V357.398H404.103C404.103 356.659 403.955 356 403.66 355.42C403.37 354.841 402.955 354.384 402.415 354.048C401.881 353.713 401.251 353.545 400.523 353.545C399.722 353.545 399.029 353.744 398.444 354.142C397.864 354.534 397.418 355.045 397.106 355.676C396.793 356.307 396.637 356.983 396.637 357.705V358.864C396.637 359.852 396.808 360.69 397.148 361.378C397.495 362.06 397.975 362.58 398.589 362.938C399.202 363.29 399.915 363.466 400.728 363.466C401.256 363.466 401.734 363.392 402.16 363.244C402.592 363.091 402.964 362.864 403.276 362.562C403.589 362.256 403.83 361.875 404.001 361.42L405.944 361.966C405.739 362.625 405.396 363.205 404.913 363.705C404.43 364.199 403.833 364.585 403.123 364.864C402.413 365.136 401.614 365.273 400.728 365.273ZM414.526 365.273C413.299 365.273 412.242 364.983 411.356 364.403C410.469 363.824 409.788 363.026 409.31 362.009C408.833 360.991 408.594 359.83 408.594 358.523C408.594 357.193 408.839 356.02 409.327 355.003C409.822 353.98 410.509 353.182 411.39 352.608C412.276 352.028 413.31 351.739 414.492 351.739C415.413 351.739 416.242 351.909 416.981 352.25C417.719 352.591 418.325 353.068 418.796 353.682C419.268 354.295 419.56 355.011 419.674 355.83H417.663C417.509 355.233 417.168 354.705 416.64 354.244C416.117 353.778 415.413 353.545 414.526 353.545C413.742 353.545 413.055 353.75 412.464 354.159C411.879 354.562 411.421 355.134 411.092 355.872C410.768 356.605 410.606 357.466 410.606 358.455C410.606 359.466 410.765 360.347 411.083 361.097C411.407 361.847 411.862 362.429 412.447 362.844C413.038 363.259 413.731 363.466 414.526 363.466C415.049 363.466 415.523 363.375 415.95 363.193C416.376 363.011 416.737 362.75 417.032 362.409C417.327 362.068 417.538 361.659 417.663 361.182H419.674C419.56 361.955 419.279 362.651 418.83 363.27C418.387 363.884 417.799 364.372 417.066 364.736C416.339 365.094 415.492 365.273 414.526 365.273ZM428.308 351.909V353.614H421.523V351.909H428.308ZM423.501 348.773H425.512V361.25C425.512 361.818 425.594 362.244 425.759 362.528C425.93 362.807 426.146 362.994 426.407 363.091C426.674 363.182 426.955 363.227 427.251 363.227C427.472 363.227 427.654 363.216 427.796 363.193C427.938 363.165 428.052 363.142 428.137 363.125L428.546 364.932C428.41 364.983 428.219 365.034 427.975 365.085C427.731 365.142 427.421 365.17 427.046 365.17C426.478 365.17 425.921 365.048 425.376 364.804C424.836 364.56 424.387 364.188 424.029 363.688C423.677 363.188 423.501 362.557 423.501 361.795V348.773ZM438.083 369.909V351.909H440.026V353.989H440.265C440.413 353.761 440.617 353.472 440.879 353.119C441.146 352.761 441.526 352.443 442.021 352.165C442.521 351.881 443.197 351.739 444.049 351.739C445.151 351.739 446.123 352.014 446.964 352.565C447.805 353.116 448.461 353.898 448.933 354.909C449.404 355.92 449.64 357.114 449.64 358.489C449.64 359.875 449.404 361.077 448.933 362.094C448.461 363.105 447.808 363.889 446.972 364.446C446.137 364.997 445.174 365.273 444.083 365.273C443.242 365.273 442.569 365.134 442.063 364.855C441.558 364.571 441.168 364.25 440.896 363.892C440.623 363.528 440.413 363.227 440.265 362.989H440.094V369.909H438.083ZM440.06 358.455C440.06 359.443 440.205 360.315 440.495 361.071C440.785 361.821 441.208 362.409 441.765 362.835C442.322 363.256 443.004 363.466 443.81 363.466C444.651 363.466 445.353 363.244 445.915 362.801C446.484 362.352 446.91 361.75 447.194 360.994C447.484 360.233 447.629 359.386 447.629 358.455C447.629 357.534 447.487 356.705 447.202 355.966C446.924 355.222 446.501 354.634 445.933 354.202C445.37 353.764 444.663 353.545 443.81 353.545C442.992 353.545 442.305 353.753 441.748 354.168C441.191 354.577 440.771 355.151 440.487 355.889C440.202 356.622 440.06 357.477 440.06 358.455ZM452.708 365V351.909H454.651V353.886H454.788C455.026 353.239 455.458 352.713 456.083 352.31C456.708 351.906 457.413 351.705 458.197 351.705C458.344 351.705 458.529 351.707 458.751 351.713C458.972 351.719 459.14 351.727 459.254 351.739V353.784C459.185 353.767 459.029 353.741 458.785 353.707C458.546 353.668 458.293 353.648 458.026 353.648C457.39 353.648 456.822 353.781 456.322 354.048C455.827 354.31 455.435 354.673 455.146 355.139C454.862 355.599 454.719 356.125 454.719 356.716V365H452.708ZM466.558 365.273C465.376 365.273 464.339 364.991 463.447 364.429C462.56 363.866 461.867 363.08 461.367 362.068C460.873 361.057 460.626 359.875 460.626 358.523C460.626 357.159 460.873 355.969 461.367 354.952C461.867 353.935 462.56 353.145 463.447 352.582C464.339 352.02 465.376 351.739 466.558 351.739C467.739 351.739 468.773 352.02 469.66 352.582C470.552 353.145 471.245 353.935 471.739 354.952C472.239 355.969 472.489 357.159 472.489 358.523C472.489 359.875 472.239 361.057 471.739 362.068C471.245 363.08 470.552 363.866 469.66 364.429C468.773 364.991 467.739 365.273 466.558 365.273ZM466.558 363.466C467.455 363.466 468.194 363.236 468.773 362.776C469.353 362.315 469.782 361.71 470.06 360.96C470.339 360.21 470.478 359.398 470.478 358.523C470.478 357.648 470.339 356.832 470.06 356.077C469.782 355.321 469.353 354.71 468.773 354.244C468.194 353.778 467.455 353.545 466.558 353.545C465.66 353.545 464.921 353.778 464.342 354.244C463.762 354.71 463.333 355.321 463.055 356.077C462.776 356.832 462.637 357.648 462.637 358.523C462.637 359.398 462.776 360.21 463.055 360.96C463.333 361.71 463.762 362.315 464.342 362.776C464.921 363.236 465.66 363.466 466.558 363.466ZM475.56 369.909V351.909H477.503V353.989H477.741C477.889 353.761 478.094 353.472 478.355 353.119C478.622 352.761 479.003 352.443 479.497 352.165C479.997 351.881 480.673 351.739 481.526 351.739C482.628 351.739 483.599 352.014 484.44 352.565C485.281 353.116 485.938 353.898 486.409 354.909C486.881 355.92 487.116 357.114 487.116 358.489C487.116 359.875 486.881 361.077 486.409 362.094C485.938 363.105 485.284 363.889 484.449 364.446C483.614 364.997 482.651 365.273 481.56 365.273C480.719 365.273 480.045 365.134 479.54 364.855C479.034 364.571 478.645 364.25 478.372 363.892C478.099 363.528 477.889 363.227 477.741 362.989H477.571V369.909H475.56ZM477.537 358.455C477.537 359.443 477.682 360.315 477.972 361.071C478.261 361.821 478.685 362.409 479.241 362.835C479.798 363.256 480.48 363.466 481.287 363.466C482.128 363.466 482.83 363.244 483.392 362.801C483.96 362.352 484.386 361.75 484.67 360.994C484.96 360.233 485.105 359.386 485.105 358.455C485.105 357.534 484.963 356.705 484.679 355.966C484.401 355.222 483.977 354.634 483.409 354.202C482.847 353.764 482.139 353.545 481.287 353.545C480.469 353.545 479.781 353.753 479.224 354.168C478.668 354.577 478.247 355.151 477.963 355.889C477.679 356.622 477.537 357.477 477.537 358.455ZM495.503 365.273C494.321 365.273 493.284 364.991 492.392 364.429C491.506 363.866 490.812 363.08 490.312 362.068C489.818 361.057 489.571 359.875 489.571 358.523C489.571 357.159 489.818 355.969 490.312 354.952C490.812 353.935 491.506 353.145 492.392 352.582C493.284 352.02 494.321 351.739 495.503 351.739C496.685 351.739 497.719 352.02 498.605 352.582C499.497 353.145 500.19 353.935 500.685 354.952C501.185 355.969 501.435 357.159 501.435 358.523C501.435 359.875 501.185 361.057 500.685 362.068C500.19 363.08 499.497 363.866 498.605 364.429C497.719 364.991 496.685 365.273 495.503 365.273ZM495.503 363.466C496.401 363.466 497.139 363.236 497.719 362.776C498.298 362.315 498.727 361.71 499.006 360.96C499.284 360.21 499.423 359.398 499.423 358.523C499.423 357.648 499.284 356.832 499.006 356.077C498.727 355.321 498.298 354.71 497.719 354.244C497.139 353.778 496.401 353.545 495.503 353.545C494.605 353.545 493.866 353.778 493.287 354.244C492.707 354.71 492.278 355.321 492 356.077C491.722 356.832 491.582 357.648 491.582 358.523C491.582 359.398 491.722 360.21 492 360.96C492.278 361.71 492.707 362.315 493.287 362.776C493.866 363.236 494.605 363.466 495.503 363.466ZM513.778 354.841L511.971 355.352C511.857 355.051 511.69 354.759 511.468 354.474C511.252 354.185 510.957 353.946 510.582 353.759C510.207 353.571 509.727 353.477 509.141 353.477C508.34 353.477 507.673 353.662 507.138 354.031C506.61 354.395 506.346 354.858 506.346 355.42C506.346 355.92 506.528 356.315 506.891 356.605C507.255 356.895 507.823 357.136 508.596 357.33L510.539 357.807C511.71 358.091 512.582 358.526 513.156 359.111C513.729 359.69 514.016 360.437 514.016 361.352C514.016 362.102 513.8 362.773 513.369 363.364C512.942 363.955 512.346 364.42 511.579 364.761C510.812 365.102 509.92 365.273 508.903 365.273C507.567 365.273 506.462 364.983 505.587 364.403C504.712 363.824 504.158 362.977 503.925 361.864L505.835 361.386C506.016 362.091 506.36 362.619 506.866 362.972C507.377 363.324 508.045 363.5 508.869 363.5C509.806 363.5 510.55 363.301 511.102 362.903C511.658 362.5 511.937 362.017 511.937 361.455C511.937 361 511.778 360.619 511.46 360.312C511.141 360 510.653 359.767 509.994 359.614L507.812 359.102C506.613 358.818 505.732 358.378 505.17 357.781C504.613 357.179 504.335 356.426 504.335 355.523C504.335 354.784 504.542 354.131 504.957 353.562C505.377 352.994 505.948 352.548 506.67 352.224C507.397 351.901 508.221 351.739 509.141 351.739C510.437 351.739 511.454 352.023 512.192 352.591C512.937 353.159 513.465 353.909 513.778 354.841ZM520.896 365.307C520.067 365.307 519.314 365.151 518.638 364.838C517.962 364.52 517.425 364.062 517.027 363.466C516.629 362.864 516.43 362.136 516.43 361.284C516.43 360.534 516.578 359.926 516.874 359.46C517.169 358.989 517.564 358.619 518.058 358.352C518.553 358.085 519.098 357.886 519.695 357.756C520.297 357.619 520.902 357.511 521.51 357.432C522.305 357.33 522.95 357.253 523.445 357.202C523.945 357.145 524.308 357.051 524.536 356.92C524.768 356.79 524.885 356.562 524.885 356.239V356.17C524.885 355.33 524.655 354.676 524.195 354.21C523.74 353.744 523.05 353.511 522.124 353.511C521.163 353.511 520.411 353.722 519.865 354.142C519.32 354.562 518.936 355.011 518.714 355.489L516.805 354.807C517.146 354.011 517.601 353.392 518.169 352.949C518.743 352.5 519.368 352.187 520.044 352.011C520.726 351.83 521.396 351.739 522.055 351.739C522.476 351.739 522.959 351.79 523.504 351.892C524.055 351.989 524.587 352.19 525.098 352.497C525.615 352.804 526.044 353.267 526.385 353.886C526.726 354.506 526.896 355.335 526.896 356.375V365H524.885V363.227H524.783C524.646 363.511 524.419 363.815 524.101 364.139C523.783 364.463 523.359 364.739 522.831 364.966C522.303 365.193 521.658 365.307 520.896 365.307ZM521.203 363.5C521.999 363.5 522.669 363.344 523.214 363.031C523.766 362.719 524.18 362.315 524.459 361.821C524.743 361.327 524.885 360.807 524.885 360.261V358.42C524.8 358.523 524.612 358.616 524.322 358.702C524.038 358.781 523.709 358.852 523.334 358.915C522.964 358.972 522.604 359.023 522.251 359.068C521.905 359.108 521.624 359.142 521.408 359.17C520.885 359.239 520.396 359.349 519.942 359.503C519.493 359.651 519.129 359.875 518.851 360.176C518.578 360.472 518.442 360.875 518.442 361.386C518.442 362.085 518.7 362.614 519.217 362.972C519.74 363.324 520.402 363.5 521.203 363.5ZM532.579 347.545V365H530.567V347.545H532.579Z" fill="#F0F0F0"/>
<path d="M343 395.25H426C430.28 395.25 433.75 398.72 433.75 403V419C433.75 423.28 430.28 426.75 426 426.75H343C338.72 426.75 335.25 423.28 335.25 419V403C335.25 398.72 338.72 395.25 343 395.25Z" fill="#2B2B2B"/>
<path d="M343 395.25H426C430.28 395.25 433.75 398.72 433.75 403V419C433.75 423.28 430.28 426.75 426 426.75H343C338.72 426.75 335.25 423.28 335.25 419V403C335.25 398.72 338.72 395.25 343 395.25Z" stroke="#4B4B4B" stroke-width="0.5"/>
<path d="M360.773 408.5H359.364C359.28 408.095 359.134 407.739 358.926 407.432C358.722 407.125 358.472 406.867 358.176 406.659C357.884 406.447 357.561 406.288 357.205 406.182C356.848 406.076 356.477 406.023 356.091 406.023C355.386 406.023 354.748 406.201 354.176 406.557C353.608 406.913 353.155 407.438 352.818 408.131C352.485 408.824 352.318 409.674 352.318 410.682C352.318 411.689 352.485 412.54 352.818 413.233C353.155 413.926 353.608 414.451 354.176 414.807C354.748 415.163 355.386 415.341 356.091 415.341C356.477 415.341 356.848 415.288 357.205 415.182C357.561 415.076 357.884 414.919 358.176 414.71C358.472 414.498 358.722 414.239 358.926 413.932C359.134 413.621 359.28 413.265 359.364 412.864H360.773C360.667 413.458 360.473 413.991 360.193 414.46C359.913 414.93 359.564 415.33 359.148 415.659C358.731 415.985 358.263 416.233 357.744 416.403C357.229 416.574 356.678 416.659 356.091 416.659C355.098 416.659 354.216 416.417 353.443 415.932C352.67 415.447 352.063 414.758 351.619 413.864C351.176 412.97 350.955 411.909 350.955 410.682C350.955 409.455 351.176 408.394 351.619 407.5C352.063 406.606 352.67 405.917 353.443 405.432C354.216 404.947 355.098 404.705 356.091 404.705C356.678 404.705 357.229 404.79 357.744 404.96C358.263 405.131 358.731 405.381 359.148 405.71C359.564 406.036 359.913 406.434 360.193 406.903C360.473 407.369 360.667 407.902 360.773 408.5ZM366.413 416.682C365.625 416.682 364.934 416.494 364.339 416.119C363.749 415.744 363.286 415.22 362.953 414.545C362.624 413.871 362.459 413.083 362.459 412.182C362.459 411.273 362.624 410.479 362.953 409.801C363.286 409.123 363.749 408.597 364.339 408.222C364.934 407.847 365.625 407.659 366.413 407.659C367.201 407.659 367.891 407.847 368.482 408.222C369.076 408.597 369.538 409.123 369.868 409.801C370.201 410.479 370.368 411.273 370.368 412.182C370.368 413.083 370.201 413.871 369.868 414.545C369.538 415.22 369.076 415.744 368.482 416.119C367.891 416.494 367.201 416.682 366.413 416.682ZM366.413 415.477C367.012 415.477 367.504 415.324 367.891 415.017C368.277 414.71 368.563 414.307 368.749 413.807C368.934 413.307 369.027 412.765 369.027 412.182C369.027 411.598 368.934 411.055 368.749 410.551C368.563 410.047 368.277 409.64 367.891 409.33C367.504 409.019 367.012 408.864 366.413 408.864C365.815 408.864 365.322 409.019 364.936 409.33C364.55 409.64 364.264 410.047 364.078 410.551C363.893 411.055 363.8 411.598 363.8 412.182C363.8 412.765 363.893 413.307 364.078 413.807C364.264 414.307 364.55 414.71 364.936 415.017C365.322 415.324 365.815 415.477 366.413 415.477ZM373.756 411.25V416.5H372.415V407.773H373.71V409.136H373.824C374.028 408.693 374.339 408.337 374.756 408.068C375.172 407.795 375.71 407.659 376.369 407.659C376.96 407.659 377.477 407.78 377.92 408.023C378.364 408.261 378.708 408.625 378.955 409.114C379.201 409.598 379.324 410.212 379.324 410.955V416.5H377.983V411.045C377.983 410.36 377.805 409.826 377.449 409.443C377.093 409.057 376.604 408.864 375.983 408.864C375.555 408.864 375.172 408.956 374.835 409.142C374.502 409.328 374.239 409.598 374.045 409.955C373.852 410.311 373.756 410.742 373.756 411.25ZM385.57 407.773V408.909H381.047V407.773H385.57ZM382.365 405.682H383.706V414C383.706 414.379 383.761 414.663 383.871 414.852C383.984 415.038 384.128 415.163 384.303 415.227C384.481 415.288 384.668 415.318 384.865 415.318C385.013 415.318 385.134 415.311 385.229 415.295C385.323 415.277 385.399 415.261 385.456 415.25L385.729 416.455C385.638 416.489 385.511 416.523 385.348 416.557C385.185 416.595 384.979 416.614 384.729 416.614C384.35 416.614 383.979 416.532 383.615 416.369C383.255 416.206 382.956 415.958 382.717 415.625C382.482 415.292 382.365 414.871 382.365 414.364V405.682ZM387.587 416.5V407.773H388.928V416.5H387.587ZM388.268 406.318C388.007 406.318 387.782 406.229 387.592 406.051C387.407 405.873 387.314 405.659 387.314 405.409C387.314 405.159 387.407 404.945 387.592 404.767C387.782 404.589 388.007 404.5 388.268 404.5C388.53 404.5 388.753 404.589 388.939 404.767C389.128 404.945 389.223 405.159 389.223 405.409C389.223 405.659 389.128 405.873 388.939 406.051C388.753 406.229 388.53 406.318 388.268 406.318ZM392.724 411.25V416.5H391.384V407.773H392.679V409.136H392.793C392.997 408.693 393.308 408.337 393.724 408.068C394.141 407.795 394.679 407.659 395.338 407.659C395.929 407.659 396.446 407.78 396.889 408.023C397.332 408.261 397.677 408.625 397.923 409.114C398.17 409.598 398.293 410.212 398.293 410.955V416.5H396.952V411.045C396.952 410.36 396.774 409.826 396.418 409.443C396.062 409.057 395.573 408.864 394.952 408.864C394.524 408.864 394.141 408.956 393.804 409.142C393.471 409.328 393.207 409.598 393.014 409.955C392.821 410.311 392.724 410.742 392.724 411.25ZM406.243 412.932V407.773H407.584V416.5H406.243V415.023H406.152C405.947 415.466 405.629 415.843 405.197 416.153C404.766 416.46 404.22 416.614 403.561 416.614C403.016 416.614 402.531 416.494 402.107 416.256C401.682 416.013 401.349 415.65 401.107 415.165C400.864 414.676 400.743 414.061 400.743 413.318V407.773H402.084V413.227C402.084 413.864 402.262 414.371 402.618 414.75C402.978 415.129 403.436 415.318 403.993 415.318C404.326 415.318 404.665 415.233 405.01 415.062C405.358 414.892 405.65 414.631 405.885 414.278C406.124 413.926 406.243 413.477 406.243 412.932ZM413.699 416.682C412.858 416.682 412.133 416.496 411.523 416.125C410.917 415.75 410.449 415.227 410.119 414.557C409.794 413.883 409.631 413.098 409.631 412.205C409.631 411.311 409.794 410.523 410.119 409.841C410.449 409.155 410.907 408.621 411.494 408.239C412.085 407.852 412.775 407.659 413.562 407.659C414.017 407.659 414.466 407.735 414.909 407.886C415.352 408.038 415.756 408.284 416.119 408.625C416.483 408.962 416.773 409.409 416.989 409.966C417.205 410.523 417.312 411.208 417.312 412.023V412.591H410.585V411.432H415.949C415.949 410.939 415.85 410.5 415.653 410.114C415.46 409.727 415.184 409.422 414.824 409.199C414.468 408.975 414.047 408.864 413.562 408.864C413.028 408.864 412.566 408.996 412.176 409.261C411.79 409.523 411.492 409.864 411.284 410.284C411.076 410.705 410.972 411.155 410.972 411.636V412.409C410.972 413.068 411.085 413.627 411.312 414.085C411.544 414.54 411.864 414.886 412.273 415.125C412.682 415.36 413.157 415.477 413.699 415.477C414.051 415.477 414.369 415.428 414.653 415.33C414.941 415.227 415.189 415.076 415.398 414.875C415.606 414.67 415.767 414.417 415.881 414.114L417.176 414.477C417.04 414.917 416.811 415.303 416.489 415.636C416.167 415.966 415.769 416.223 415.295 416.409C414.822 416.591 414.29 416.682 413.699 416.682Z" fill="#B4B4B4"/>
<defs>
<linearGradient id="paint0_linear_277_1021" x1="384" y1="7.37607e-06" x2="192.147" y2="534.089" gradientUnits="userSpaceOnUse">
<stop stopColor="#0F0F0F"/>
<stop offset="1" stopColor="#181818"/>
</linearGradient>
</defs>
</svg>
